<svg preserveAspectRatio="none" width="100%" height="100%" overflow="visible" style="display: block;" viewBox="0 0 74.509 54.8639" fill="none" xmlns="http://www.w3.org/2000/svg">
<g id="#000000ff">
<path id="Vector" d="M32.183 0.680905C37.0656 -0.240983 42.1665 -0.258684 47.0184 0.823983C47.1251 0.846108 47.3369 0.890359 47.4436 0.913959C45.6959 1.9863 44.2893 3.46427 43.177 5.08532C41.738 7.24328 40.8019 9.67854 40.4171 12.1772C40.2134 13.4457 40.2813 14.7349 40.3153 16.0123C40.2959 16.8383 40.8456 17.6451 41.6685 17.9932C42.7227 18.4343 44.1616 18.1053 44.6886 17.1141C45.3289 16.1406 44.7436 15.0034 44.9392 13.9576C45.012 12.4899 45.3968 11.0518 45.9352 9.67117C46.037 9.42041 46.1437 9.17113 46.2504 8.92185C47.3353 6.38482 49.8574 4.63396 52.538 3.61177C52.9536 3.48787 53.4014 3.48492 53.8331 3.42887C54.1419 3.51885 54.4685 3.54392 54.7886 3.59702C55.7279 3.98643 56.5783 4.52776 57.4627 5.01009C58.1385 5.37295 58.7125 5.89216 59.0682 6.53379C59.3462 7.20198 59.3382 7.93801 59.204 8.63423C58.6931 9.95585 57.8572 11.1919 56.7044 12.1256C56.3762 12.3911 56.0141 12.6389 55.584 12.7392C54.4749 12.8498 53.5049 13.7894 53.5469 14.8205C53.4774 15.8264 54.3553 16.7867 55.4369 16.9475C55.8734 17.0035 56.3148 16.9593 56.7513 16.9121C58.8192 16.3751 60.4376 14.9503 61.71 13.4266C62.5555 12.2923 63.317 11.0739 63.6954 9.73459C63.7358 9.72427 63.815 9.70362 63.8554 9.69182C64.9419 10.6019 65.9669 11.5769 66.9289 12.5961C68.2191 13.8425 69.2748 15.2733 70.5876 16.502C71.9053 17.8251 72.9934 19.3532 73.6983 21.0229C73.7694 21.2058 73.8373 21.3887 73.9117 21.5716C74.712 23.8196 74.7217 26.2873 73.8583 28.522C73.3329 29.9262 72.4485 31.1962 71.4445 32.3555C72.8834 33.8837 73.5398 35.9929 73.2165 37.9842C72.864 40.1982 71.6741 42.2456 70.067 43.9138C68.0396 46.0423 65.401 47.6486 62.5491 48.7076C62.3421 48.777 62.1384 48.8463 61.9363 48.92C60.8531 49.2917 59.7278 49.5484 58.6171 49.8434C58.8547 50.5426 58.9857 51.2668 59.204 51.9704C59.2945 52.5427 59.3737 53.1725 59.0633 53.7035C58.6656 54.4248 57.7764 54.8717 56.9017 54.8629C55.2849 54.8629 53.6682 54.8658 52.0514 54.8614C51.3546 54.8673 50.6965 54.5502 50.2503 54.0738C47.9254 51.7595 45.6636 49.3935 43.3192 47.0954C41.5473 47.0999 39.7656 46.8594 38.11 46.2694C37.0074 45.8608 35.9953 45.2236 35.2532 44.3681C34.3446 44.554 33.4198 44.6587 32.5015 44.7841C31.1127 44.8534 29.6964 44.9375 28.3189 44.7324C26.8137 44.6218 25.3861 44.107 24.0619 43.4684C23.5187 43.1748 22.9997 42.8488 22.5131 42.483C24.5389 41.0021 26.0069 38.9666 26.9511 36.7777C27.0255 36.5933 27.0998 36.4104 27.1758 36.2275C27.9292 34.22 28.4013 32.0812 28.1394 29.9527C28.0214 29.2329 27.8759 28.4762 27.4022 27.8715C26.8266 27.1561 25.7272 26.8448 24.8089 27.1325C23.9682 27.3537 23.3619 28.0735 23.2099 28.842C23.0547 29.55 23.564 30.1887 23.53 30.8923C23.551 32.3526 23.1194 33.7848 22.6036 35.1551C21.8227 37.2231 20.0863 39.0123 17.8228 39.7882C15.0517 40.7499 11.7971 40.952 9.09391 39.7011C7.039 38.8294 5.51601 37.1966 4.40205 35.4383C2.87421 33.7834 1.54846 31.9455 0.756247 29.8952C0.709361 29.7447 0.659242 29.5958 0.607505 29.4497C-0.231597 27.044 -0.173394 24.4361 0.609121 22.026C0.678642 21.8401 0.746546 21.6557 0.816067 21.4713C1.05211 20.8533 1.29301 20.2249 1.69074 19.6748C1.84433 20.0804 2.02702 20.4787 2.22265 20.871C3.87337 23.8594 6.77709 26.2416 10.182 27.4732C11.7826 28.0278 13.4883 28.4187 15.2118 28.3508C16.5812 28.2653 17.6272 26.9068 17.2392 25.7017C17.0031 24.7238 15.9247 24.0644 14.8577 24.0777C11.3396 23.9789 8.09637 21.8932 6.49253 19.0818C5.80541 17.8177 5.3899 16.3869 5.62433 14.9709C5.74882 14.1906 6.06894 13.4472 6.48445 12.7599C9.10685 8.49705 13.8504 5.488 19.05 4.43631C20.1639 4.24898 21.3005 4.47171 22.3207 4.88619C23.8227 5.57355 25.3068 6.74472 25.5122 8.35397C25.6593 9.01035 25.4184 9.76409 25.9131 10.3335C26.6374 11.4058 28.466 11.5769 29.4458 10.7111C29.7028 10.5075 29.8807 10.2391 30.0391 9.96912C30.356 9.09591 30.2089 8.18287 30.0892 7.2949C30.0116 7.05595 29.9486 6.81405 29.8758 6.57657C29.8257 6.42612 29.7756 6.27714 29.7255 6.12816C29.0723 4.62364 27.9761 3.27252 26.5582 2.29753C26.5485 2.24443 26.5324 2.13823 26.5243 2.08365C28.3868 1.54232 30.2525 0.986235 32.183 0.680905ZM30.2816 14.6656C30.5047 15.3043 30.2428 15.9798 29.7287 16.4341C28.673 17.3369 27.3068 17.9092 25.8776 18.0935C25.1646 18.1393 24.3804 18.1555 23.7531 17.8015C23.3473 17.4637 23.0143 17.0419 22.4904 16.8442C22.3207 16.7985 22.1509 16.7498 21.9844 16.6967C21.7095 16.6849 21.4363 16.6864 21.1631 16.7026C20.9982 16.7572 20.8268 16.8 20.657 16.8427C19.5124 17.2646 19.0079 18.508 19.3507 19.5538C20.0039 20.7486 21.2714 21.6174 22.6473 22.0245C22.9011 22.0909 23.1582 22.1528 23.4136 22.2221C24.6569 22.4508 25.9277 22.405 27.1742 22.2221C28.2203 22.0186 29.2421 21.7206 30.2089 21.2988C31.4134 22.8048 33.132 24.0438 35.1562 24.4538C35.8756 24.5527 36.6129 24.5453 37.3372 24.4774C38.4544 24.299 39.6945 23.8343 40.0954 22.7753C40.2167 22.2413 40.2474 21.6542 39.9596 21.1586C39.5586 20.4462 38.705 19.9506 37.8222 19.9521C37.1594 19.9344 36.5628 20.4433 35.895 20.1984C35.0236 19.9004 34.3268 19.2632 33.8547 18.5449C34.0115 18.3428 34.1651 18.1393 34.309 17.9298C35.0511 16.6126 35.3437 15.0402 34.8118 13.6139C34.5418 12.636 33.4149 11.9457 32.322 12.0592C30.9882 12.1699 29.9049 13.4664 30.2816 14.6656ZM46.0192 19.66C45.9772 19.7323 45.8964 19.8768 45.8559 19.9491C45.6636 20.3887 45.6393 20.8651 45.6991 21.3312C45.9093 21.874 46.2569 22.3873 46.826 22.672C47.4307 22.9818 47.961 23.4213 48.2665 23.9995C49.0749 25.4996 48.7774 27.2711 48.2536 28.8111C48.0143 28.7653 47.775 28.7196 47.5406 28.6621C45.5197 28.2166 43.3807 28.1532 41.3662 28.6636C41.1625 28.7314 40.9571 28.7919 40.7551 28.8583C38.954 29.4586 37.4148 30.674 36.5224 32.2228C35.7059 33.4766 36.76 35.1625 38.2846 35.369C38.5546 35.3675 38.8246 35.3557 39.0946 35.3248C39.6201 35.1758 40.1391 34.9368 40.4495 34.5061C40.8391 33.9471 41.2643 33.3748 41.9224 33.0562C43.0363 32.4853 44.3637 32.5311 45.5924 32.6446C46.577 32.8202 47.5568 33.0532 48.4638 33.4544C50.3926 34.2598 52.2632 35.4472 53.2446 37.2143C53.4079 37.7054 53.5776 38.2084 53.5404 38.7276C53.1201 39.8604 54.0384 41.1452 55.2865 41.3856C56.4522 41.6541 57.7246 40.9534 58.0642 39.9106C58.5039 37.9326 57.9898 35.81 56.6931 34.1772C55.6164 32.7169 54.1273 31.5575 52.5461 30.5708C52.8064 29.9026 53.0312 29.2226 53.1799 28.5264C53.243 28.2314 53.2818 27.9334 53.3286 27.6369C53.5049 26.7121 53.4321 25.7578 53.382 24.8241C53.2882 24.4966 53.251 24.1603 53.1831 23.8284C52.6124 21.6837 51.0328 19.7087 48.7823 18.8178C47.7928 18.4564 46.6013 18.8709 46.0192 19.66ZM61.7391 22.7989C60.7253 23.0127 59.6858 23.1189 58.6882 23.3918C58.2549 23.5703 57.9235 23.8815 57.6535 24.2296C57.3835 24.7488 57.217 25.3448 57.4304 25.9067C57.6082 26.6221 58.242 27.1472 58.9679 27.4113C60.0916 27.5735 61.1861 27.2269 62.2855 27.0676C63.3122 26.8522 64.5652 26.8404 65.2361 25.9746C66.1286 24.9937 65.7276 23.3535 64.4746 22.7974C63.6291 22.3165 62.6315 22.6381 61.7391 22.7989Z" fill="var(--fill-0, #2A9D53)"/>
</g>
</svg>
