<svg preserveAspectRatio="none" width="100%" height="100%" overflow="visible" style="display: block;" viewBox="0 0 85.9007 56.4847" fill="none" xmlns="http://www.w3.org/2000/svg">
<g id="#000000ff">
<path id="Vector" d="M10.4907 3.10394C15.8987 0.660072 22.0708 -0.366634 28.0778 0.116214C30.8346 0.250435 33.5338 0.823927 36.1926 1.46366C38.0087 1.92384 39.7653 2.55312 41.5104 3.20156C45.1964 4.66754 48.0031 7.7215 49.0551 11.2357C49.5696 12.9317 50.2166 14.6017 50.5429 16.3396C50.7522 16.9497 50.8098 17.5876 50.9691 18.2082C51.4203 20.6922 51.7869 23.2005 51.7754 25.7246C51.8004 28.2556 51.4164 30.7779 50.7944 33.2392C50.063 35.8661 47.8783 38.0294 45.1656 39.1031C44.8028 39.2496 44.4381 39.3873 44.0714 39.5215C42.3071 40.1054 40.4891 40.5447 38.6461 40.8637C36.6035 41.1321 34.6376 41.7475 32.7505 42.4953C27.1198 45.3244 22.2071 49.2673 18.141 53.7855C16.7665 55.4624 14.4916 56.517 12.1821 56.4839C10.0511 56.5048 7.9029 55.8599 6.27493 54.5996C5.03668 53.6112 4.10367 52.3021 3.69668 50.8466C3.10347 48.0559 2.61393 45.2459 2.22613 42.4273C2.07447 42.0351 2.10327 41.6115 2.0476 41.2054C1.43135 37.6825 0.721034 34.1596 0.369716 30.6054C0.348598 30.2044 0.354357 29.7983 0.231492 29.4096C-0.00271998 25.9181 -0.169741 22.3987 0.296764 18.9211C0.381233 18.4609 0.321722 17.9816 0.486822 17.5371C0.75751 15.3896 1.43135 13.2995 2.27605 11.2845C3.81378 7.78251 6.67232 4.68497 10.4907 3.10394Z" fill="var(--fill-0, #2A9D53)"/>
<path id="Vector_2" d="M58.5742 3.39853C62.6633 3.10395 66.7716 3.09174 70.8722 3.17193C74.2261 3.34276 77.6221 3.53624 80.855 4.4357C81.1756 4.54726 81.4982 4.65359 81.8245 4.75992C83.5274 5.34213 85.0286 6.53966 85.6026 8.13986C86.0442 9.14042 85.9328 10.2334 85.6698 11.2583C85.5834 11.4797 85.5066 11.7028 85.426 11.9259C84.8366 13.4704 83.6291 14.7934 82.149 15.7085C81.0489 16.5208 80.1371 17.5144 79.2175 18.4888C77.1422 20.7706 75.209 23.1587 73.4159 25.6322C71.6286 28.28 69.2635 30.5879 66.5508 32.4757C63.8382 34.3235 60.6571 35.8504 57.2092 35.9969C56.4836 36.1642 55.7233 35.7406 55.0226 36.0038C55.3163 35.3048 55.6811 34.6215 55.8731 33.8842C56.0593 33.2689 56.138 32.6326 56.2858 32.0103C57.263 27.2864 56.9712 22.4231 56.0497 17.7114C55.6772 15.5691 55.0284 13.4808 54.3872 11.3943C53.7498 9.1073 52.717 6.87434 51.064 5.03359C50.8605 4.78433 51.2675 4.68322 51.4365 4.57341C51.5325 4.53331 51.7244 4.44964 51.8204 4.40955C53.9475 3.59551 56.3127 3.6112 58.5742 3.39853Z" fill="var(--fill-0, #2A9D53)"/>
</g>
</svg>
