<svg preserveAspectRatio="none" width="100%" height="100%" overflow="visible" style="display: block;" viewBox="0 0 67.3198 68.6797" fill="none" xmlns="http://www.w3.org/2000/svg">
<g id="#000000ff">
<path id="Vector" d="M19.5199 0.528951C22.3789 0.449393 25.2427 0.450919 28.1025 0.422438C28.4997 0.370193 28.659 0.876368 28.5466 1.20659C27.7126 5.93169 27.902 10.7978 28.9164 15.4299C29.2834 16.7137 30.3113 17.7396 31.5408 18.1114C32.2647 18.2225 33.0806 18.244 33.7223 17.7895C34.392 17.3002 34.8432 16.5322 35.0641 15.7245C35.572 13.9177 35.5706 12.0156 36.0785 10.2072C36.5659 8.42316 37.5975 6.81669 38.9144 5.56482C40.9286 3.57393 43.656 2.41695 46.3941 2.32063C49.1458 2.28878 51.9295 2.79749 54.3772 4.08501C57.0623 5.41662 59.3072 7.55067 61.1056 9.98841C63.1072 12.7666 64.5874 15.9439 65.5638 19.2782C66.4966 22.1938 66.8243 25.2885 66.9287 28.366C67.0469 34.7249 65.9382 41.1747 63.4339 47.0547C62.2222 49.8771 60.6791 52.5677 58.748 54.9334C55.5725 58.8551 51.3051 61.6855 46.79 63.599C43.9315 64.7513 40.9447 65.5639 37.9055 65.8572C32.6754 66.4229 27.2444 65.6775 22.6169 63.1252C20.2381 61.8625 18.259 59.9075 15.799 58.7899C14.5805 58.2347 13.1501 57.8921 11.8481 58.4406C10.8108 58.8151 9.98383 59.6517 9.41335 60.6132C8.47615 62.1676 7.90212 63.9616 7.79354 65.7793C7.72649 66.6154 7.76018 67.4669 7.57792 68.2922C7.51601 68.6189 7.14851 68.6032 6.90476 68.6073C4.78629 68.622 2.66755 68.6577 0.549158 68.6664C0.236869 68.7298 -0.0129543 68.4229 0.0184303 68.1146C0.0393652 64.2649 0.055193 60.3643 0.939004 56.5822C1.67287 53.4674 3.41504 50.6605 5.63841 48.4435C7.67935 46.3952 10.2133 44.8061 12.9868 44.2045C15.6461 43.6222 18.3537 44.2144 20.8542 45.1032C23.0114 45.8799 25.1724 46.8203 27.5065 46.856C29.2032 46.8968 31.0404 46.5484 32.3614 45.3161C33.4671 44.3309 33.9889 42.7913 33.9848 41.3204C33.9644 39.109 33.0675 36.9848 31.6622 35.3784C30.385 33.7856 28.8374 32.4751 27.3555 31.1008C23.7723 27.7427 20.8448 23.5228 19.3354 18.6991C17.5264 13.1814 17.8112 7.10378 19.057 1.41878C19.159 1.11571 19.154 0.61242 19.5199 0.528951ZM41.2582 25.2561C40.1629 25.547 39.1745 26.3732 38.7335 27.4732C38.3248 28.4105 38.3077 29.512 38.6792 30.4457C39.182 31.8167 40.5556 32.7564 41.9704 32.7431C43.0056 32.7547 44.0132 32.2258 44.7213 31.4371C45.8655 30.1555 45.9731 28.0764 45.022 26.6951C44.1966 25.5092 42.6577 24.8643 41.2582 25.2561ZM52.5298 33.6526C51.9688 33.7696 51.4857 34.2209 51.3025 34.7863C50.9964 35.5948 51.4062 36.5792 52.156 36.9139C53.0249 37.2954 54.1748 36.8056 54.4428 35.8171C54.8981 34.6149 53.7037 33.3127 52.5298 33.6526ZM40.4792 40.2261C39.5924 40.5615 39.0869 41.7432 39.5284 42.6131C39.9014 43.5437 41.1324 43.9109 41.9377 43.3015C42.6168 42.8646 42.8321 41.9338 42.598 41.1896C42.2843 40.3575 41.3001 39.8614 40.4792 40.2261ZM44.9879 49.4057C43.738 49.7178 42.7221 50.9981 42.771 52.3468C42.744 53.6543 43.709 54.8582 44.9286 55.1098C45.8398 55.3377 46.8576 55.025 47.5371 54.3297C48.4767 53.3718 48.652 51.7488 47.9411 50.6323C47.3458 49.6109 46.1103 49.1385 44.9879 49.4057Z" fill="var(--fill-0, #2A9D53)"/>
</g>
</svg>
