<svg preserveAspectRatio="none" width="100%" height="100%" overflow="visible" style="display: block;" viewBox="0 0 102.727 51.7941" fill="none" xmlns="http://www.w3.org/2000/svg">
<g id="#000000ff">
<path id="Vector" d="M37.7435 0.385702C39.1742 -0.00533014 40.6799 -0.00329254 42.1606 0.00485396C48.3673 0.00689059 54.574 0.00689059 60.783 0.00485396C62.3363 -0.0216222 63.9101 0.0496598 65.3977 0.485497C68.7633 1.34903 71.5816 3.62597 73.0101 6.47928C65.5793 9.36518 59.0524 14.1879 54.7352 20.3528C53.5157 21.98 52.5891 23.7621 51.6467 25.5238C51.5944 25.5034 51.4877 25.4586 51.4355 25.4382C47.384 16.8864 39.424 9.90081 29.8245 6.41819C31.1575 3.41824 34.2847 1.17795 37.7435 0.385702Z" fill="var(--fill-0, #2A9D53)"/>
<path id="Vector_2" d="M9.19076 13.0434C12.0386 11.577 15.3679 10.9538 18.6336 11.0149C21.2839 11.0169 23.9342 11.0169 26.5867 11.0128C26.9433 11.0027 27.2998 11.0536 27.6314 11.1798C32.5255 12.8336 36.9698 15.5321 40.5308 18.9638C43.8805 22.2 46.415 26.0981 47.9366 30.2936C48.9585 33.3159 49.5331 36.4645 49.5422 39.6234C49.5467 43.6742 49.5376 47.725 49.5444 51.7759C45.1228 51.7901 40.6988 51.8146 36.2772 51.7616C36.2817 49.3645 36.2794 46.9654 36.2681 44.5683C32.3233 42.1528 29.7594 38.0103 29.6685 33.7171C29.6458 31.2691 29.6912 28.8191 29.6458 26.371C29.4437 23.2611 27.5678 20.2713 24.7313 18.4771C22.0742 16.7398 18.5587 16.1268 15.3588 16.7704C12.779 17.2429 10.4421 18.5748 8.78425 20.3996C7.12414 22.1715 6.25434 24.4729 6.15895 26.7702C8.43224 26.1165 10.8372 26.369 13.1832 26.3181C15.7631 26.2936 18.3407 27.2325 20.0985 28.9351C22.181 30.8842 23.044 33.8149 22.3104 36.432C21.5496 39.4747 18.6518 41.9655 15.2385 42.5418C13.056 42.8331 10.8327 42.7618 8.63663 42.6824C5.00755 42.552 1.62828 40.2425 0.513206 37.1468C-0.240771 35.2589 0.0794408 33.2324 0.0113103 31.2732C0.0748988 28.6419 -0.227145 25.9637 0.495038 23.3813C1.56696 19.029 4.85993 15.2001 9.19076 13.0434Z" fill="var(--fill-0, #2A9D53)"/>
<path id="Vector_3" d="M66.6597 15.6502C69.453 13.7073 72.5621 12.1065 75.9005 11.0556C78.6234 10.9579 81.3554 11.0454 84.0829 11.0149C87.6734 10.9436 91.3343 11.7216 94.3593 13.4894C98.1246 15.6136 100.997 19.0392 102.092 22.9169C103.066 26.1063 102.592 29.4382 102.705 32.6988C102.787 34.654 102.685 36.6988 101.581 38.4421C100.098 40.8718 97.1844 42.5703 94.08 42.6824C91.8884 42.7598 89.6719 42.8351 87.4963 42.5418C85.1004 42.1447 82.9497 40.7924 81.6098 38.9798C80.2222 37.0389 79.7635 34.5644 80.4834 32.3424C81.0829 30.318 82.6136 28.5462 84.6325 27.4973C86.2154 26.5869 88.1344 26.2957 89.9899 26.3181C92.1837 26.3507 94.432 26.1531 96.5576 26.7723C96.46 24.1328 95.2904 21.5157 93.1829 19.6522C90.4077 17.0535 86.0633 15.9598 82.173 16.7928C78.033 17.5749 74.6151 20.5789 73.475 24.2081C72.855 26.037 73.1048 27.9657 73.0526 29.8455C73.0026 31.819 73.2093 33.8088 72.8096 35.7619C72.1124 39.3036 69.7483 42.5337 66.4485 44.5724C66.4371 46.9654 66.4349 49.3605 66.4394 51.7555C62.1813 51.8024 57.9186 51.7902 53.6604 51.7616C53.7035 48.666 53.6649 45.5703 53.6786 42.4746C53.6967 40.2282 53.5855 37.9676 53.9375 35.7375C54.9299 27.8659 59.6922 20.4872 66.6597 15.6502Z" fill="var(--fill-0, #2A9D53)"/>
</g>
</svg>
