<svg preserveAspectRatio="none" width="100%" height="100%" overflow="visible" style="display: block;" viewBox="0 0 43.3478 117.058" fill="none" xmlns="http://www.w3.org/2000/svg">
<g id="#000000ff">
<path id="Vector" d="M8.87265 0.0125965C17.3846 0.0272331 25.8946 0.0393151 34.4065 0.0488478C34.4109 5.92091 34.4172 11.7904 34.4254 17.6599C34.4574 24.5681 35.9399 31.4324 38.6202 37.3211C39.6214 39.8081 41.2745 41.8418 41.7806 44.665C42.2217 46.8424 41.3714 49.2452 39.9467 50.3456C38.9168 51.1378 37.7257 51.4066 36.5725 51.6857C33.6116 52.3016 30.6164 52.5704 27.6594 53.2323C25.1429 53.7493 22.7006 54.7334 20.2659 55.7074C16.0997 57.3934 11.7777 58.4132 7.42847 58.68C5.79473 58.8538 4.12803 58.267 2.73305 57.1192C1.1014 55.7184 0.0150474 53.1598 0.0557242 50.5365C0.0214447 48.5536 0.545132 46.6531 1.15217 44.8829C2.15321 41.9572 3.81673 39.5837 4.95594 36.7705C7.49329 31.0093 8.86474 24.3327 8.89157 17.6237C8.88716 11.7542 8.88085 5.88466 8.87265 0.0125965Z" fill="var(--fill-0, #2A9D53)"/>
<path id="Vector_2" d="M23.1604 61.3201C27.2945 59.6417 31.5862 58.6397 35.9034 58.3754C37.5352 58.2067 39.2038 58.7858 40.5988 59.9387C42.4746 61.521 43.5445 64.6181 43.2432 67.5728C42.8767 71.4283 41.1952 74.7179 39.54 77.7779C37.1944 82.4396 35.4981 87.7427 34.8384 93.328C34.2642 97.446 34.4786 101.649 34.4452 105.814C34.4493 109.558 34.4514 113.299 34.4592 117.045C25.9473 117.031 17.4373 117.019 8.92537 117.009C8.92095 111.137 8.91653 105.268 8.90644 99.3954C8.86876 92.4898 7.3901 85.6255 4.71163 79.7369C3.70856 77.2473 2.05732 75.211 1.54936 72.3879C1.11018 70.213 1.9567 67.8077 3.38332 66.7124C4.48492 65.8641 5.76493 65.6031 6.99952 65.3216C9.84314 64.754 12.7154 64.4824 15.5514 63.8485C18.1436 63.3392 20.6558 62.3169 23.1604 61.3201Z" fill="var(--fill-0, #2A9D53)"/>
</g>
</svg>
