<svg preserveAspectRatio="none" width="100%" height="100%" overflow="visible" style="display: block;" viewBox="0 0 72.3091 64.0999" fill="none" xmlns="http://www.w3.org/2000/svg">
<g id="#000000ff">
<path id="Vector" d="M45.3974 1.7145C45.4711 0.658251 46.6884 -0.173654 47.8554 0.031187C48.8123 0.170535 49.5872 0.946701 49.6107 1.81066C49.6311 3.2529 49.6123 4.69654 49.6186 6.14018C50.6539 6.27396 51.6892 6.44257 52.69 6.71987C52.7763 6.73798 52.9504 6.77282 53.0382 6.79094C53.5622 6.96233 54.0908 7.12397 54.6069 7.31627C55.4414 6.07747 56.221 4.81081 57.0618 3.57619C57.6501 2.6774 59.1434 2.43633 60.0752 3.04806C60.7027 3.45217 61.0603 4.17399 60.9332 4.85679C60.8344 5.37377 60.4768 5.80157 60.2007 6.25166C59.636 7.1393 59.0336 8.00883 58.4799 8.90205C58.3685 9.02886 58.3842 9.18353 58.4015 9.33263C59.7787 10.1715 60.8831 11.3086 61.9497 12.4359C63.2486 11.7545 64.5662 11.0996 65.8666 10.4195C66.5867 10.0071 67.5828 9.93183 68.3106 10.3722C69.2314 10.8655 69.52 12.0304 68.9914 12.8484C68.6228 13.4922 67.8055 13.7458 67.1545 14.1053C66.1082 14.6167 65.0917 15.1769 64.0517 15.6966C64.1913 15.9934 64.3247 16.293 64.4486 16.5968C64.5004 16.7348 64.5521 16.8727 64.6023 17.0107C64.9568 18.0293 65.2376 19.0688 65.3898 20.1265C66.9631 20.1279 68.5365 20.1251 70.1098 20.1265C70.4471 20.1153 70.7765 20.1864 71.095 20.2798C71.8212 20.6003 72.3107 21.2914 72.3091 22.0133C72.3012 22.9734 71.3648 23.8499 70.2777 23.8791C68.673 23.8931 67.0667 23.8805 65.4619 23.8833C65.3443 25.5401 65.1074 27.1886 64.7561 28.8176C64.7043 29.0294 64.6839 29.2579 64.5443 29.4461C65.5921 29.7833 66.6839 29.9867 67.7553 30.2487C68.6949 30.4786 69.84 30.5608 70.4079 31.3704C71.1655 32.3431 70.604 33.7784 69.371 34.1825C68.6636 34.3399 67.9545 34.202 67.2753 34.0208C67.0259 33.9581 66.7749 33.901 66.5286 33.8383C65.5074 33.6404 64.5176 33.3297 63.4933 33.1471C63.0274 34.4862 62.436 35.7864 61.7756 37.0586C61.5544 37.5073 61.3097 37.9449 61.0682 38.3838C61.3678 38.5427 61.6737 38.6931 61.9827 38.8409C62.9803 39.3453 63.9592 39.8804 64.971 40.3667C65.4557 40.5813 65.8227 40.9464 66.0753 41.3672C66.251 41.841 66.2635 42.3371 66.0925 42.8137C65.8321 43.3669 65.2831 43.7431 64.6588 43.9382C64.1615 43.9842 63.6533 43.9772 63.1843 43.8058C62.3513 43.3836 61.534 42.9363 60.6932 42.5266C60.1191 42.2618 59.5921 41.919 59.0022 41.6822C58.7999 41.7142 58.745 41.9204 58.6289 42.0445C57.5544 43.4839 56.3402 44.8384 55.054 46.1343C56.1567 47.1056 57.2469 48.088 58.3544 49.055C58.5724 49.2418 58.7215 49.48 58.8642 49.7169C58.9097 49.8619 58.9583 50.0082 59.0117 50.1559C59.0148 50.3426 59.0164 50.5307 59.0179 50.7216C58.9411 50.9028 58.8736 51.0867 58.8046 51.2707C58.392 52.044 57.3771 52.4398 56.4453 52.3032C56.0908 52.1694 55.7159 52.0468 55.4445 51.7946C54.3151 50.7955 53.1841 49.7978 52.061 48.7931C50.4578 50.05 48.7558 51.201 46.9754 52.2531C47.7676 53.5267 48.635 54.7613 49.4131 56.0419C49.8821 56.8794 49.4711 57.9175 48.6413 58.4443C48.3778 58.5279 48.1143 58.6115 47.8523 58.6993C47.6327 58.7007 47.4146 58.7021 47.1966 58.7048C46.5848 58.5794 46.0029 58.2938 45.6923 57.7921C44.8719 56.584 44.1016 55.3494 43.3001 54.1328C41.5604 54.8923 39.7785 55.5849 37.9416 56.1339C37.758 56.1813 37.5745 56.2272 37.391 56.2704C37.4663 56.6007 37.5604 56.9268 37.6671 57.2514C37.9431 58.3384 38.3369 59.3988 38.6412 60.4787C38.8655 61.3887 38.202 62.3669 37.2012 62.6303C36.1392 62.941 34.8325 62.3878 34.5439 61.4054C34.1329 60.037 33.667 58.6812 33.2968 57.3044C31.1838 57.6012 29.0693 57.9245 26.9265 58.0206C26.9265 59.3988 26.9297 60.7769 26.9265 62.1551C26.9406 62.9313 26.3979 63.7102 25.5555 63.9638C24.3367 64.4432 22.8198 63.5904 22.7131 62.4268C22.6614 60.9386 22.7053 59.4476 22.6912 57.9579C21.7013 57.8353 20.7209 57.6542 19.7578 57.4187C19.5978 57.3755 19.4394 57.3351 19.2794 57.2974C18.746 57.1442 18.2252 56.9616 17.7044 56.7805C16.873 58.0151 16.095 59.279 15.2558 60.5108C14.6864 61.3873 13.2699 61.6479 12.3255 61.1086C11.6447 60.7114 11.2385 59.9576 11.3765 59.2385C11.4753 58.723 11.8345 58.2966 12.1091 57.8479C12.6738 56.9574 13.2793 56.0893 13.833 55.1933C13.9412 55.0651 13.9271 54.9104 13.9052 54.7627C12.5326 53.9224 11.4251 52.7923 10.3632 51.6622C9.06274 52.3422 7.74508 52.9972 6.44467 53.68C5.68858 54.1064 4.64072 54.1663 3.9066 53.6688C3.05325 53.1491 2.80854 52.0357 3.31835 51.247C3.68698 50.6004 4.50896 50.3593 5.15524 49.9928C6.19996 49.4786 7.21958 48.9254 8.25803 48.4029C8.11685 48.1047 7.98351 47.8051 7.86116 47.5013C7.81096 47.3647 7.76077 47.2268 7.71371 47.0916C7.34664 46.0744 7.07213 45.0307 6.91997 43.9716C5.65564 43.9702 4.39131 43.9716 3.12855 43.9716C2.48854 43.9633 1.825 44.0316 1.21636 43.8183C0.439882 43.4756 -0.073066 42.705 0.00850377 41.9344C0.104191 41.0272 1.01401 40.2399 2.04618 40.2162C3.67287 40.2079 5.29799 40.2162 6.92468 40.2134C7.15213 38.7015 7.59606 37.2133 8.2596 35.8059C7.01723 35.1649 5.77172 34.5281 4.52151 33.8982C3.69796 33.5791 3.02345 32.874 3.05168 32.0435C3.02502 31.2199 3.69169 30.4856 4.55288 30.2306C4.96386 30.1553 5.38583 30.1553 5.79525 30.2417C7.35135 30.9719 8.8651 31.7773 10.3835 32.5702C11.4063 31.3217 12.68 30.2654 14.0307 29.3053C13.1977 28.0136 12.3177 26.7455 11.5318 25.4328C10.942 24.3501 11.8377 22.9803 13.1491 22.8047C13.3734 22.8061 13.5961 22.8075 13.8205 22.8089C14.382 22.9552 14.9405 23.2061 15.2354 23.6785C16.0872 24.9173 16.8746 26.1895 17.7013 27.4422C18.5907 27.1385 19.4754 26.811 20.4088 26.6312C20.9688 26.4961 21.5413 26.4264 22.1076 26.3261C23.4974 26.1031 24.939 26.294 26.3022 25.9442C25.3422 25.1792 24.4731 24.3292 23.5382 23.5405C22.95 23.057 22.5468 22.3282 22.7461 21.6064C22.8951 20.904 23.5257 20.3578 24.2849 20.1558C24.9626 20.0791 25.7108 20.1557 26.2222 20.5989C27.2324 21.4823 28.2426 22.3672 29.2309 23.2716C29.5462 22.5609 29.4897 21.7847 29.5273 21.0378C29.5979 19.6569 29.954 18.3038 30.4073 16.987C30.4795 16.8128 30.5438 16.6358 30.6144 16.4617C30.7132 16.2039 30.8293 15.9516 30.9642 15.7078C29.6669 15.0306 28.3665 14.3589 27.0551 13.7026C26.6724 13.5131 26.3006 13.2776 26.0685 12.9403C25.4661 12.1126 25.7359 10.8418 26.7273 10.3499C27.3626 9.99732 28.2081 9.9806 28.8654 10.2955C29.885 10.7651 30.8403 11.3337 31.8568 11.8102C32.2678 12.0234 32.6819 12.2311 33.096 12.4401C34.1125 11.2305 35.3298 10.1492 36.6929 9.24903C35.9698 7.87088 34.9533 6.6265 34.1956 5.26369C33.7548 4.35653 34.3086 3.17069 35.3643 2.83904C36.2553 2.51993 37.4051 2.79863 37.9118 3.54135C38.7855 4.78294 39.5385 6.08723 40.42 7.32324C40.9361 7.11143 41.471 6.93864 42.0153 6.79372C42.1722 6.75331 42.3291 6.71151 42.4859 6.66831C43.4365 6.43699 44.4044 6.25723 45.3832 6.14018C45.3926 4.66449 45.3628 3.1888 45.3974 1.7145ZM45.9495 14.1861C42.7887 14.6766 40.0232 16.7794 39.0224 19.4897C38.9784 19.6318 38.933 19.7739 38.8843 19.9161C38.6333 20.7814 38.569 21.6788 38.5565 22.5679C38.5173 23.9028 38.1376 25.2141 37.6106 26.4584C36.4325 29.1534 34.1156 31.4262 31.2419 32.7778C30.2238 33.2265 29.1744 33.632 28.0622 33.8536C27.7595 33.9107 27.4536 33.9567 27.1524 34.025C26.7367 34.0612 26.3194 34.0891 25.91 34.1588C25.2653 34.1894 24.6206 34.1755 23.9775 34.2173C22.8245 34.2967 21.7233 34.6465 20.6833 35.0785C18.6691 36.0316 17.0566 37.6606 16.3381 39.5905C15.7624 41.1652 15.7609 42.8833 16.2801 44.4705C16.3538 44.6433 16.4197 44.8175 16.4919 44.9917C17.1852 46.5537 18.4652 47.9012 20.0574 48.8014C20.9876 49.3017 21.9963 49.7155 23.0802 49.8646C24.0496 50.0555 25.0535 49.9705 26.0387 49.9747C26.71 49.9399 27.394 49.9887 28.0528 49.8549C28.4732 49.8242 28.8967 49.8103 29.3124 49.7378C32.2411 49.3574 35.1243 48.6328 37.8208 47.5417C44.4718 44.8927 50.017 40.1201 53.2218 34.3051C53.6281 33.5038 54.0814 32.7193 54.4014 31.886C54.4736 31.716 54.5441 31.546 54.6179 31.3774C55.0869 30.0815 55.5559 28.7828 55.8398 27.4436C55.9026 27.1245 55.9371 26.7998 56.0265 26.4863C56.0689 26.1616 56.0955 25.8356 56.1818 25.5192C56.3387 23.6715 56.6555 21.7708 56.1144 19.9495C56.0955 19.8715 56.0563 19.714 56.0375 19.636C55.9606 19.459 55.89 19.2806 55.8179 19.1051C54.723 16.6414 52.1755 14.7128 49.2327 14.2223C48.1519 14.0523 47.0366 14.0886 45.9495 14.1861Z" fill="var(--fill-0, #2A9D53)"/>
<path id="Vector_2" d="M45.6546 18.1658C46.6256 17.7743 47.7394 17.8202 48.7684 17.968C50.0939 18.3247 51.2359 19.1942 51.8037 20.3187C52.4751 21.8934 52.083 23.6115 51.9386 25.2391C51.8492 25.5958 51.8398 25.9651 51.7394 26.3204C51.7033 26.5155 51.6688 26.712 51.6359 26.9085C50.4923 31.6937 47.7143 36.1639 43.7079 39.5264C41.7252 41.2125 39.4538 42.6366 36.9941 43.7166C36.0184 44.1304 35.038 44.5346 34.02 44.8578C33.8647 44.8996 33.7094 44.9414 33.5541 44.9833C31.7156 45.5142 29.8285 45.9517 27.8975 46.1008C27.2842 46.2179 26.652 46.19 26.0293 46.2165C25.1995 46.2179 24.3587 46.2848 23.5414 46.1273C22.2143 45.7734 21.0723 44.901 20.5014 43.7779C19.9962 42.6645 20.0119 41.3811 20.5845 40.29C21.3406 38.8938 23.0347 37.9434 24.7791 37.9448C25.6779 37.949 26.5705 37.8501 27.4646 37.7804C27.7705 37.7135 28.0826 37.6773 28.3948 37.6369C28.6505 37.5769 28.9093 37.5323 29.1666 37.478C30.2536 37.2592 31.2937 36.8941 32.307 36.4886C37.3941 34.4597 41.2687 30.1971 42.4013 25.3422C42.7307 24.1675 42.7871 22.9566 42.8389 21.7526C42.8875 20.1961 44.0625 18.7748 45.6546 18.1658Z" fill="var(--fill-0, #2A9D53)"/>
</g>
</svg>
