<svg preserveAspectRatio="none" width="100%" height="100%" overflow="visible" style="display: block;" viewBox="0 0 60.2886 59.569" fill="none" xmlns="http://www.w3.org/2000/svg">
<g id="#000000ff">
<path id="Vector" d="M13.3965 2.41528C16.4223 0.786191 19.9558 0.042872 23.4565 0.000137683C26.1946 -0.00892718 28.9829 0.428775 31.4363 1.56447C34.8269 3.06924 37.4577 5.80035 38.8998 8.93938C41.2788 14.0688 40.8554 20.1824 37.7839 25.0023C37.1759 25.9541 36.3647 26.7946 35.8798 27.8098C34.3605 27.7606 32.7725 27.986 31.3276 27.4498C29.5122 26.858 28.0258 25.4802 27.4779 23.7993C27.0773 22.7309 27.1875 21.5887 27.1832 20.4802C30.4578 19.7628 32.9657 16.9074 32.9714 13.8564C33.04 13.1014 32.4964 12.3426 31.7039 12.0953C30.7926 11.7508 29.6596 12.2092 29.2747 13.0199C29.0015 13.5016 29.1803 14.0649 28.9958 14.5687C28.5637 16.2819 26.5366 17.485 24.6281 17.1716C23.1861 16.9696 21.9343 15.9776 21.5266 14.7098C21.2777 14.0818 21.5266 13.3475 21.066 12.7816C20.4537 11.8673 18.9029 11.7145 18.0889 12.4915C17.3479 13.1079 17.4666 14.0947 17.6182 14.9054C18.1046 17.5588 20.4222 19.8366 23.3106 20.4815C23.3406 21.3699 23.2605 22.2621 23.3893 23.1466C23.5523 24.2681 23.8785 25.3856 24.4865 26.3815C24.7812 26.8749 25.1475 27.3294 25.4851 27.8008C23.4107 27.8111 21.3363 27.8202 19.2634 27.7969C18.5495 25.0075 15.7413 22.8345 12.6097 22.5483C11.8815 22.4253 11.0489 22.4784 10.4953 22.9744C9.67557 23.5882 9.66555 24.865 10.4409 25.5125C10.8129 25.8415 11.3351 25.9956 11.8501 25.9904C12.8729 26.0111 13.8543 26.4281 14.5754 27.0769C15.5668 28.0378 15.9559 29.5192 15.3765 30.7507C14.8515 32.047 13.4037 32.9677 11.8773 32.969C11.0203 32.9548 10.182 33.4857 9.93164 34.2316C9.54538 35.1809 10.358 36.2958 11.4452 36.4396C14.7656 36.6688 18.066 34.6175 19.0717 31.7518C19.1633 31.5925 19.1618 31.2597 19.4451 31.2985C21.4565 31.3024 23.4679 31.2856 25.4794 31.3089C24.8857 32.1079 24.2691 32.9121 23.9343 33.8367C23.3034 35.357 23.2734 36.9964 23.3163 38.5996C21.2333 39.115 19.3736 40.4022 18.3936 42.1556C17.777 43.1981 17.4494 44.3895 17.5238 45.5731C17.6268 46.5016 18.6869 47.2462 19.7069 47.0999C20.6396 46.9794 21.425 46.1908 21.3793 45.3244C21.3449 43.5037 23.1704 41.8655 25.1732 41.8824C26.9328 41.8086 28.6124 43.0142 29.0029 44.5565C29.1216 44.9152 29.0873 45.2934 29.1302 45.6624C29.2847 46.5093 30.2203 47.1801 31.1688 47.1128C32.1502 47.0519 33.0272 46.2335 32.9714 45.327C33.0186 42.2294 30.4678 39.3649 27.1789 38.5996C27.1975 37.5779 27.0831 36.5328 27.4021 35.537C27.9128 33.689 29.5594 32.1597 31.5479 31.573C32.8283 31.1923 34.186 31.3192 35.5093 31.2959C35.6938 31.9486 35.8969 32.609 36.2846 33.1931C37.0343 34.3508 37.8168 35.5059 38.3204 36.7763C39.8983 40.2934 40.1902 44.2587 39.2088 47.9442C38.6008 50.0472 37.5793 52.0674 36.0944 53.7832C34.3591 55.8164 31.9771 57.404 29.2933 58.2483C26.7111 59.125 23.8914 59.2364 21.1718 58.98C18.0488 58.6783 15.0017 57.6954 12.3837 56.1233C7.7271 53.3222 4.5898 48.8649 2.70285 44.1771C1.4568 41.0989 0.665681 37.8705 0.310893 34.6098C-0.189815 30.6536 -0.0682135 26.6431 0.549804 22.7037C1.34092 17.854 3.01758 13.0509 5.99036 8.92255C7.9002 6.30669 10.3723 3.97702 13.3965 2.41528Z" fill="var(--fill-0, #2A9D53)"/>
<path id="Vector_2" d="M45.3643 22.1598C52.7576 24.6397 58.4443 30.8258 59.8534 37.8446C60.1567 39.2833 60.3069 40.7492 60.2869 42.2152C60.2854 47.3964 60.2869 52.5789 60.2854 57.7614C60.3283 58.6899 59.4585 59.5381 58.4314 59.5627C55.8062 59.5718 53.1811 59.5705 50.556 59.5627C49.5832 59.5472 48.7048 58.7857 48.6962 57.8974C48.6776 54.2235 48.699 50.5496 48.6862 46.8758C48.6618 44.6096 47.6676 42.3472 45.8736 40.7544C45.6991 40.5809 45.463 40.4333 45.4001 40.1937C44.8908 37.2165 43.6719 34.3404 41.898 31.7932C41.3973 31.0835 41.1884 30.1835 41.4645 29.3677C41.6076 28.8238 42.0039 28.3835 42.3572 27.9393C43.6834 26.1704 44.6862 24.2072 45.3643 22.1598ZM48.0424 30.6536C47.4129 30.8258 46.8836 31.2881 46.6962 31.8618C46.3829 32.7489 47.021 33.7926 48.0295 34.0063C49.1754 34.3546 50.5259 33.4792 50.4901 32.3746C50.556 31.2609 49.2226 30.3169 48.0424 30.6536Z" fill="var(--fill-0, #2A9D53)"/>
</g>
</svg>
