<svg preserveAspectRatio="none" width="100%" height="100%" overflow="visible" style="display: block;" viewBox="0 0 75.3825 57.5613" fill="none" xmlns="http://www.w3.org/2000/svg">
<g id="#000000ff">
<path id="Vector" d="M34.97 0.838119C35.9162 -0.277998 38.4561 -0.279371 39.406 0.834C39.7657 1.21977 39.869 1.69751 39.8579 2.15742C39.8542 6.36791 39.8561 10.577 39.8561 14.7875C39.8487 15.6812 40.0553 16.564 40.3799 17.422C40.4685 17.5909 40.5478 17.7611 40.6345 17.9299C41.3003 19.2273 42.4716 20.3654 43.9232 21.233C47.2784 23.3623 50.6336 25.4943 53.9869 27.6249C54.52 27.9983 55.1821 28.2921 55.5197 28.7946C55.7429 29.227 55.741 29.7212 55.5289 30.1564C55.1951 30.6136 54.6601 30.9609 54.1529 31.3069C53.2712 31.7613 51.9155 31.8409 51.067 31.3055C47.948 29.3176 44.8252 27.3353 41.7061 25.3474C40.3928 24.4976 38.9633 23.7247 37.9286 22.6676C37.5302 22.3573 37.3476 21.9167 36.9067 21.6421C36.1136 22.4589 35.3573 23.3101 34.317 23.9691C30.6483 26.3152 26.9593 28.6449 23.2813 30.9843C22.5195 31.565 21.3206 31.8285 20.2747 31.5499C19.513 31.381 19.0869 30.8346 18.7622 30.3363C18.7327 29.923 18.6737 29.4851 18.919 29.1007C19.2178 28.5077 19.9298 28.1274 20.5496 27.7306C23.8623 25.6151 27.1972 23.5146 30.5081 21.3977C32.0833 20.4752 33.2823 19.1957 33.9186 17.7831C34.3299 16.8632 34.5255 15.894 34.5255 14.9234C34.5255 10.6676 34.5291 6.41047 34.5236 2.1533C34.5107 1.69614 34.6121 1.22114 34.97 0.838119Z" fill="var(--fill-0, #2A9D53)"/>
<path id="Vector_2" d="M20.4961 8.71818C22.1598 8.14296 24.0191 7.76543 25.8636 7.98645C26.7619 8.07706 27.6214 8.30221 28.4404 8.58776C28.6894 8.69347 28.944 8.78956 29.2059 8.87743C29.228 10.8447 29.2059 12.8134 29.2169 14.7806C29.2372 15.2035 29.11 15.6181 29.0104 16.0327C28.9237 16.2056 28.8499 16.3827 28.7706 16.5598C28.4607 17.1447 27.9184 17.6444 27.3116 18.0741C23.831 20.2871 20.343 22.496 16.8679 24.7145C15.6247 25.4393 14.4867 26.3248 13.8854 27.43C13.2896 28.5021 13.0498 29.7102 13.4169 30.8497C13.9555 32.7154 15.7686 34.3847 18.2015 35.0423C20.8853 35.8729 24.1741 35.5626 26.4151 34.1637C28.9366 32.585 31.5134 31.0529 34.009 29.4549C34.1344 30.9719 34.4369 32.4806 34.5273 34.0004C34.6029 34.5248 34.2045 34.9984 34.2469 35.5173C34.2801 37.8567 34.2469 40.1973 33.9887 42.5298C33.8836 42.7481 33.8854 42.9801 33.8688 43.2093C33.6382 44.9021 33.1384 46.5755 32.3434 48.1722C32.2161 48.3932 32.0944 48.617 31.9837 48.8435C30.8936 50.6391 29.0307 52.2083 26.5756 53.0073C24.0818 53.7898 21.3372 53.9944 18.6534 54.0053C17.8068 53.9944 16.9971 54.1907 16.2224 54.4241C15.0825 54.7879 14.0421 55.2917 12.952 55.7269C11.9044 56.1374 10.888 56.6041 9.76841 56.9007C9.536 56.9611 9.30175 57.0201 9.07119 57.0846C7.6878 57.4168 6.10336 57.5171 4.81958 56.9158C2.06942 55.8367 1.06969 53.4191 0.604874 51.2885C0.453624 50.8972 0.512648 50.4813 0.35402 50.0928C-0.0554613 46.846 -0.118174 43.5718 0.210149 40.3181C0.352176 39.7374 0.232282 39.1348 0.442556 38.5637C0.497892 38.1944 0.451779 37.8113 0.614096 37.4558C0.650986 37.1318 0.667587 36.8051 0.780102 36.4893C1.0826 34.592 1.70051 32.7305 2.26125 30.8689C3.45096 27.3627 5.07782 23.9361 7.17134 20.6728C9.74812 16.7795 12.9244 12.9753 17.4674 10.1857C18.4247 9.6421 19.4152 9.12042 20.4961 8.71818Z" fill="var(--fill-0, #2A9D53)"/>
<path id="Vector_3" d="M46.1608 9.11496C48.5587 7.60484 52.1297 7.63779 54.8448 8.64545C57.3072 9.53231 59.3436 10.945 61.1567 12.4468C64.0452 14.907 66.3029 17.7391 68.2157 20.6701C68.7137 21.557 69.3298 22.4068 69.7743 23.3115C69.8647 23.4803 69.9532 23.6519 70.0473 23.8222C70.5527 24.8243 71.1079 25.8142 71.5247 26.841C71.5801 26.977 71.6409 27.1142 71.7036 27.2515C72.1906 28.4967 72.7606 29.724 73.1258 30.9939C73.2014 31.2149 73.2659 31.44 73.3453 31.6624C73.9171 33.6242 74.5165 35.5901 74.7692 37.5931C74.9242 37.9514 74.8817 38.3331 74.9389 38.7051C75.531 42.5655 75.5033 46.4863 75.0164 50.3577C74.8412 50.701 74.95 51.0826 74.784 51.4286C74.5221 52.811 73.9687 54.1756 73.0243 55.3878C72.1334 56.4243 70.7316 57.27 69.0734 57.491C67.6808 57.7216 66.29 57.3414 65.0062 56.9721C64.2444 56.7167 63.4993 56.4367 62.7707 56.1346C61.26 55.6034 59.9301 54.7975 58.3106 54.4392C57.2187 54.1193 56.0271 54.2745 54.8891 54.1674C52.9892 54.1276 51.1004 53.864 49.3076 53.3972C46.6386 52.6902 44.4952 51.1156 43.3111 49.2183C42.4755 47.8798 41.9129 46.4561 41.5643 45.0064C41.52 44.7305 41.4832 44.4545 41.3799 44.1882C40.9722 41.8613 40.8394 39.511 40.856 37.1634C40.8818 35.4144 40.7472 33.6558 41.0866 31.9178C41.1456 31.0968 41.319 30.2855 41.3743 29.4659C43.8884 31.046 46.4486 32.5864 48.9663 34.1638C49.5916 34.6003 50.3128 34.9614 51.1115 35.2016C55.0643 36.4344 60.2787 34.8666 61.6732 31.7956C62.8113 29.5936 61.7433 26.9797 59.3823 25.46C56.4385 23.5778 53.478 21.7121 50.536 19.83C48.9959 18.8594 47.2528 17.9258 46.5205 16.4624C46.3434 16.0094 46.1627 15.5453 46.1664 15.069C46.1627 13.0852 46.1756 11.1001 46.1608 9.11496Z" fill="var(--fill-0, #2A9D53)"/>
</g>
</svg>
