<svg preserveAspectRatio="none" width="100%" height="100%" overflow="visible" style="display: block;" viewBox="0 0 63.7159 65.0104" fill="none" xmlns="http://www.w3.org/2000/svg">
<g id="#000000ff">
<path id="Vector" d="M20.9856 0.0975376C25.5027 -0.312385 30.1535 0.573895 34.1363 2.67863C37.7741 4.56427 40.8599 7.41959 42.9827 10.8304C44.6019 13.3946 45.6222 16.288 46.0656 19.255C46.4678 22.2517 46.2696 25.3162 45.5694 28.2592C44.3612 33.6829 41.3752 38.7108 37.1971 42.5231C35.1242 44.4511 32.6682 45.9183 30.2797 47.445C29.3739 48.081 28.3243 48.5489 27.5829 49.3801C26.8372 50.1674 26.4452 51.2346 26.4379 52.2933C26.479 55.6858 24.9566 59.0344 22.4536 61.4035C20.6758 63.0361 18.4473 64.2461 16.028 64.7112C13.5103 65.2709 10.8429 65.0221 8.43086 64.1585C6.07466 63.2524 3.96802 61.7173 2.49264 59.7214C0.908625 57.6195 0.00871697 55.0356 0.00137677 52.4361C-9.12719e-05 42.4467 0.00137677 32.4574 0.00137677 22.468C-0.0221119 20.3124 0.253879 18.1468 0.911562 16.0831C2.37667 11.0693 5.79133 6.63085 10.2894 3.74867C13.4633 1.69341 17.176 0.432543 20.9856 0.0975376ZM15.4848 12.7104C13.0464 14.5056 11.3728 17.2083 10.8238 20.1116C10.6549 20.8848 10.7078 21.6821 10.6094 22.4652C10.5874 25.0576 10.5698 27.65 10.5581 30.2424C10.5199 31.8114 11.1688 33.3422 12.1656 34.5635C12.6089 35.1204 13.2358 35.5501 13.5294 36.2103C13.9301 37.0146 13.9243 37.9899 13.5103 38.7885C13.18 39.4741 12.5047 39.908 12.0613 40.5159C11.2612 41.6 10.6843 42.8878 10.677 44.2348C10.5419 45.2766 10.6168 46.3269 10.7313 47.3672C11.1864 49.9356 13.6512 52.0036 16.3627 52.0587C17.4652 52.1803 18.6264 51.2798 18.5383 50.1745C18.6308 49.1751 17.6839 48.2591 16.6622 48.2563C15.9663 48.2634 15.2749 47.927 14.9049 47.3545C14.419 46.5417 14.72 45.5522 14.6377 44.6617C14.5291 43.6383 15.1662 42.7577 15.9032 42.0933C18.1801 39.8487 18.4047 36.0406 16.4787 33.5274C15.9061 32.7316 14.9857 32.1577 14.6818 31.1979C14.4704 30.6678 14.5247 30.0925 14.5218 29.537C14.5423 28.0797 14.532 26.6223 14.5629 25.165C14.6421 24.5812 14.6172 23.9621 14.9035 23.4249C15.3395 22.557 16.1777 21.8587 17.1745 21.6736C18.5104 21.3513 20.0034 21.9506 20.7169 23.0843C21.1881 23.7317 21.1955 24.5416 21.2997 25.2936C21.5302 26.1036 22.389 26.7156 23.2654 26.6633C24.2329 26.652 25.1636 25.8251 25.1416 24.8738C25.284 22.427 23.8189 20.0268 21.6594 18.7843C19.9565 17.7426 17.8087 17.5772 15.8768 18.0224C16.5256 16.705 17.7515 15.7241 19.0331 14.9933C21.2043 13.813 23.9172 13.6702 26.2455 14.4929C28.3434 15.2746 30.0463 16.927 30.9301 18.9101C32.0942 21.2976 31.9298 24.1048 31.0666 26.5573C30.0977 29.5087 28.0365 32.0955 25.3794 33.8285C24.5661 34.3119 24.1345 35.3678 24.5588 36.2244C24.9816 37.2789 26.4628 37.7058 27.4347 37.0838C31.093 34.7826 33.8573 31.1809 35.0303 27.1227C35.6748 25.1339 35.8421 23.0235 35.6278 20.9555C35.2446 18.3772 34.1098 15.8711 32.2498 13.9628C30.3693 11.9655 27.7517 10.617 24.9683 10.2806C21.6403 9.83248 18.1229 10.6891 15.4848 12.7104Z" fill="var(--fill-0, #2A9D53)"/>
<path id="Vector_2" d="M57.5311 12.3585C58.1653 12.1012 58.9345 12.2171 59.463 12.637C63.3695 16.1171 64.7568 21.904 62.9026 26.6959C62.2288 28.5561 61.0955 30.2495 59.6568 31.6446C59.0241 32.2524 57.9627 32.3542 57.2037 31.9118C56.3258 31.4057 55.9749 30.1845 56.5475 29.3448C56.9849 28.7427 57.5692 28.2507 57.9979 27.6387C59.0887 26.0767 59.7581 24.2194 59.7463 22.3267C59.7977 19.8502 58.7671 17.3751 56.9673 15.6068C56.6356 15.2803 56.361 14.8774 56.2891 14.418C56.1394 13.5656 56.6987 12.6666 57.5311 12.3585Z" fill="var(--fill-0, #2A9D53)"/>
<path id="Vector_3" d="M51.9583 17.7483C52.5881 17.5221 53.3295 17.6309 53.8624 18.0239C55.9441 19.7668 56.4138 22.9938 54.8959 25.2159C54.4012 25.9326 53.767 26.7976 52.7746 26.8005C51.6559 26.9291 50.6063 25.9368 50.6518 24.8696C50.64 24.2886 51.007 23.8024 51.3873 23.3868C51.9319 22.7776 51.9671 21.8178 51.4842 21.1647C51.217 20.8071 50.8558 20.4962 50.7325 20.0565C50.4198 19.1335 50.9997 18.0479 51.9583 17.7483Z" fill="var(--fill-0, #2A9D53)"/>
</g>
</svg>
