<svg preserveAspectRatio="none" width="100%" height="100%" overflow="visible" style="display: block;" viewBox="0 0 48.1808 59.9891" fill="none" xmlns="http://www.w3.org/2000/svg">
<g id="#000000ff">
<path id="Vector" d="M25.8801 2.38083C27.9134 0.847146 30.577 0.0216177 33.2451 0.000751299C35.9118 0.00205545 38.5799 -0.0031606 41.248 0.00336016C42.2943 0.00857677 43.342 0.54719 43.777 1.40011C44.218 2.13434 44.0464 2.98726 44.0789 3.78279C44.0449 4.6031 44.2239 5.48601 43.7578 6.23981C43.3153 7.02752 42.3845 7.5557 41.3901 7.60135C39.524 7.62352 37.658 7.59222 35.7919 7.61569C33.7542 7.72263 32.0021 9.29674 31.863 11.0847C31.8156 12.0837 31.8556 13.0853 31.8423 14.0856C31.8556 14.8381 31.7372 15.6467 32.1797 16.3313C32.6651 17.2077 33.7483 17.582 34.6199 18.0906C36.9003 19.4078 39.3583 20.5307 41.3294 22.2183C45.757 25.8047 48.2772 31.0956 48.178 36.3866C48.178 41.8666 48.1795 47.3467 48.1765 52.8254C48.181 54.9773 47.0282 57.1148 45.0837 58.4254C43.6749 59.4349 41.8577 59.9539 40.0538 59.9891C38.4497 59.9865 36.8515 59.5535 35.5093 58.7802C27.866 54.7777 20.2227 50.774 12.5795 46.7715C10.2428 45.6174 8.09559 44.1424 6.36124 42.3374C3.4386 39.3574 1.60214 35.5689 1.18335 31.646C2.20147 31.6225 3.22402 31.6329 4.2377 31.5351C5.81519 31.5143 7.38824 31.4321 8.96129 31.3617C11.6842 31.153 14.3138 30.021 16.1088 28.1939C17.1491 27.1088 18.1673 26.0068 19.1942 24.9127C20.7037 23.3555 21.6655 21.3601 21.7884 19.31C21.8165 16.047 21.7899 12.7827 21.8002 9.51975C21.9674 6.78104 23.4917 4.13491 25.8801 2.38083Z" fill="var(--fill-0, #2A9D53)"/>
<path id="Vector_2" d="M4.12564 1.17691C4.82855 1.00215 5.62322 1.0478 6.2625 1.37514C6.90918 1.69987 7.37385 2.22805 7.9051 2.67538C10.8781 5.27064 13.8096 7.90502 16.8018 10.4833C16.8092 12.8152 16.8018 15.147 16.8062 17.4788C16.935 19.0203 16.2912 20.554 15.1607 21.7212C14.437 22.475 13.74 23.2484 13.0149 24.0022C12.386 24.7012 11.7275 25.4002 10.8958 25.9193C9.77707 26.5779 8.44376 26.9548 7.09564 26.9717C4.7738 27.0578 2.45344 27.1882 0.130124 27.2156C0.432007 24.5408 1.2903 21.9103 2.77456 19.555C3.24811 18.8312 3.68317 18.0878 4.14932 17.3614C5.2947 15.7025 5.52999 13.6029 4.85519 11.7627C4.19519 9.73866 2.17968 8.47233 0.645103 6.9856C-0.0311749 6.28918 -0.198395 5.24325 0.25147 4.41511C0.625865 3.69914 1.38353 3.23616 1.97546 2.67146C2.63102 2.1159 3.21555 1.41687 4.12564 1.17691Z" fill="var(--fill-0, #2A9D53)"/>
</g>
</svg>
