<svg preserveAspectRatio="none" width="100%" height="100%" overflow="visible" style="display: block;" viewBox="0 0 28.751 35.0784" fill="none" xmlns="http://www.w3.org/2000/svg">
<g id="Group">
<path id="Vector" d="M24.0137 18.6546C23.9735 14.223 27.6692 12.067 27.8382 11.9666C25.7452 8.9375 22.5011 8.52363 21.3611 8.49063C18.6364 8.206 15.9935 10.109 14.6055 10.109C13.1899 10.109 11.0525 8.51813 8.74896 8.56488C5.78467 8.61025 3.01152 10.3139 1.49059 12.9594C-1.64824 18.3535 0.692725 26.2804 3.69996 30.6405C5.20427 32.7759 6.96207 35.1601 9.26287 35.0763C11.5138 34.9841 12.3546 33.6518 15.0709 33.6518C17.7624 33.6518 18.5519 35.0763 20.8984 35.0226C23.3142 34.9841 24.8351 32.8776 26.2868 30.723C28.0252 28.2755 28.7233 25.8651 28.751 25.7414C28.6942 25.7221 24.0594 23.9663 24.0137 18.6546Z" fill="var(--fill-0, white)"/>
<path id="Vector_2" d="M19.5811 5.62237C20.7918 4.1195 21.6201 2.07487 21.3902 0C19.6379 0.077 17.4465 1.20313 16.1846 2.673C15.0682 3.96825 14.0708 6.09125 14.3285 8.08775C16.2968 8.2335 18.3178 7.10187 19.5811 5.62237Z" fill="var(--fill-0, white)"/>
</g>
</svg>
