<svg preserveAspectRatio="none" width="100%" height="100%" overflow="visible" style="display: block;" viewBox="0 0 107.395 9.603" fill="none" xmlns="http://www.w3.org/2000/svg">
<g id="Group">
<path id="Vector" d="M7.44399 4.74787C7.44399 6.36625 6.95502 7.5845 5.97846 8.40262C5.07394 9.1575 3.78848 9.53562 2.12349 9.53562C1.29792 9.53562 0.591474 9.49987 0 9.42837V0.585749C0.771548 0.461999 1.60266 0.39875 2.50026 0.39875C4.0863 0.39875 5.28171 0.741124 6.08789 1.42587C6.99103 2.2 7.44399 3.30687 7.44399 4.74787ZM5.91336 4.78775C5.91336 3.73862 5.63355 2.93425 5.07394 2.37325C4.51432 1.81362 3.69706 1.53312 2.62077 1.53312C2.16366 1.53312 1.77442 1.56337 1.45167 1.62662V8.349C1.63036 8.3765 1.95727 8.38887 2.43239 8.38887C3.5433 8.38887 4.40074 8.08225 5.00468 7.469C5.60862 6.85575 5.91336 5.962 5.91336 4.78775Z" fill="var(--fill-0, white)"/>
<path id="Vector_2" d="M15.5598 6.16137C15.5598 7.15825 15.2731 7.975 14.6996 8.61575C14.0984 9.27437 13.3019 9.603 12.3074 9.603C11.3488 9.603 10.5856 9.28812 10.0163 8.65562C9.44835 8.0245 9.16439 7.22837 9.16439 6.26862C9.16439 5.26487 9.45666 4.44125 10.044 3.80187C10.6313 3.1625 11.4209 2.84212 12.4154 2.84212C13.374 2.84212 14.1441 3.157 14.7273 3.78812C15.2814 4.40137 15.5598 5.19337 15.5598 6.16137ZM14.0541 6.20812C14.0541 5.61 13.9239 5.09712 13.6649 4.6695C13.3601 4.1525 12.9266 3.894 12.3628 3.894C11.7796 3.894 11.3364 4.1525 11.0316 4.6695C10.7712 5.09712 10.6424 5.61825 10.6424 6.23425C10.6424 6.83237 10.7726 7.34525 11.0316 7.77287C11.3461 8.28987 11.7838 8.54837 12.3489 8.54837C12.903 8.54837 13.3379 8.28575 13.651 7.75912C13.9197 7.32325 14.0541 6.80625 14.0541 6.20812Z" fill="var(--fill-0, white)"/>
<path id="Vector_3" d="M26.4418 2.97412L24.3987 9.45587H23.0689L22.2225 6.64125C22.0078 5.93862 21.8333 5.24012 21.6975 4.54712H21.6712C21.5452 5.25937 21.3706 5.9565 21.1462 6.64125L20.2473 9.45587H18.9022L16.981 2.97412H18.4728L19.2111 6.0555C19.3898 6.78425 19.5367 7.47862 19.6544 8.13587H19.6807C19.7888 7.59412 19.9674 6.90387 20.2195 6.06925L21.1462 2.9755H22.3292L23.2171 6.00325C23.4318 6.74162 23.6063 7.4525 23.7407 8.13725H23.7809C23.8792 7.47037 24.0274 6.7595 24.2241 6.00325L25.0164 2.9755H26.4418V2.97412Z" fill="var(--fill-0, white)"/>
<path id="Vector_4" d="M33.9675 9.45587H32.5158V5.74337C32.5158 4.59937 32.0781 4.02737 31.1999 4.02737C30.7691 4.02737 30.4214 4.18412 30.1513 4.499C29.884 4.81387 29.7482 5.18512 29.7482 5.61V9.4545H28.2966V4.82625C28.2966 4.257 28.2786 3.63962 28.2439 2.97137H29.5197L29.5876 3.98475H29.6277C29.7967 3.66987 30.0488 3.41 30.3799 3.20237C30.7733 2.96037 31.2138 2.838 31.6958 2.838C32.3053 2.838 32.8123 3.03325 33.2154 3.42512C33.7168 3.905 33.9675 4.62137 33.9675 5.57287V9.45587Z" fill="var(--fill-0, white)"/>
<path id="Vector_5" d="M37.9707 9.45587H36.5204V8.54708e-08H37.9707V9.45587Z" fill="var(--fill-0, white)"/>
<path id="Vector_6" d="M46.5173 6.16137C46.5173 7.15825 46.2306 7.975 45.6571 8.61575C45.0559 9.27437 44.2581 9.603 43.2649 9.603C42.3049 9.603 41.5417 9.28812 40.9738 8.65562C40.4058 8.0245 40.1219 7.22837 40.1219 6.26862C40.1219 5.26487 40.4142 4.44125 41.0015 3.80187C41.5888 3.1625 42.3784 2.84212 43.3715 2.84212C44.3315 2.84212 45.1002 3.157 45.6848 3.78812C46.2389 4.40137 46.5173 5.19337 46.5173 6.16137ZM45.0102 6.20812C45.0102 5.61 44.88 5.09712 44.621 4.6695C44.3176 4.1525 43.8827 3.894 43.3203 3.894C42.7357 3.894 42.2925 4.1525 41.9891 4.6695C41.7287 5.09712 41.5999 5.61825 41.5999 6.23425C41.5999 6.83237 41.7301 7.34525 41.9891 7.77287C42.3036 8.28987 42.7413 8.54837 43.3064 8.54837C43.8605 8.54837 44.2941 8.28575 44.6071 7.75912C44.8772 7.32325 45.0102 6.80625 45.0102 6.20812Z" fill="var(--fill-0, white)"/>
<path id="Vector_7" d="M53.543 9.45587H52.2395L52.1314 8.70925H52.0913C51.6452 9.30462 51.0094 9.603 50.1839 9.603C49.5675 9.603 49.0688 9.40637 48.6934 9.01587C48.3527 8.66112 48.1823 8.21975 48.1823 7.69587C48.1823 6.90387 48.5147 6.30025 49.1838 5.88225C49.8514 5.46425 50.7906 5.25937 51.9999 5.269V5.148C51.9999 4.29412 51.5483 3.86787 50.6438 3.86787C49.9996 3.86787 49.4317 4.02875 48.9414 4.34775L48.6463 3.40175C49.253 3.02912 50.0024 2.84212 50.8862 2.84212C52.5927 2.84212 53.4488 3.73587 53.4488 5.52337V7.91037C53.4488 8.558 53.4806 9.07362 53.543 9.45587ZM52.0359 7.22837V6.22875C50.4346 6.20125 49.634 6.63712 49.634 7.535C49.634 7.87325 49.7254 8.12625 49.9124 8.29537C50.0994 8.4645 50.3376 8.54837 50.6216 8.54837C50.9402 8.54837 51.238 8.448 51.5095 8.24862C51.7824 8.04787 51.95 7.7935 52.0123 7.48137C52.0276 7.41125 52.0359 7.326 52.0359 7.22837Z" fill="var(--fill-0, white)"/>
<path id="Vector_8" d="M61.7917 9.45587H60.5035L60.4356 8.415H60.3955C59.9841 9.207 59.2832 9.603 58.2983 9.603C57.5115 9.603 56.8563 9.29637 56.3369 8.68312C55.8174 8.06987 55.5584 7.27375 55.5584 6.29612C55.5584 5.247 55.8396 4.39725 56.4047 3.74825C56.9519 3.14325 57.6223 2.84075 58.4202 2.84075C59.297 2.84075 59.9106 3.13362 60.2597 3.72075H60.2874V8.54708e-08H61.7405V7.70962C61.7405 8.34075 61.7571 8.92237 61.7917 9.45587ZM60.2874 6.72237V5.64162C60.2874 5.45462 60.2736 5.30337 60.2472 5.18787C60.1655 4.84137 59.9896 4.54987 59.7223 4.31475C59.4522 4.07962 59.1266 3.96137 58.7512 3.96137C58.2096 3.96137 57.7858 4.1745 57.4741 4.60212C57.1652 5.02975 57.0087 5.57562 57.0087 6.2425C57.0087 6.88325 57.1569 7.403 57.4547 7.80312C57.7692 8.22937 58.193 8.4425 58.7235 8.4425C59.2 8.4425 59.581 8.26512 59.8705 7.909C60.1503 7.58037 60.2874 7.18437 60.2874 6.72237Z" fill="var(--fill-0, white)"/>
<path id="Vector_9" d="M74.2071 6.16137C74.2071 7.15825 73.9204 7.975 73.3469 8.61575C72.7458 9.27437 71.9507 9.603 70.9547 9.603C69.9976 9.603 69.2343 9.28812 68.6636 8.65562C68.0957 8.0245 67.8117 7.22837 67.8117 6.26862C67.8117 5.26487 68.104 4.44125 68.6913 3.80187C69.2787 3.1625 70.0682 2.84212 71.0642 2.84212C72.0213 2.84212 72.7929 3.157 73.3747 3.78812C73.9287 4.40137 74.2071 5.19337 74.2071 6.16137ZM72.7028 6.20812C72.7028 5.61 72.5726 5.09712 72.3136 4.6695C72.0075 4.1525 71.5753 3.894 71.0101 3.894C70.4284 3.894 69.9851 4.1525 69.679 4.6695C69.4186 5.09712 69.2897 5.61825 69.2897 6.23425C69.2897 6.83237 69.4199 7.34525 69.679 7.77287C69.9934 8.28987 70.4311 8.54837 70.9963 8.54837C71.5504 8.54837 71.9867 8.28575 72.2997 7.75912C72.5671 7.32325 72.7028 6.80625 72.7028 6.20812Z" fill="var(--fill-0, white)"/>
<path id="Vector_10" d="M82.0127 9.45587H80.5624V5.74337C80.5624 4.59937 80.1247 4.02737 79.2451 4.02737C78.8143 4.02737 78.4666 4.18412 78.1979 4.499C77.9291 4.81387 77.7948 5.18512 77.7948 5.61V9.4545H76.3417V4.82625C76.3417 4.257 76.3251 3.63962 76.2905 2.97137H77.5648L77.6327 3.98475H77.6729C77.8433 3.66987 78.0954 3.41 78.425 3.20237C78.8198 2.96037 79.2589 2.838 79.7423 2.838C80.3504 2.838 80.8574 3.03325 81.2605 3.42512C81.7633 3.905 82.0127 4.62137 82.0127 5.57287V9.45587Z" fill="var(--fill-0, white)"/>
<path id="Vector_11" d="M91.7824 4.0535H90.1839V7.20225C90.1839 8.0025 90.4678 8.40262 91.0302 8.40262C91.2906 8.40262 91.5067 8.38062 91.6771 8.33525L91.7145 9.42837C91.4278 9.53562 91.051 9.58925 90.587 9.58925C90.0135 9.58925 89.5675 9.416 89.2447 9.0695C88.9206 8.723 88.7599 8.14 88.7599 7.32187V4.0535H87.8055V2.97412H88.7599V1.78612L90.1825 1.35987V2.97275H91.781L91.7824 4.0535Z" fill="var(--fill-0, white)"/>
<path id="Vector_12" d="M99.4674 9.45587H98.0143V5.77087C98.0143 4.609 97.5766 4.02737 96.6998 4.02737C96.0266 4.02737 95.5667 4.36425 95.3146 5.038C95.2717 5.17962 95.2467 5.35287 95.2467 5.55637V9.4545H93.7964V8.54708e-08H95.2467V3.90637H95.2744C95.7315 3.1955 96.3867 2.84075 97.2359 2.84075C97.837 2.84075 98.3343 3.036 98.7291 3.42787C99.2208 3.916 99.4674 4.642 99.4674 5.60175V9.45587Z" fill="var(--fill-0, white)"/>
<path id="Vector_13" d="M107.395 5.90837C107.395 6.16687 107.375 6.38412 107.341 6.5615H102.987C103.007 7.20225 103.214 7.69037 103.617 8.02862C103.986 8.33112 104.461 8.48237 105.043 8.48237C105.687 8.48237 106.274 8.38062 106.803 8.17575L107.03 9.17675C106.411 9.4435 105.683 9.57687 104.839 9.57687C103.828 9.57687 103.031 9.28125 102.455 8.69C101.876 8.09875 101.589 7.30537 101.589 6.30987C101.589 5.33225 101.857 4.51825 102.396 3.86925C102.958 3.17625 103.719 2.82975 104.678 2.82975C105.618 2.82975 106.331 3.17625 106.813 3.86925C107.202 4.41925 107.395 5.09987 107.395 5.90837ZM106.01 5.53575C106.021 5.10812 105.925 4.73962 105.728 4.42887C105.476 4.02875 105.093 3.828 104.573 3.828C104.099 3.828 103.713 4.02325 103.418 4.41512C103.177 4.72725 103.034 5.09987 102.987 5.53575H106.01Z" fill="var(--fill-0, white)"/>
</g>
</svg>
