<svg preserveAspectRatio="none" width="100%" height="100%" overflow="visible" style="display: block;" viewBox="0 0 110.463 23.9429" fill="none" xmlns="http://www.w3.org/2000/svg">
<g id="Group">
<path id="Vector" d="M15.5626 18.5666H12.4168L10.6936 13.1918H4.70409L3.06264 18.5666H2.03969e-06L5.93414 0.268124H9.59934L15.5626 18.5666ZM10.1742 10.9368L8.61586 6.15863C8.45102 5.6705 8.14212 4.521 7.68639 2.7115H7.63099C7.44953 3.48975 7.15725 4.63925 6.75555 6.15863L5.22492 10.9368H10.1742Z" fill="var(--fill-0, white)"/>
<path id="Vector_2" d="M30.8231 11.8071C30.8231 14.0511 30.2123 15.8249 28.9905 17.127C27.8962 18.2861 26.5374 18.865 24.9153 18.865C23.1645 18.865 21.9067 18.2407 21.1407 16.9922H21.0853V23.9429H18.1321V9.71575C18.1321 8.305 18.0947 6.85713 18.0226 5.37213H20.6199L20.7847 7.4635H20.8401C21.825 5.88775 23.3196 5.10125 25.3253 5.10125C26.8934 5.10125 28.2024 5.71587 29.2496 6.9465C30.2995 8.1785 30.8231 9.79825 30.8231 11.8071ZM27.8145 11.9144C27.8145 10.6301 27.5236 9.57138 26.9391 8.73813C26.3005 7.86913 25.4431 7.43463 24.3682 7.43463C23.6396 7.43463 22.9775 7.67663 22.386 8.15375C21.7931 8.635 21.4053 9.26338 21.2238 10.0416C21.1324 10.4046 21.0867 10.7016 21.0867 10.9354V13.1354C21.0867 14.0951 21.3831 14.905 21.976 15.5664C22.5688 16.2278 23.339 16.5577 24.2865 16.5577C25.3988 16.5577 26.2645 16.1315 26.8837 15.2818C27.5042 14.4306 27.8145 13.3086 27.8145 11.9144Z" fill="var(--fill-0, white)"/>
<path id="Vector_3" d="M46.1114 11.8071C46.1114 14.0511 45.5006 15.8249 44.2774 17.127C43.1845 18.2861 41.8257 18.865 40.2036 18.865C38.4527 18.865 37.195 18.2407 36.4304 16.9922H36.375V23.9429H33.4218V9.71575C33.4218 8.305 33.3844 6.85713 33.3123 5.37213H35.9095L36.0744 7.4635H36.1298C37.1133 5.88775 38.6079 5.10125 40.615 5.10125C42.1817 5.10125 43.4907 5.71587 44.5406 6.9465C45.5865 8.1785 46.1114 9.79825 46.1114 11.8071ZM43.1028 11.9144C43.1028 10.6301 42.8105 9.57138 42.226 8.73813C41.5874 7.86913 40.7328 7.43463 39.6565 7.43463C38.9265 7.43463 38.2657 7.67663 37.6729 8.15375C37.08 8.635 36.6936 9.26338 36.5121 10.0416C36.4221 10.4046 36.375 10.7016 36.375 10.9354V13.1354C36.375 14.0951 36.6714 14.905 37.2615 15.5664C37.8543 16.2264 38.6245 16.5577 39.5747 16.5577C40.6871 16.5577 41.5528 16.1315 42.172 15.2818C42.7925 14.4306 43.1028 13.3086 43.1028 11.9144Z" fill="var(--fill-0, white)"/>
<path id="Vector_4" d="M63.2046 13.4351C63.2046 14.9916 62.6602 16.258 61.5673 17.2356C60.3664 18.304 58.6945 18.8375 56.546 18.8375C54.5625 18.8375 52.9723 18.458 51.7685 17.6976L52.4528 15.2542C53.7493 16.0325 55.1719 16.423 56.722 16.423C57.8343 16.423 58.7 16.1727 59.3219 15.675C59.9411 15.1772 60.25 14.509 60.25 13.6758C60.25 12.9333 59.9951 12.3076 59.484 11.8003C58.9756 11.2929 58.1265 10.8213 56.9408 10.3854C53.7133 9.1905 52.101 7.44013 52.101 5.13838C52.101 3.63413 52.6661 2.40075 53.7978 1.441C54.9254 0.479875 56.4297 0 58.3108 0C59.9882 0 61.3817 0.290125 62.494 0.869L61.7557 3.25875C60.7168 2.69775 59.5422 2.41725 58.2276 2.41725C57.1888 2.41725 56.377 2.67163 55.7953 3.17763C55.3035 3.63 55.057 4.18138 55.057 4.8345C55.057 5.55775 55.3382 6.15588 55.9033 6.62613C56.395 7.06063 57.2885 7.53088 58.585 8.03825C60.1711 8.67213 61.336 9.41325 62.0854 10.263C62.832 11.11 63.2046 12.1701 63.2046 13.4351Z" fill="var(--fill-0, white)"/>
<path id="Vector_5" d="M72.9688 7.57213H69.7136V13.9783C69.7136 15.6076 70.2871 16.4216 71.4368 16.4216C71.9645 16.4216 72.4023 16.3763 72.7485 16.2855L72.8303 18.5116C72.2485 18.7275 71.4825 18.8361 70.5336 18.8361C69.3673 18.8361 68.4559 18.4828 67.7979 17.7774C67.1427 17.0706 66.813 15.8854 66.813 14.2203V7.56938H64.8738V5.36938H66.813V2.9535L69.7136 2.0845V5.36938H72.9688V7.57213Z" fill="var(--fill-0, white)"/>
<path id="Vector_6" d="M87.6559 11.8608C87.6559 13.8889 87.0714 15.554 85.905 16.8561C84.6819 18.1968 83.0585 18.865 81.0347 18.865C79.0844 18.865 77.5316 18.2229 76.3736 16.9386C75.2156 15.6544 74.6366 14.0332 74.6366 12.0794C74.6366 10.0347 75.2322 8.36 76.4276 7.05788C77.6202 5.75438 79.2298 5.10262 81.2536 5.10262C83.2039 5.10262 84.7733 5.74475 85.9577 7.03038C87.0907 8.2775 87.6559 9.88763 87.6559 11.8608ZM84.5919 11.9556C84.5919 10.7387 84.3301 9.69513 83.7995 8.82475C83.1804 7.7715 82.2952 7.24625 81.1483 7.24625C79.9612 7.24625 79.0595 7.77288 78.4403 8.82475C77.9097 9.6965 77.6479 10.7566 77.6479 12.0106C77.6479 13.2275 77.9097 14.2711 78.4403 15.1401C79.0788 16.1934 79.9709 16.7186 81.122 16.7186C82.2495 16.7186 83.1347 16.1824 83.7732 15.1126C84.3176 14.2258 84.5919 13.1711 84.5919 11.9556Z" fill="var(--fill-0, white)"/>
<path id="Vector_7" d="M97.2552 7.95025C96.963 7.89663 96.6513 7.86913 96.3244 7.86913C95.2855 7.86913 94.4821 8.25825 93.9169 9.03787C93.4252 9.72537 93.1786 10.5944 93.1786 11.6435V18.5666H90.2268L90.2545 9.52738C90.2545 8.00663 90.2171 6.622 90.1437 5.3735H92.716L92.824 7.898H92.9058C93.2174 7.03038 93.7092 6.33188 94.3824 5.808C95.0403 5.33638 95.7509 5.10125 96.5169 5.10125C96.7898 5.10125 97.0364 5.1205 97.2552 5.15488V7.95025Z" fill="var(--fill-0, white)"/>
<path id="Vector_8" d="M110.463 11.3451C110.463 11.8704 110.428 12.3131 110.355 12.6748H101.495C101.53 13.9783 101.958 14.9751 102.781 15.6626C103.527 16.2773 104.493 16.5853 105.679 16.5853C106.99 16.5853 108.187 16.3776 109.263 15.961L109.726 17.996C108.468 18.5405 106.983 18.8114 105.27 18.8114C103.209 18.8114 101.591 18.2091 100.413 17.006C99.2388 15.8029 98.6501 14.1872 98.6501 12.1605C98.6501 10.1709 99.1973 8.514 100.293 7.19263C101.44 5.78188 102.99 5.0765 104.94 5.0765C106.856 5.0765 108.306 5.78188 109.291 7.19263C110.071 8.31325 110.463 9.69925 110.463 11.3451ZM107.647 10.5847C107.666 9.71575 107.474 8.965 107.073 8.33112C106.562 7.51575 105.777 7.10875 104.72 7.10875C103.755 7.10875 102.969 7.50613 102.369 8.30363C101.878 8.9375 101.585 9.69788 101.495 10.5834L107.647 10.5847Z" fill="var(--fill-0, white)"/>
</g>
</svg>
