<svg preserveAspectRatio="none" width="100%" height="100%" overflow="visible" style="display: block;" viewBox="0 0 190 54" fill="none" xmlns="http://www.w3.org/2000/svg">
<g id="Google Play Icon" clip-path="url(#clip0_6790_1711)">
<path id="path11" d="M182.96 54H7.04061C3.17031 54 0.00375278 50.9626 0.00375278 47.2501V6.75088C0.00375278 3.03842 3.17031 0.00100178 7.04061 0.00100178H182.96C186.83 0.00100178 189.996 3.03842 189.996 6.75088V47.2501C189.996 50.9626 186.83 54 182.96 54Z" fill="var(--fill-0, #100F0D)"/>
<path id="path13" d="M182.96 0.00100178H7.04061C3.17031 0.00100178 0.00375278 3.03842 0.00375278 6.75088V47.2501C0.00375278 50.9626 3.17031 54 7.04061 54H182.96C186.83 54 189.996 50.9626 189.996 47.2501V6.75088C189.996 3.03842 186.83 0.00100178 182.96 0.00100178ZM182.96 1.08043C186.219 1.08043 188.871 3.62436 188.871 6.75088V47.2501C188.871 50.3766 186.219 52.9206 182.96 52.9206H7.04061C3.78116 52.9206 1.13024 50.3766 1.13024 47.2501V6.75088C1.13024 3.62436 3.78116 1.08043 7.04061 1.08043H182.96Z" fill="var(--fill-0, #A2A2A1)"/>
<path id="path35" d="M150.501 40.5003H153.127V23.6228H150.501V40.5003ZM174.155 29.7029L171.145 37.0197H171.055L167.93 29.7029H165.102L169.788 39.9292L167.116 45.618H169.854L177.076 29.7034L174.155 29.7029ZM159.261 38.5832C158.403 38.5832 157.202 38.1702 157.202 37.1499C157.202 35.8473 158.697 35.3479 159.986 35.3479C161.14 35.3479 161.685 35.5863 162.386 35.9122C162.182 37.4757 160.778 38.5832 159.261 38.5832ZM159.579 29.3337C157.678 29.3337 155.709 30.1374 154.894 31.9177L157.225 32.8511C157.723 31.9177 158.65 31.614 159.624 31.614C160.982 31.614 162.363 32.395 162.386 33.785V33.9585C161.91 33.698 160.891 33.3073 159.647 33.3073C157.133 33.3073 154.576 34.6313 154.576 37.1066C154.576 39.3647 156.636 40.8196 158.945 40.8196C160.709 40.8196 161.685 40.0597 162.294 39.1691H162.386V40.4726H164.922V34.0017C164.922 31.0054 162.588 29.3337 159.579 29.3337ZM143.349 31.7574H139.614V25.9726H143.349C145.312 25.9726 146.427 27.5315 146.427 28.8649C146.427 30.1728 145.312 31.7574 143.349 31.7574ZM143.281 23.6232H136.989V40.5007H139.614V34.1068H143.282C146.192 34.1068 149.053 32.086 149.053 28.8655C149.053 25.6457 146.192 23.6232 143.281 23.6232ZM108.969 38.586C107.154 38.586 105.636 37.1284 105.636 35.1283C105.636 33.1049 107.154 31.6267 108.969 31.6267C110.76 31.6267 112.165 33.105 112.165 35.1283C112.165 37.1284 110.76 38.586 108.969 38.586ZM111.984 30.6477H111.893C111.304 29.9736 110.17 29.3646 108.742 29.3646C105.749 29.3646 103.005 31.8879 103.005 35.1283C103.005 38.3467 105.749 40.8477 108.742 40.8477C110.17 40.8477 111.304 40.2386 111.893 39.5431H111.984V40.3689C111.984 42.5664 110.76 43.7401 108.787 43.7401C107.178 43.7401 106.18 42.6312 105.772 41.6961L103.482 42.6094C104.139 44.1312 105.884 46.0024 108.787 46.0024C111.871 46.0024 114.479 44.2621 114.479 40.0208V29.7124H111.984L111.984 30.6477ZM116.293 40.4997H118.922V23.6223H116.293V40.4997ZM122.799 34.9322C122.732 32.7137 124.591 31.583 125.929 31.583C126.972 31.583 127.855 32.0834 128.151 32.8006L122.799 34.9322ZM130.962 33.0179C130.463 31.7355 128.944 29.3646 125.838 29.3646C122.754 29.3646 120.192 31.6916 120.192 35.1062C120.192 38.3251 122.732 40.8478 126.132 40.8478C128.875 40.8478 130.463 39.239 131.121 38.3034L129.08 36.9983C128.4 37.9554 127.471 38.5861 126.132 38.5861C124.795 38.5861 123.842 37.9987 123.231 36.846L131.234 33.6709L130.962 33.0179ZM67.1965 31.1264V33.5622H73.2728C73.0914 34.9323 72.6153 35.9325 71.8896 36.6286C71.0051 37.4766 69.6219 38.4121 67.1964 38.4121C63.4552 38.4121 60.5305 35.5196 60.5305 31.9311C60.5305 28.3426 63.4552 25.4498 67.1964 25.4498C69.2144 25.4498 70.6878 26.2111 71.7762 27.1898L73.5679 25.4713C72.0484 24.0796 70.0308 23.014 67.1964 23.014C62.0714 23.014 57.7636 27.0158 57.7636 31.9311C57.7636 36.8459 62.0714 40.8478 67.1964 40.8478C69.9621 40.8478 72.0485 39.9778 73.6807 38.3468C75.3586 36.7373 75.8802 34.4755 75.8802 32.6484C75.8802 32.0835 75.8345 31.5615 75.7439 31.1264H67.1965ZM82.7892 38.586C80.9749 38.586 79.4103 37.1506 79.4103 35.1062C79.4103 33.0401 80.9749 31.6268 82.7892 31.6268C84.6027 31.6268 86.1673 33.0401 86.1673 35.1062C86.1673 37.1506 84.6027 38.586 82.7892 38.586ZM82.7892 29.3646C79.4779 29.3646 76.7802 31.7786 76.7802 35.1062C76.7802 38.4121 79.4779 40.8478 82.7892 40.8478C86.0992 40.8478 88.7974 38.4121 88.7974 35.1062C88.7974 31.7786 86.0992 29.3646 82.7892 29.3646ZM95.896 38.586C94.083 38.586 92.5179 37.1506 92.5179 35.1062C92.5179 33.0401 94.0831 31.6268 95.896 31.6268C97.7103 31.6268 99.2743 33.0401 99.2743 35.1062C99.2743 37.1506 97.7103 38.586 95.896 38.586ZM95.896 29.3646C92.586 29.3646 89.8883 31.7786 89.8883 35.1062C89.8883 38.4121 92.586 40.8478 95.896 40.8478C99.2073 40.8478 101.905 38.4121 101.905 35.1062C101.905 31.7786 99.2073 29.3646 95.896 29.3646Z" fill="var(--fill-0, white)"/>
<path id="path37" d="M29.1566 26.2229L14.174 41.4773C14.1746 41.4805 14.1757 41.4831 14.1762 41.4863C14.6357 43.1428 16.213 44.3625 18.0849 44.3625C18.8332 44.3625 19.5358 44.1684 20.1383 43.8277L20.1862 43.8008L37.0518 34.4655L29.1566 26.2229Z" fill="var(--fill-0, #EB3131)"/>
<path id="path39" d="M44.3154 23.6258L44.301 23.6164L37.0196 19.5674L28.8161 26.5695L37.0481 34.4647L44.2911 30.456C45.5609 29.7984 46.423 28.5143 46.423 27.0335C46.423 25.5634 45.5727 24.2856 44.3154 23.6258Z" fill="var(--fill-0, #F6B60B)"/>
<path id="path41" d="M14.1719 12.5247C14.0818 12.8433 14.0345 13.177 14.0345 13.5236V40.4795C14.0345 40.8254 14.0813 41.1602 14.1725 41.4777L29.6722 26.6131L14.1719 12.5247Z" fill="var(--fill-0, #5778C5)"/>
<path id="path43" d="M29.2674 27.0015L37.0229 19.5646L20.1762 10.1954C19.5639 9.84363 18.8492 9.64059 18.0844 9.64059C16.2125 9.64059 14.6331 10.8625 14.1735 12.5209C14.1729 12.5225 14.1729 12.5236 14.1729 12.525L29.2674 27.0015Z" fill="var(--fill-0, #3BAD49)"/>
<path id="path33" d="M66.7037 13.2051H62.5981V14.1797H65.6747C65.5911 14.9749 65.2612 15.5993 64.7048 16.0528C64.1485 16.5064 63.4382 16.7341 62.5982 16.7341C61.6768 16.7341 60.8961 16.4262 60.2563 15.8145C59.6295 15.1902 59.3107 14.4181 59.3107 13.4879C59.3107 12.5578 59.6295 11.7857 60.2563 11.1614C60.8961 10.5497 61.6768 10.2438 62.5982 10.2438C63.071 10.2438 63.5218 10.3218 63.9351 10.4927C64.3486 10.6635 64.6806 10.9019 64.9401 11.2078L65.7208 10.459C65.3667 10.0729 64.9182 9.77763 64.3617 9.56245C63.8053 9.34727 63.2248 9.24399 62.598 9.24399C61.3688 9.24399 60.3266 9.65316 59.4755 10.4695C58.6245 11.2879 58.1979 12.2962 58.1979 13.4879C58.1979 14.6796 58.6244 15.6901 59.4755 16.5065C60.3265 17.3227 61.3688 17.732 62.598 17.732C63.8889 17.732 64.918 17.3354 65.7097 16.5296C66.4068 15.8589 66.763 14.9519 66.763 13.8171C66.763 13.6251 66.7389 13.4203 66.7037 13.2051ZM68.2942 9.42522V17.5505H73.2397V16.5527H69.3827V13.9752H72.8616V13.0006H69.3827V10.4251H73.2397V9.42519L68.2942 9.42522ZM80.1745 10.4252V9.42522H74.3537V10.4252H76.7199V17.5505H77.8084V10.4252H80.1745ZM85.4444 9.42522H84.3559V17.5505H85.4444V9.42522ZM92.6291 10.4252V9.42522H86.8084V10.4252H89.1744V17.5505H90.2629V10.4252H92.6291ZM103.613 10.4821C102.773 9.6531 101.744 9.24392 100.515 9.24392C99.2833 9.24392 98.2543 9.65309 97.4142 10.4695C96.5741 11.2753 96.1608 12.2856 96.1608 13.4878C96.1608 14.6901 96.5741 15.7006 97.4142 16.5064C98.2542 17.3226 99.2833 17.732 100.515 17.732C101.733 17.732 102.773 17.3226 103.613 16.5064C104.453 15.7006 104.867 14.6902 104.867 13.4878C104.867 12.2961 104.453 11.2878 103.613 10.4821ZM98.1949 11.1613C98.8216 10.5496 99.5912 10.2437 100.515 10.2437C101.436 10.2437 102.206 10.5496 102.822 11.1613C103.448 11.7624 103.756 12.547 103.756 13.4878C103.756 14.4308 103.448 15.2132 102.822 15.8145C102.206 16.4261 101.436 16.7341 100.515 16.7341C99.5912 16.7341 98.8215 16.4261 98.1949 15.8145C97.5812 15.2006 97.2734 14.4308 97.2734 13.4878C97.2734 12.547 97.5812 11.7751 98.1949 11.1613ZM107.453 12.4902L107.407 10.9228H107.453L111.758 17.5504H112.895V9.42514H111.807V14.1796L111.853 15.7469H111.807L107.69 9.42514H106.364V17.5504H107.453V12.4902Z" fill="var(--fill-0, white)" stroke="var(--stroke-0, white)" stroke-width="0.26666" stroke-miterlimit="10"/>
</g>
<defs>
<clipPath id="clip0_6790_1711">
<rect width="190" height="54" fill="white"/>
</clipPath>
</defs>
</svg>
