<svg preserveAspectRatio="none" width="100%" height="100%" overflow="visible" style="display: block;" viewBox="0 0 272 65.6961" fill="none" xmlns="http://www.w3.org/2000/svg">
<g id="GCash_logo 1" clip-path="url(#clip0_6819_1650)">
<path id="Vector" d="M22.5857 2.2492C26.3955 0.984533 30.4482 0.460157 34.4554 0.722345C40.3295 1.04622 46.067 3.15915 50.8482 6.62928C51.3643 7.01485 51.9259 7.36958 52.3661 7.86311C53.125 8.74221 53.4286 9.99145 53.1554 11.1327C52.8821 12.3666 51.9259 13.4153 50.742 13.7855C49.5884 14.1556 48.2679 13.9088 47.342 13.1223C43.775 10.3308 39.4339 8.57256 34.9563 8.14072C33.317 7.95564 31.6473 7.95564 30.008 8.14072C25.2875 8.61882 20.7188 10.5467 17.0455 13.6158C12.9018 17.0551 9.88125 21.8979 8.69733 27.2033C7.60447 32.0152 7.9384 37.1664 9.69911 41.7779C11.5509 46.6823 14.9964 50.9236 19.3375 53.7614C22.5857 55.8743 26.3348 57.1853 30.1598 57.5554C31.6473 57.7405 33.1652 57.7405 34.6375 57.5708C39.267 57.1698 43.7446 55.3654 47.4179 52.4813C48.3438 51.741 49.6643 51.5251 50.7875 51.9107C52.3357 52.4505 53.4437 54.1315 53.2464 55.7972C53.1554 56.7688 52.6545 57.6942 51.8955 58.2803C48.9813 60.5937 45.6723 62.3673 42.1509 63.5086C37.6125 64.9892 32.725 65.3748 28.0045 64.7116C22.7679 63.9713 17.7286 61.8429 13.5089 58.6042C9.41072 55.4887 6.07143 51.34 3.87054 46.6361C1.71518 42.0246 0.667862 36.8734 0.850005 31.7685C1.01697 25.4914 3.06608 19.2914 6.67858 14.1865C10.5643 8.63425 16.1955 4.36213 22.5857 2.2492Z" fill="var(--fill-0, #007CFF)" stroke="var(--stroke-0, #007CFF)" stroke-width="0.0340402"/>
<path id="Vector_2" opacity="0.4" d="M30.008 8.13989C31.6473 7.95592 33.317 7.95592 34.9563 8.13989C33.3018 8.0939 31.6625 8.0939 30.008 8.13989Z" fill="var(--fill-0, #001934)" stroke="var(--stroke-0, #001934)" stroke-width="0.0340402"/>
<path id="Vector_3" d="M66.9982 11.0094C68.5768 10.5313 70.4286 11.287 71.1875 12.7984C74.8304 20.0317 76.4241 28.2983 75.7714 36.3953C75.3161 42.1634 73.7527 47.8545 71.1268 52.9903C70.1705 54.8256 67.6054 55.4116 65.9509 54.2087C64.4179 53.2062 63.917 50.9699 64.8277 49.3505C69.8973 39.2331 69.9429 26.6944 64.9339 16.5462C64.4786 15.7133 64.2357 14.7263 64.4634 13.7855C64.7214 12.4745 65.7384 11.3641 66.9982 11.0094Z" fill="var(--fill-0, #6FBAF7)" stroke="var(--stroke-0, #6FBAF7)" stroke-width="0.0340402"/>
<path id="Vector_4" d="M243.13 11.9964C243.297 11.3178 243.965 10.8089 244.679 10.8397C246.045 10.8397 247.411 10.8243 248.777 10.8397C249.566 10.8089 250.295 11.5183 250.295 12.3203C250.325 16.3919 250.279 20.4635 250.31 24.5197C252.298 22.6998 254.879 21.6511 257.52 21.3889C260.51 21.0805 263.667 21.6048 266.202 23.3168C269.374 25.4143 271.12 29.2237 271.408 32.9714C271.499 36.5804 271.438 40.1893 271.454 43.7983C271.438 46.4201 271.484 49.0574 271.423 51.6793C271.226 52.3425 270.558 52.7743 269.89 52.7435C268.57 52.7435 267.234 52.7589 265.913 52.7435C265.2 52.7743 264.532 52.2345 264.38 51.5405C264.396 46.852 264.38 42.1634 264.38 37.4749C264.38 36.5341 264.411 35.5933 264.32 34.6525C264.137 32.3545 263.287 29.9177 261.375 28.5142C259.827 27.3421 257.762 27.0799 255.896 27.4038C254.438 27.666 253.072 28.4526 252.131 29.6247C250.826 31.2595 250.325 33.4033 250.31 35.4699C250.295 40.7137 250.31 45.9729 250.295 51.2166C250.31 51.9878 249.672 52.6818 248.913 52.7281C247.851 52.7743 246.804 52.7281 245.741 52.7435C245.24 52.7435 244.754 52.7743 244.269 52.6972C243.707 52.5738 243.252 52.0957 243.13 51.5405C243.13 38.354 243.13 25.1829 243.13 11.9964Z" fill="var(--fill-0, #002CB8)" stroke="var(--stroke-0, #002CB8)" stroke-width="0.0340402"/>
<path id="Vector_5" opacity="0.52" d="M243.039 12.6288C243.054 12.4283 243.085 12.2123 243.131 11.9964C243.131 25.1829 243.131 38.354 243.131 51.5405C242.994 50.8619 243.055 50.1833 243.055 49.5047C243.039 37.2127 243.07 24.9207 243.039 12.6288Z" fill="var(--fill-0, #000B31)" stroke="var(--stroke-0, #000B31)" stroke-width="0.0340402"/>
<path id="Vector_6" d="M22.1 15.3432C28.5357 11.3949 37.233 11.5029 43.4866 15.8059C45.0348 16.9626 45.3536 19.4302 44.1545 20.9571C43.0768 22.4531 40.8455 22.9003 39.3125 21.8979C36.8839 20.3247 33.9393 19.6461 31.0857 19.9854C28.2321 20.2939 25.5 21.6357 23.4964 23.7178C21.4929 25.7381 20.1875 28.4526 19.8688 31.3058C19.5804 33.6192 19.9598 36.0097 20.9009 38.1381C22.1455 40.945 24.4071 43.2739 27.1696 44.5694C29.9929 45.9266 33.3018 46.1425 36.2768 45.2017C40.2536 43.9679 43.5473 40.6212 44.6857 36.565C41.8321 36.5804 38.9786 36.565 36.125 36.565C34.7589 36.565 33.4384 35.7013 32.8768 34.452C32.1786 33.0177 32.5429 31.1515 33.7268 30.1028C34.3339 29.5476 35.1384 29.1774 35.958 29.1466C40.2688 29.1157 44.5643 29.1312 48.875 29.1312C50.2866 29.0849 51.6527 29.9794 52.2143 31.2904C52.7 32.3083 52.5482 33.465 52.4875 34.56C52.108 39.3102 49.9982 43.8908 46.6589 47.253C43.4563 50.5226 39.1304 52.6355 34.6071 53.0982C30.1598 53.5917 25.5607 52.4967 21.7813 50.0445C17.9714 47.5923 14.9964 43.7828 13.5393 39.4336C12.0518 35.0381 12.1277 30.1182 13.6759 25.7536C15.1938 21.4352 18.2295 17.7029 22.1 15.3432Z" fill="var(--fill-0, #002CB8)" stroke="var(--stroke-0, #002CB8)" stroke-width="0.0340402"/>
<path id="Vector_7" d="M109.711 12.7213C112.837 12.3666 116.055 12.6288 119.03 13.6775C122.582 14.9268 125.8 17.1939 128.046 20.263C128.532 20.8337 128.76 21.6819 128.426 22.3914C128.031 23.3168 126.984 23.6098 126.21 24.1342C125.329 24.5814 124.479 25.4451 123.402 25.1829C122.567 25.075 122.157 24.2576 121.641 23.6715C119.653 21.4352 116.799 20.078 113.854 19.7695C111.517 19.5382 109.104 19.8004 106.918 20.7257C104.353 21.8208 102.212 23.8411 100.877 26.3088C99.5562 28.761 99.1312 31.6297 99.3893 34.3903C99.5714 36.5804 100.3 38.7396 101.56 40.544C103.29 43.0271 105.871 44.8933 108.785 45.6798C110.849 46.2042 113.05 46.3893 115.145 45.8495C117.801 45.2017 120.336 43.8599 122.218 41.8087C123.554 40.359 124.464 38.5082 124.844 36.565C124.859 36.4878 124.889 36.3182 124.904 36.2411C121.201 36.2565 117.497 36.2411 113.809 36.2565C113.004 36.1023 112.306 35.3928 112.261 34.5446C112.215 33.7734 112.261 33.0023 112.246 32.2311C112.246 31.6759 112.185 31.059 112.504 30.5655C112.868 29.9331 113.581 29.5938 114.279 29.6401C119.349 29.6401 124.419 29.6401 129.488 29.6401C130.839 29.5938 132.038 30.8585 131.932 32.2311C131.871 34.1744 131.917 36.164 131.446 38.061C130.885 40.4824 129.929 42.8112 128.562 44.8779C127.424 46.6206 125.891 48.055 124.206 49.2425C122.005 50.7694 119.546 51.8952 116.966 52.543C113.505 53.4375 109.832 53.2216 106.402 52.2808C101.681 50.9699 97.5679 47.7157 95.0027 43.5052C92.2402 39.0018 91.5571 33.3879 92.6196 28.2521C93.6518 23.1934 96.8545 18.7208 101.059 15.8521C103.624 14.1093 106.629 13.0606 109.711 12.7213Z" fill="var(--fill-0, #002CB8)" stroke="var(--stroke-0, #002CB8)" stroke-width="0.0340402"/>
<path id="Vector_8" d="M153.956 12.675C156.719 12.4128 159.557 12.6133 162.213 13.4616C166.251 14.7263 169.939 17.3636 172.277 20.9725C172.732 21.6511 172.52 22.6998 171.806 23.1163C170.804 23.7332 169.757 24.3192 168.74 24.9362C168.285 25.1983 167.814 25.5376 167.268 25.4605C166.752 25.4451 166.342 25.075 166.069 24.6585C164.46 22.2217 161.834 20.5715 159.041 19.97C156.764 19.5073 154.366 19.6153 152.135 20.2476C149.661 20.9571 147.46 22.5148 145.927 24.5814C144.454 26.5093 143.62 28.8844 143.422 31.3058C143.164 34.0665 143.559 36.9505 144.864 39.4182C146.124 41.8087 148.143 43.7828 150.587 44.8624C152.863 45.8803 155.413 46.1425 157.857 45.8958C160.817 45.5719 163.686 44.1221 165.568 41.7624C165.932 41.3152 166.175 40.7445 166.661 40.4207C167.146 40.1122 167.799 40.1585 168.285 40.4669C169.438 41.1455 170.607 41.8087 171.761 42.4873C172.353 42.8112 172.656 43.5823 172.474 44.2455C172.292 44.7545 171.928 45.1709 171.624 45.6027C168.087 50.3838 162.198 53.1753 156.339 53.0982C151.771 53.1753 147.111 51.741 143.544 48.7798C141.464 47.0679 139.704 44.955 138.444 42.549C137.123 40.0351 136.41 37.2281 136.243 34.3749C136.046 31.3058 136.41 28.1595 137.487 25.26C139.066 21.065 142.147 17.4715 145.972 15.2198C148.401 13.7855 151.163 12.9526 153.956 12.675Z" fill="var(--fill-0, #002CB8)" stroke="var(--stroke-0, #002CB8)" stroke-width="0.0340402"/>
<path id="Vector_9" d="M57.1321 17.3636C58.6955 16.9471 60.4714 17.7646 61.2 19.2297C65.1464 27.7123 65.1464 37.9839 61.2 46.4664C60.6991 47.4689 59.6973 48.2092 58.5893 48.3943C57.2991 48.6256 55.9179 48.0704 55.1134 47.0216C54.2786 45.9266 54.1268 44.3535 54.7339 43.1197C57.6786 36.6267 57.633 28.8381 54.658 22.3606C53.7625 20.371 55.0375 17.8262 57.1321 17.3636Z" fill="var(--fill-0, #6FBAF7)" stroke="var(--stroke-0, #6FBAF7)" stroke-width="0.0340402"/>
<path id="Vector_10" d="M187.546 21.0959C190.415 20.5098 193.512 20.6795 196.153 22.0212C198.126 23.0083 199.796 24.7202 200.509 26.864C200.6 25.476 200.494 24.0725 200.554 22.669C200.57 21.9133 201.283 21.281 202.027 21.281C203.454 21.2655 204.865 21.2655 206.292 21.281C207.096 21.2655 207.81 21.9904 207.779 22.8232C207.779 31.969 207.779 41.1147 207.779 50.2758C207.779 50.6768 207.795 51.0932 207.749 51.5097C207.643 52.2191 206.975 52.7435 206.277 52.7435C205.108 52.7589 203.954 52.7281 202.786 52.7435C202.391 52.7435 201.996 52.7743 201.632 52.6818C201.04 52.5121 200.585 51.9723 200.554 51.3554C200.509 50.4146 200.57 49.4738 200.524 48.5485C199.735 49.2579 199.006 50.0291 198.141 50.646C195.986 52.2808 193.329 53.237 190.643 53.237C187.683 53.2679 184.723 52.3271 182.34 50.538C180.018 48.8261 178.272 46.3739 177.24 43.6749C175.996 40.4515 175.738 36.8888 176.299 33.4958C176.83 30.3341 178.242 27.2804 180.473 24.9824C182.386 23.0083 184.89 21.6511 187.546 21.0959ZM190.552 27.373C188.381 27.6968 186.393 28.9769 185.163 30.8277C182.917 34.1436 182.826 38.755 184.723 42.256C185.755 44.2301 187.546 45.8495 189.702 46.4356C192.449 47.2375 195.591 46.4664 197.655 44.446C199.462 42.7495 200.388 40.251 200.509 37.7834C200.691 34.9301 199.932 31.861 197.898 29.7943C196.031 27.8202 193.193 26.9411 190.552 27.373Z" fill="var(--fill-0, #002CB8)" stroke="var(--stroke-0, #002CB8)" stroke-width="0.0340402"/>
<path id="Vector_11" d="M223.474 20.8645C226.662 20.5715 230.031 20.9879 232.779 22.7461C235.237 24.2884 236.862 27.0182 237.211 29.9177C237.302 30.766 236.573 31.5988 235.738 31.568C234.418 31.5834 233.082 31.568 231.777 31.5834C231.321 31.5988 230.836 31.5371 230.502 31.2132C230.031 30.8277 230.001 30.1799 229.758 29.6555C229.303 28.5759 228.331 27.7894 227.238 27.4347C226.085 27.0645 224.855 27.0491 223.671 27.2033C222.7 27.3421 221.698 27.6506 221.03 28.4217C220.302 29.2391 220.271 30.6272 220.985 31.46C221.729 32.3391 222.837 32.7709 223.884 33.1565C226.874 34.1744 230.031 34.7142 232.854 36.2102C234.494 37.0739 236.012 38.3386 236.846 40.0351C238.167 42.7032 237.939 46.0654 236.27 48.5176C234.858 50.646 232.566 51.9878 230.168 52.651C227.238 53.4529 224.081 53.4375 221.167 52.6047C218.936 51.9569 216.826 50.7539 215.262 49.0112C214.033 47.654 213.153 45.942 212.864 44.1067C212.713 43.243 213.456 42.3794 214.321 42.3794C215.794 42.3639 217.266 42.3794 218.723 42.3794C219.421 42.3485 220.074 42.8266 220.256 43.5052C220.484 44.2918 220.939 45.0167 221.562 45.541C222.821 46.6206 224.537 47.0062 226.161 46.8982C227.421 46.8366 228.741 46.5744 229.728 45.7261C230.578 45.0012 230.896 43.644 230.289 42.6724C229.758 41.855 228.817 41.4231 227.937 41.053C225.387 40.0814 222.685 39.6341 220.135 38.6625C218.268 37.9684 216.416 37.0122 215.08 35.4699C213.138 33.2491 212.728 29.9023 213.745 27.1725C214.595 24.9207 216.462 23.2088 218.571 22.2063C220.104 21.4506 221.789 21.0342 223.474 20.8645Z" fill="var(--fill-0, #002CB8)" stroke="var(--stroke-0, #002CB8)" stroke-width="0.0340402"/>
<path id="Vector_12" opacity="0.75" d="M271.408 32.9714C271.621 34.3595 271.469 35.763 271.515 37.1664C271.515 41.4386 271.515 45.6953 271.515 49.9674C271.515 50.538 271.576 51.1241 271.423 51.6793C271.484 49.0574 271.438 46.4201 271.454 43.7983C271.438 40.1893 271.499 36.5804 271.408 32.9714Z" fill="var(--fill-0, #001966)" stroke="var(--stroke-0, #001966)" stroke-width="0.0340402"/>
<path id="Vector_13" opacity="0.48" d="M264.32 34.6525C264.411 35.5933 264.381 36.5341 264.381 37.4749C264.381 42.1634 264.396 46.852 264.381 51.5405C264.228 50.7694 264.32 49.9828 264.304 49.1962C264.304 44.3535 264.289 39.5107 264.32 34.6525Z" fill="var(--fill-0, #000A2B)" stroke="var(--stroke-0, #000A2B)" stroke-width="0.0340402"/>
<path id="Vector_14" opacity="0.27" d="M113.809 36.2565C117.497 36.2411 121.201 36.2565 124.904 36.2411C124.889 36.318 124.859 36.4872 124.844 36.5641C124.54 36.3949 124.191 36.3334 123.857 36.3334C120.776 36.3641 117.679 36.318 114.598 36.3641C114.325 36.3641 114.067 36.3026 113.809 36.2565Z" fill="var(--fill-0, #00030E)" stroke="var(--stroke-0, #00030E)" stroke-width="0.0340402"/>
<path id="Vector_15" opacity="0.46" d="M30.1598 57.5554C31.6625 57.5861 33.15 57.5861 34.6375 57.5707C33.1652 57.7394 31.6473 57.7394 30.1598 57.5554Z" fill="var(--fill-0, #001E3E)" stroke="var(--stroke-0, #001E3E)" stroke-width="0.0340402"/>
</g>
<defs>
<clipPath id="clip0_6819_1650">
<rect width="272" height="65.6961" fill="white"/>
</clipPath>
</defs>
</svg>
