<svg preserveAspectRatio="none" width="100%" height="100%" overflow="visible" style="display: block;" viewBox="0 0 127 99.0495" fill="none" xmlns="http://www.w3.org/2000/svg">
<g id="Mastercard-logo 1" clip-path="url(#clip0_6819_1511)">
<path id="XMLID_1775_" d="M23.0181 98.8325V92.259C23.0181 89.7445 21.4929 88.0979 18.8746 88.0979C17.5655 88.0979 16.1419 88.5319 15.1632 89.9615C14.4006 88.7616 13.3075 88.0979 11.6679 88.0979C10.5749 88.0979 9.48179 88.4298 8.61749 89.6296V88.3149H6.32966V98.8325H8.61749V93.0249C8.61749 91.1613 9.59618 90.2806 11.1214 90.2806C12.6466 90.2806 13.4092 91.2634 13.4092 93.0249V98.8325H15.6971V93.0249C15.6971 91.1613 16.7901 90.2806 18.201 90.2806C19.7262 90.2806 20.4888 91.2634 20.4888 93.0249V98.8325H23.0181ZM56.9543 88.3149H53.2429V85.1366H50.9551V88.3149H48.8833V90.3955H50.9551V95.2203C50.9551 97.6327 51.9337 99.0495 54.552 99.0495C55.5307 99.0495 56.6238 98.7177 57.3864 98.2837L56.7255 96.3052C56.0645 96.7392 55.3019 96.8541 54.7554 96.8541C53.6623 96.8541 53.2302 96.1904 53.2302 95.1054V90.3955H56.9416V88.3149H56.9543ZM76.3754 88.0851C75.0663 88.0851 74.1893 88.7489 73.6427 89.6168V88.3021H71.3549V98.8198H73.6427V92.8972C73.6427 91.1485 74.4053 90.1529 75.8289 90.1529C76.261 90.1529 76.8075 90.2678 77.2524 90.3699L77.9133 88.1745C77.4558 88.0851 76.8075 88.0851 76.3754 88.0851ZM47.0276 89.1829C45.9345 88.417 44.4093 88.0851 42.7697 88.0851C40.1514 88.0851 38.4101 89.3999 38.4101 91.4804C38.4101 93.2291 39.7193 94.2247 42.0071 94.5438L43.1002 94.6587C44.2949 94.8757 44.9559 95.2075 44.9559 95.7564C44.9559 96.5222 44.0789 97.0711 42.5536 97.0711C41.0284 97.0711 39.821 96.5222 39.0583 95.9734L37.9653 97.7221C39.16 98.6028 40.7996 99.0368 42.4393 99.0368C45.4897 99.0368 47.2437 97.6072 47.2437 95.6415C47.2437 93.7779 45.8202 92.7951 43.6467 92.4632L42.5536 92.3484C41.575 92.2335 40.8124 92.0165 40.8124 91.3655C40.8124 90.5997 41.575 90.1657 42.7824 90.1657C44.0916 90.1657 45.4007 90.7146 46.0616 91.0464L47.0276 89.1829ZM107.897 88.0851C106.587 88.0851 105.71 88.7489 105.164 89.6168V88.3021H102.876V98.8198H105.164V92.8972C105.164 91.1485 105.927 90.1529 107.35 90.1529C107.782 90.1529 108.329 90.2678 108.774 90.3699L109.435 88.2C108.99 88.0851 108.341 88.0851 107.897 88.0851ZM78.6632 93.5737C78.6632 96.752 80.8494 99.0495 84.2303 99.0495C85.7555 99.0495 86.8486 98.7177 87.9417 97.8497L86.8486 95.9861C85.9716 96.6499 85.1073 96.969 84.1159 96.969C82.2602 96.969 80.9511 95.6543 80.9511 93.5737C80.9511 91.5953 82.2602 90.2806 84.1159 90.1785C85.0946 90.1785 85.9716 90.5103 86.8486 91.1613L87.9417 89.2977C86.8486 88.417 85.7555 88.0979 84.2303 88.0979C80.8494 88.0852 78.6632 90.3955 78.6632 93.5737ZM99.8257 93.5737V88.3149H97.5378V89.6296C96.7752 88.6468 95.6821 88.0979 94.2586 88.0979C91.3098 88.0979 89.022 90.3955 89.022 93.5737C89.022 96.752 91.3098 99.0495 94.2586 99.0495C95.7838 99.0495 96.8769 98.5007 97.5378 97.5178V98.8325H99.8257V93.5737ZM91.4242 93.5737C91.4242 91.7102 92.619 90.1785 94.5891 90.1785C96.4448 90.1785 97.7539 91.608 97.7539 93.5737C97.7539 95.4373 96.4448 96.969 94.5891 96.969C92.6317 96.8541 91.4242 95.4245 91.4242 93.5737ZM64.0465 88.0851C60.9961 88.0851 58.8099 90.2806 58.8099 93.561C58.8099 96.8541 60.9961 99.0368 64.1609 99.0368C65.6861 99.0368 67.2114 98.6028 68.4188 97.6072L67.3258 95.9606C66.4488 96.6243 65.3557 97.0583 64.2753 97.0583C62.8518 97.0583 61.4409 96.3946 61.1105 94.5438H68.851C68.851 94.2119 68.851 93.9949 68.851 93.6631C68.9527 90.2806 66.9826 88.0851 64.0465 88.0851ZM64.0465 90.0636C65.4701 90.0636 66.4488 90.9443 66.6648 92.5781H61.2122C61.4282 91.1613 62.4069 90.0636 64.0465 90.0636ZM120.886 93.5737V84.1538H118.599V89.6296C117.836 88.6468 116.743 88.0979 115.319 88.0979C112.371 88.0979 110.083 90.3955 110.083 93.5737C110.083 96.752 112.371 99.0495 115.319 99.0495C116.845 99.0495 117.938 98.5007 118.599 97.5178V98.8325H120.886V93.5737ZM112.485 93.5737C112.485 91.7102 113.68 90.1785 115.65 90.1785C117.506 90.1785 118.815 91.608 118.815 93.5737C118.815 95.4373 117.506 96.969 115.65 96.969C113.68 96.8541 112.485 95.4245 112.485 93.5737ZM35.8935 93.5737V88.3149H33.6057V89.6296C32.8431 88.6468 31.75 88.0979 30.3265 88.0979C27.3777 88.0979 25.0899 90.3955 25.0899 93.5737C25.0899 96.752 27.3777 99.0495 30.3265 99.0495C31.8517 99.0495 32.9448 98.5007 33.6057 97.5178V98.8325H35.8935V93.5737ZM27.3904 93.5737C27.3904 91.7102 28.5852 90.1785 30.5552 90.1785C32.4109 90.1785 33.7201 91.608 33.7201 93.5737C33.7201 95.4373 32.4109 96.969 30.5552 96.969C28.5852 96.8541 27.3904 95.4245 27.3904 93.5737Z" fill="var(--fill-0, black)"/>
<g id="Group">
<path id="rect19" d="M80.6333 8.43708H46.265V70.4451H80.6333V8.43708Z" fill="var(--fill-0, #FF5A00)"/>
<path id="XMLID_330_" d="M48.5528 39.4411C48.5528 26.8429 54.4504 15.6616 63.5 8.43708C56.8399 3.17826 48.4384 0 39.2744 0C17.5655 0 0 17.64 0 39.4411C0 61.2422 17.5655 78.8822 39.2744 78.8822C48.4384 78.8822 56.8399 75.704 63.5 70.4452C54.4376 63.3228 48.5528 52.0393 48.5528 39.4411Z" fill="var(--fill-0, #EB001B)"/>
<path id="path22" d="M127 39.4411C127 61.2422 109.435 78.8822 87.7256 78.8822C78.5615 78.8822 70.1601 75.704 63.5 70.4452C72.664 63.2079 78.4472 52.0393 78.4472 39.4411C78.4472 26.8429 72.5496 15.6616 63.5 8.43708C70.1474 3.17826 78.5488 0 87.7129 0C109.435 0 127 17.7549 127 39.4411Z" fill="var(--fill-0, #F79E1B)"/>
</g>
</g>
<defs>
<clipPath id="clip0_6819_1511">
<rect width="127" height="99.0495" fill="white"/>
</clipPath>
</defs>
</svg>
