<svg width="291" height="61.653" viewBox="0 0 291 61.653" fill="none" xmlns="http://www.w3.org/2000/svg">
  <!-- Part 1 (Green) - positioned at 0.93%,75.49%,31.77%,8.03% of container -->
  <g transform="translate(23.37, 0.573)">
    <path d="M13.8002 0.347954C19.3852 -0.90619 25.0923 1.38078 29.4349 4.79015C35.8375 9.80146 39.9678 17.047 43.1266 24.3769C44.9741 29.0299 46.6676 33.7672 47.7772 38.652C48.0373 39.5742 48.1912 41.1656 46.8693 41.2921C39.1237 41.7768 31.2824 41.4027 23.6642 39.8535C16.4335 38.1725 9.08064 35.0003 4.45128 28.9983C1.43052 24.9302 -0.581547 19.8451 0.15108 14.7232C0.841236 10.5339 2.89578 6.43951 6.27223 3.75206C8.4595 2.02893 11.1086 0.996103 13.8002 0.347954Z" fill="#91C83E"/>
  </g>
  <!-- Part 2 (Blue) - positioned at 13.26%,77.88%,0.98%,0.31% of container -->
  <g transform="translate(0.902, 8.172)">
    <path d="M1.35084 13.295C4.26011 5.23262 12.7384 0.11066 21.1955 0C20.0541 3.30925 18.5729 6.65539 18.9127 10.2492C19.555 17.558 23.696 24.4189 29.5995 28.7768C37.2602 34.3256 46.8587 36.3807 56.1545 37.1132C57.3437 37.3503 59.1541 36.9603 59.6319 38.4253C60.8688 42.056 62.0474 45.7077 63.0189 49.4175C63.2844 50.4661 63.7303 51.599 63.2684 52.6582C60.9272 53.0534 58.5329 52.7847 56.1705 52.8321C45.3828 52.4527 34.3934 51.6254 24.2215 47.7787C15.9397 44.7908 7.96041 39.7426 3.49032 31.9912C0.14572 26.4635 -1.25052 19.4023 1.35084 13.295Z" fill="#0284CC"/>
  </g>
  <!-- Part 3 (Dark Blue/Navy - Text) - positioned at 18.01%,0.31%,16.53%,29.56% of container -->
  <g transform="translate(86.02, 11.102)">
    <path d="M0.0115658 0.0640203C4.71524 -0.00975286 9.42423 0.0113246 14.1279 0.0376721C17.2071 0.0429416 20.3659 0.896602 22.6805 2.98333C27.9151 7.5678 27.3417 17.2005 21.1834 20.7416C17.1168 23.4185 12.0256 22.7651 7.40154 22.8757C7.36438 26.1481 7.41747 29.4257 7.35376 32.6981C4.92229 32.6401 2.45897 32.9616 0.0540379 32.5347C-0.0574489 21.7164 0.0434191 10.8876 0.0115658 0.0640203ZM7.40685 6.54552C7.375 9.8495 7.35907 13.1588 7.42809 16.468C10.3214 16.3047 13.4218 16.9897 16.1612 15.8093C19.4368 14.3971 19.8562 9.09069 16.6284 7.41499C13.8147 5.89737 10.4648 6.70887 7.40685 6.54552Z" fill="#00324D"/>
    <path d="M86.6421 0.0480332C89.0151 0.0427637 91.3882 -0.057357 93.7613 0.0480332C94.5098 -0.0837045 94.8284 0.680375 95.1947 1.15463C97.8226 5.35443 100.397 9.59112 103.105 13.7435C105.94 9.15375 108.807 4.57981 111.695 0.0216861C114.301 0.0164166 116.913 0.000608135 119.52 0.0691118C119.488 10.9507 119.632 21.8375 119.446 32.719C117.099 32.7453 114.758 32.7243 112.417 32.6821C112.316 25.6262 112.449 18.5704 112.342 11.5145C109.115 16.0673 106.248 20.8731 102.956 25.3891C99.9196 20.8204 96.9413 16.2149 93.825 11.7042C93.6604 18.6758 94.0639 25.6789 93.6286 32.6294C91.3086 32.8297 88.9727 32.7137 86.6474 32.6927C86.589 21.8111 86.5996 10.9296 86.6421 0.0480332Z" fill="#00324D"/>
    <path d="M31.2703 9.35399C35.3316 7.4517 39.9663 7.04067 44.378 7.65194C47.266 8.03134 50.0744 9.81244 51.2211 12.5368C52.7607 15.8618 52.3148 19.6032 52.3732 23.1496C52.3041 26.2849 52.5324 29.4308 52.2511 32.5609C50.6849 32.7928 49.0976 32.7664 47.5208 32.7506C46.8254 32.6083 45.8273 33.0036 45.3867 32.2711C45.3707 31.7652 45.3336 30.7482 45.3177 30.2371C41.92 33.4146 36.4571 34.2577 32.4277 31.7758C27.9629 29.1832 27.8726 21.79 32.2737 19.0973C36.2394 16.726 41.1661 17.1371 45.461 18.2911C45.3495 16.7945 45.1106 15.103 43.6188 14.3231C40.3273 12.3365 36.4306 13.9227 33.001 14.6024C32.2578 12.9109 31.8278 11.1087 31.2703 9.35399ZM37.0676 22.7385C35.2308 24.0665 35.7404 27.3441 37.9914 27.9185C40.1946 28.4349 42.934 28.2979 44.5266 26.4852C45.6309 25.4787 45.3283 23.8504 45.5619 22.5278C42.8384 21.7057 39.5894 21.026 37.0676 22.7385Z" fill="#00324D"/>
    <path d="M128.179 9.34872C132.638 7.30942 137.783 6.8984 142.561 7.91541C146.59 8.89027 149.144 12.8898 149.207 16.8736C149.239 22.1536 149.276 27.439 149.17 32.719C146.861 32.7454 144.557 32.719 142.253 32.6768C142.247 31.839 142.247 31.0011 142.253 30.158C138.77 33.5727 132.893 34.2999 128.842 31.4649C125.763 29.3518 125.27 24.9149 126.74 21.711C128.126 19.0604 131.189 17.7905 134.045 17.4796C136.854 17.1107 139.667 17.6377 142.401 18.27C142.168 16.6312 141.775 14.7394 140.055 14.0333C136.779 12.6369 133.153 13.733 129.925 14.7289C129.257 12.9636 128.678 11.1667 128.179 9.34872ZM135.08 22.1273C133.907 22.454 133.052 23.529 132.883 24.7093C132.553 26.364 134.013 28.0344 135.686 28.0818C137.623 28.319 139.901 28.1661 141.292 26.6222C142.396 25.563 142.311 23.9453 142.465 22.5488C140.103 21.8006 137.485 21.242 135.08 22.1273Z" fill="#00324D"/>
    <path d="M183.067 9.35926C187.113 7.44643 191.748 7.05122 196.149 7.64667C198.952 8.005 201.654 9.67543 202.891 12.247C203.825 13.9648 204.112 15.9409 204.069 17.8748C204.054 22.8176 204.069 27.7604 204.054 32.7032C201.749 32.7295 199.445 32.7295 197.141 32.7085C197.147 31.8653 197.163 31.0275 197.189 30.1896C195.501 31.5228 193.622 32.777 191.434 33.0668C187.93 33.6675 183.774 32.5556 181.841 29.3939C180.54 26.9858 180.556 23.9242 181.767 21.4844C183.179 18.9761 186.125 17.8643 188.854 17.4954C191.71 17.0527 194.572 17.6587 197.364 18.2278C197.035 16.6997 196.77 14.8396 195.135 14.1334C191.875 12.5947 188.132 13.675 184.888 14.7447C184.161 12.99 183.54 11.1931 183.067 9.35926ZM189.173 22.5278C187.092 23.7134 187.421 27.2756 189.783 27.9185C191.997 28.4349 194.747 28.2979 196.34 26.4746C197.311 25.4102 197.2 23.8873 197.412 22.5647C194.774 21.7479 191.71 21.0734 189.173 22.5278Z" fill="#00324D"/>
    <path d="M55.4152 7.72571C57.9369 7.6414 60.4586 7.65721 62.9803 7.68356C64.8331 13.2798 66.7709 18.8496 68.6184 24.4459C70.6623 18.9445 72.3505 13.3061 74.0919 7.69936C76.5817 7.65194 79.0663 7.6414 81.5562 7.72044C78.4504 16.4046 75.0581 24.9886 71.8303 33.6306C70.8853 36.0493 69.5687 38.7157 66.9939 39.738C63.782 41.0132 60.2038 40.1543 57.2574 38.6156C58.0484 36.9135 58.8182 35.2009 59.6304 33.5094C60.7081 33.8519 61.7752 34.3262 62.9219 34.4C63.9784 34.479 64.5942 33.4884 65.3269 32.914C61.977 24.5355 58.6271 16.1569 55.4152 7.72571Z" fill="#00324D"/>
    <path d="M152.271 7.69936C154.766 7.65721 157.266 7.66775 159.767 7.65721C161.689 13.264 163.536 18.9023 165.49 24.5038C167.417 18.9182 169.142 13.2692 171 7.66248C173.458 7.66248 175.922 7.65721 178.38 7.7099C175.566 15.6721 172.402 23.5132 169.482 31.4438C168.415 34.0575 167.603 37.0189 165.309 38.8791C161.996 41.282 157.468 40.4336 154.081 38.6261C154.84 36.9188 155.615 35.2168 156.433 33.5358C157.765 33.8836 159.162 34.7003 160.558 34.2472C161.216 33.8994 162.262 33.2565 161.869 32.3765C158.753 24.1192 155.281 15.9936 152.271 7.69936Z" fill="#00324D"/>
  </g>
</svg>
