<svg preserveAspectRatio="none" width="100%" height="100%" overflow="visible" style="display: block;" viewBox="0 0 63.4687 52.8778" fill="none" xmlns="http://www.w3.org/2000/svg">
<g id="#0284ccff">
<path id="Vector" d="M1.35084 13.295C4.26011 5.23262 12.7384 0.11066 21.1955 0C20.0541 3.30925 18.5729 6.65539 18.9127 10.2492C19.555 17.558 23.696 24.4189 29.5995 28.7768C37.2602 34.3256 46.8587 36.3807 56.1545 37.1132C57.3437 37.3503 59.1541 36.9603 59.6319 38.4253C60.8688 42.056 62.0474 45.7077 63.0189 49.4175C63.2844 50.4661 63.7303 51.599 63.2684 52.6582C60.9272 53.0534 58.5329 52.7847 56.1705 52.8321C45.3828 52.4527 34.3934 51.6254 24.2215 47.7787C15.9397 44.7908 7.96041 39.7426 3.49032 31.9912C0.14572 26.4635 -1.25052 19.4023 1.35084 13.295Z" fill="var(--fill-0, #0284CC)"/>
</g>
</svg>
