<svg preserveAspectRatio="none" width="100%" height="100%" overflow="visible" style="display: block;" viewBox="0 0 161 53.5677" fill="none" xmlns="http://www.w3.org/2000/svg">
<g id="g4158">
<path id="polygon9" d="M69.7665 52.7949H56.7244L64.8819 0.940059H77.9233L69.7665 52.7949Z" fill="var(--fill-0, #00579F)"/>
<path id="path11" d="M117.045 2.20776C114.473 1.15855 110.393 9.57006e-05 105.348 9.57006e-05C92.4681 9.57006e-05 83.3985 7.06082 83.3428 17.1555C83.2358 24.6034 89.8364 28.7401 94.7731 31.2234C99.819 33.761 101.534 35.4173 101.534 37.6793C101.483 41.1532 97.4569 42.7545 93.7019 42.7545C88.4949 42.7545 85.7049 41.9289 81.465 39.9962L79.7476 39.1677L77.9226 50.808C80.9814 52.2406 86.6171 53.512 92.4681 53.5677C106.153 53.5677 115.062 46.6162 115.168 35.8587C115.22 29.9557 111.734 25.4326 104.22 21.7366C99.6585 19.3639 96.8649 17.7641 96.8649 15.3364C96.9184 13.1295 99.2277 10.8691 104.377 10.8691C108.617 10.7583 111.732 11.8061 114.092 12.8546L115.272 13.4052L117.045 2.20776Z" fill="var(--fill-0, #00579F)"/>
<path id="path13" d="M134.379 34.4246C135.454 31.4456 139.587 19.916 139.587 19.916C139.532 20.0267 140.658 16.882 141.302 14.9515L142.214 19.4196C142.214 19.4196 144.684 31.832 145.22 34.4246C143.182 34.4246 136.956 34.4246 134.379 34.4246ZM150.478 0.940059H140.39C137.279 0.940059 134.916 1.87709 133.574 5.24248L114.201 52.7942H127.886C127.886 52.7942 130.139 46.3941 130.623 45.0157C132.124 45.0157 145.437 45.0157 147.368 45.0157C147.743 46.8362 148.924 52.7942 148.924 52.7942H161L150.478 0.940059Z" fill="var(--fill-0, #00579F)"/>
<path id="path15" d="M45.8311 0.940059L33.0586 36.3001L31.6628 29.1287C29.3015 20.8538 21.8957 11.8633 13.6312 7.39296L25.3304 52.7399H39.1221L59.6221 0.940059H45.8311Z" fill="var(--fill-0, #00579F)"/>
<path id="path17" d="M21.1982 0.940059H0.21467L0 1.9878C16.3685 6.29095 27.209 16.6635 31.6628 29.1309L27.1013 5.29893C26.3503 1.98707 24.0424 1.04931 21.1982 0.940059Z" fill="var(--fill-0, #FAA61A)"/>
</g>
</svg>
