<svg preserveAspectRatio="none" width="100%" height="100%" overflow="visible" style="display: block;" viewBox="0 0 180 53.9042" fill="none" xmlns="http://www.w3.org/2000/svg">
<g id="Google Play Icon" clip-path="url(#clip0_6941_99)">
<path id="path11" d="M173.33 53.9042H6.67C3.0034 53.9042 0.0035 50.8721 0.0035 47.1663V6.7389C0.0035 3.03303 3.0034 0.001 6.67 0.001H173.33C176.997 0.001 179.997 3.03303 179.997 6.7389V47.1663C179.997 50.8721 176.997 53.9042 173.33 53.9042Z" fill="var(--fill-0, #100F0D)"/>
<path id="path13" d="M173.33 0.001H6.67C3.0034 0.001 0.0035 3.03303 0.0035 6.7389V47.1663C0.0035 50.8721 3.0034 53.9042 6.67 53.9042H173.33C176.997 53.9042 179.997 50.8721 179.997 47.1663V6.7389C179.997 3.03303 176.997 0.001 173.33 0.001ZM173.33 1.07852C176.418 1.07852 178.93 3.61793 178.93 6.7389V47.1663C178.93 50.2872 176.418 52.8266 173.33 52.8266H6.67C3.5821 52.8266 1.0707 50.2872 1.0707 47.1663V6.7389C1.0707 3.61793 3.5821 1.07852 6.67 1.07852H173.33Z" fill="var(--fill-0, #A2A2A1)"/>
<path id="path35" d="M142.58 40.4284H145.068V23.5809H142.58V40.4284ZM164.989 29.6502L162.137 36.954H162.052L159.092 29.6502H156.412L160.852 39.8583L158.32 45.537H160.915L167.756 29.6507L164.989 29.6502ZM150.879 38.5147C150.066 38.5147 148.928 38.1025 148.928 37.0839C148.928 35.7837 150.344 35.2852 151.566 35.2852C152.659 35.2852 153.175 35.5232 153.839 35.8485C153.646 37.4092 152.316 38.5147 150.879 38.5147ZM151.18 29.2817C149.379 29.2817 147.514 30.0839 146.742 31.8611L148.95 32.7928C149.422 31.8611 150.3 31.5579 151.223 31.5579C152.51 31.5579 153.818 32.3375 153.839 33.7251V33.8983C153.388 33.6382 152.423 33.2482 151.244 33.2482C148.863 33.2482 146.44 34.5699 146.44 37.0408C146.44 39.2949 148.392 40.7471 150.579 40.7471C152.251 40.7471 153.175 39.9886 153.752 39.0996H153.839V40.4008H156.242V33.9413C156.242 30.9503 154.031 29.2817 151.18 29.2817ZM135.804 31.701H132.266V25.9265H135.804C137.664 25.9265 138.72 27.4826 138.72 28.8137C138.72 30.1192 137.664 31.701 135.804 31.701ZM135.74 23.5813H129.779V40.4288H132.266V34.0463H135.74C138.498 34.0463 141.208 32.0291 141.208 28.8143C141.208 25.6002 138.498 23.5813 135.74 23.5813ZM103.233 38.5175C101.515 38.5175 100.076 37.0625 100.076 35.066C100.076 33.0462 101.515 31.5706 103.233 31.5706C104.93 31.5706 106.262 33.0463 106.262 35.066C106.262 37.0625 104.93 38.5175 103.233 38.5175ZM106.09 30.5933H106.004C105.446 29.9204 104.371 29.3125 103.019 29.3125C100.183 29.3125 97.5839 31.8313 97.5839 35.066C97.5839 38.2786 100.183 40.7753 103.019 40.7753C104.371 40.7753 105.446 40.1672 106.004 39.473H106.09V40.2973C106.09 42.4908 104.93 43.6625 103.061 43.6625C101.537 43.6625 100.592 42.5555 100.205 41.6221L98.0356 42.5338C98.658 44.0529 100.312 45.9207 103.062 45.9207C105.983 45.9207 108.454 44.1835 108.454 39.9497V29.6597H106.09L106.09 30.5933ZM110.172 40.4279H112.663V23.5804H110.172V40.4279ZM116.336 34.8702C116.272 32.6556 118.034 31.527 119.301 31.527C120.289 31.527 121.126 32.0265 121.406 32.7424L116.336 34.8702ZM124.069 32.9593C123.596 31.6792 122.157 29.3125 119.215 29.3125C116.293 29.3125 113.866 31.6354 113.866 35.0439C113.866 38.2571 116.272 40.7754 119.493 40.7754C122.092 40.7754 123.597 39.1693 124.22 38.2354L122.287 36.9326C121.642 37.8881 120.762 38.5176 119.493 38.5176C118.227 38.5176 117.324 37.9313 116.745 36.7806L124.327 33.6111L124.069 32.9593ZM63.6598 31.0711V33.5026H69.4163C69.2445 34.8703 68.7934 35.8688 68.1059 36.5636C67.2679 37.41 65.9576 38.3439 63.6597 38.3439C60.1154 38.3439 57.3447 35.4566 57.3447 31.8744C57.3447 28.2923 60.1154 25.4046 63.6597 25.4046C65.5715 25.4046 66.9674 26.1646 67.9985 27.1416L69.6959 25.4261C68.2563 24.0369 66.3449 22.9731 63.6597 22.9731C58.8045 22.9731 54.7234 26.9679 54.7234 31.8744C54.7234 36.7805 58.8045 40.7754 63.6597 40.7754C66.2799 40.7754 68.2564 39.9068 69.8027 38.2787C71.3923 36.6721 71.8865 34.4144 71.8865 32.5904C71.8865 32.0266 71.8432 31.5055 71.7573 31.0711H63.6598ZM78.4318 38.5175C76.713 38.5175 75.2308 37.0846 75.2308 35.0439C75.2308 32.9815 76.713 31.5707 78.4318 31.5707C80.1499 31.5707 81.6321 32.9815 81.6321 35.0439C81.6321 37.0846 80.1499 38.5175 78.4318 38.5175ZM78.4318 29.3125C75.2948 29.3125 72.7391 31.7222 72.7391 35.0439C72.7391 38.3439 75.2948 40.7754 78.4318 40.7754C81.5676 40.7754 84.1238 38.3439 84.1238 35.0439C84.1238 31.7222 81.5676 29.3125 78.4318 29.3125ZM90.8488 38.5175C89.1312 38.5175 87.6485 37.0846 87.6485 35.0439C87.6485 32.9815 89.1313 31.5707 90.8488 31.5707C92.5676 31.5707 94.0493 32.9815 94.0493 35.0439C94.0493 37.0846 92.5676 38.5175 90.8488 38.5175ZM90.8488 29.3125C87.713 29.3125 85.1573 31.7222 85.1573 35.0439C85.1573 38.3439 87.713 40.7754 90.8488 40.7754C93.9858 40.7754 96.5415 38.3439 96.5415 35.0439C96.5415 31.7222 93.9858 29.3125 90.8488 29.3125Z" fill="var(--fill-0, white)"/>
<path id="path37" d="M27.622 26.1764L13.428 41.4037C13.4285 41.4068 13.4296 41.4095 13.4301 41.4127C13.8654 43.0662 15.3597 44.2837 17.1331 44.2837C17.842 44.2837 18.5076 44.09 19.0784 43.75L19.1237 43.7231L35.1017 34.4044L27.622 26.1764Z" fill="var(--fill-0, #EB3131)"/>
<path id="path39" d="M41.983 23.5839L41.9694 23.5745L35.0712 19.5327L27.2995 26.5223L35.0982 34.4035L41.96 30.4019C43.163 29.7455 43.9797 28.4637 43.9797 26.9855C43.9797 25.518 43.1741 24.2425 41.983 23.5839Z" fill="var(--fill-0, #F6B60B)"/>
<path id="path41" d="M13.426 12.5025C13.3407 12.8205 13.2958 13.1536 13.2958 13.4996V40.4077C13.2958 40.753 13.3401 41.0872 13.4265 41.4041L28.1105 26.5659L13.426 12.5025Z" fill="var(--fill-0, #5778C5)"/>
<path id="path43" d="M27.727 26.9536L35.0743 19.5298L19.1143 10.1773C18.5342 9.82616 17.8571 9.62348 17.1326 9.62348C15.3592 9.62348 13.8629 10.8432 13.4275 12.4986C13.427 12.5003 13.427 12.5014 13.427 12.5028L27.727 26.9536Z" fill="var(--fill-0, #3BAD49)"/>
<path id="path33" d="M63.193 13.1817H59.3035V14.1545H62.2181C62.1389 14.9484 61.8264 15.5716 61.2993 16.0243C60.7723 16.4771 60.0993 16.7044 59.3035 16.7044C58.4306 16.7044 57.691 16.397 57.0849 15.7865C56.4911 15.1632 56.1891 14.3925 56.1891 13.464C56.1891 12.5355 56.4911 11.7648 57.0849 11.1415C57.691 10.531 58.4306 10.2256 59.3035 10.2256C59.7515 10.2256 60.1786 10.3035 60.5701 10.4741C60.9618 10.6446 61.2764 10.8825 61.5222 11.1879L62.2618 10.4404C61.9264 10.055 61.5014 9.76028 60.9742 9.54548C60.4472 9.33068 59.8972 9.22759 59.3034 9.22759C58.1389 9.22759 57.1515 9.63603 56.3452 10.4509C55.539 11.2679 55.1348 12.2744 55.1348 13.464C55.1348 14.6536 55.5389 15.6623 56.3452 16.4772C57.1515 17.2919 58.1389 17.7006 59.3034 17.7006C60.5263 17.7006 61.5013 17.3047 62.2513 16.5002C62.9117 15.8308 63.2491 14.9254 63.2491 13.7926C63.2491 13.6009 63.2263 13.3965 63.193 13.1817ZM64.6998 9.40849V17.5193H69.385V16.5233H65.731V13.9504H69.0268V12.9776H65.731V10.4066H69.385V9.40846L64.6998 9.40849ZM75.9548 10.4066V9.40849H70.4403V10.4066H72.682V17.5193H73.7132V10.4066H75.9548ZM80.9473 9.40849H79.9161V17.5193H80.9473V9.40849ZM87.7539 10.4066V9.40849H82.2395V10.4066H84.481V17.5193H85.5122V10.4066H87.7539ZM98.1599 10.4635C97.364 9.63597 96.3891 9.22752 95.2245 9.22752C94.0579 9.22752 93.083 9.63596 92.2871 10.4509C91.4913 11.2553 91.0997 12.2638 91.0997 13.4639C91.0997 14.664 91.4913 15.6727 92.2871 16.4771C93.083 17.2919 94.0579 17.7005 95.2245 17.7005C96.3786 17.7005 97.364 17.2919 98.1599 16.4771C98.9557 15.6728 99.3473 14.6641 99.3473 13.4639C99.3473 12.2743 98.9557 11.2677 98.1599 10.4635ZM93.0267 11.1415C93.6204 10.5309 94.3496 10.2255 95.2245 10.2255C96.0974 10.2255 96.8266 10.5309 97.4099 11.1415C98.0036 11.7416 98.2952 12.5247 98.2952 13.4639C98.2952 14.4052 98.0036 15.1862 97.4099 15.7864C96.8266 16.397 96.0974 16.7044 95.2245 16.7044C94.3496 16.7044 93.6204 16.397 93.0267 15.7864C92.4454 15.1737 92.1538 14.4052 92.1538 13.4639C92.1538 12.5248 92.4454 11.7542 93.0267 11.1415ZM101.797 12.468L101.754 10.9035H101.797L105.876 17.5193H106.953V9.40841H105.922V14.1544L105.966 15.719H105.922L102.022 9.40841H100.766V17.5193H101.797V12.468Z" fill="var(--fill-0, white)" stroke="var(--stroke-0, white)" stroke-width="0.26666" stroke-miterlimit="10"/>
</g>
<defs>
<clipPath id="clip0_6941_99">
<rect width="180" height="53.9042" fill="white"/>
</clipPath>
</defs>
</svg>
