<svg width="84" height="84" viewBox="0 0 84 84" fill="none" xmlns="http://www.w3.org/2000/svg">
<g clip-path="url(#clip0_178_28)">
<mask id="mask0_178_28" style="mask-type:luminance" maskUnits="userSpaceOnUse" x="0" y="0" width="84" height="84">
<path d="M84 0H0V84H84V0Z" fill="white"/>
</mask>
<g mask="url(#mask0_178_28)">
<path d="M47.6361 7.97528C48.0798 7.84895 48.5426 7.80333 49.0025 7.8406C55.9101 7.84648 62.8193 7.83612 69.7283 7.84648C70.9606 7.8582 72.1636 8.22322 73.1945 8.8982C74.2255 9.57318 75.0412 10.5298 75.5448 11.6545C75.9014 12.5087 76.0865 13.4247 76.0897 14.3503C76.0912 21.4104 76.0912 28.4705 76.0897 35.5306C76.1207 36.6439 75.1525 37.7127 74.023 37.6995C71.8689 37.7085 69.7149 37.7009 67.5609 37.7026C67.5519 37.9218 67.546 38.1408 67.5371 38.36C67.4392 39.2167 67.1723 40.0455 66.7517 40.7982C66.3312 41.551 65.7653 42.2127 65.0871 42.7451C64.1335 43.4852 62.9902 43.9407 61.789 44.0591C60.5878 44.1775 59.3776 43.954 58.2979 43.4143C58.2254 43.3774 58.0817 43.3023 58.0106 43.2679C56.7265 42.5275 55.7312 41.3736 55.1874 39.9947C54.9255 39.2588 54.7836 38.4855 54.7674 37.7046C52.6414 37.7016 50.5165 37.7011 48.3926 37.7032C48.1079 37.7047 47.8257 37.6497 47.5624 37.5414C47.2991 37.4331 47.0599 37.2736 46.8587 37.0721C46.6575 36.8707 46.4983 36.6313 46.3903 36.3678C46.2823 36.1043 46.2277 35.8221 46.2296 35.5374C46.2296 32.5218 46.2301 29.5051 46.231 26.4875C46.1865 25.6452 46.7728 24.9018 47.4938 24.5289C47.8012 24.3968 48.1345 24.3357 48.4687 24.3503C48.803 24.3648 49.1297 24.4546 49.4244 24.6129C50.5598 25.2924 52.1558 24.6188 52.5467 23.3767C52.9387 22.2071 52.0819 20.9813 50.9524 20.6691C50.5604 20.6573 50.144 20.5851 49.78 20.7654C49.3833 20.9312 49.0027 21.1694 48.5631 21.1918C47.3936 21.3038 46.2005 20.302 46.2316 19.103C46.2286 16.0385 46.2291 12.974 46.233 9.90952C46.2449 9.48333 46.3852 9.07067 46.6356 8.72555C46.8859 8.38044 47.2346 8.11894 47.6361 7.97528Z" fill="#2A9D53"/>
<path d="M13.1854 20.7234C13.5733 20.6532 13.9676 20.6251 14.3614 20.6394C20.7214 20.6379 27.0813 20.6374 33.4412 20.638C33.4457 24.3656 33.4367 28.0949 33.4457 31.824C33.4468 32.3039 33.6033 32.7706 33.8918 33.1542C34.1802 33.5378 34.5851 33.8176 35.0459 33.952C35.4152 33.9842 35.7867 33.9847 36.1561 33.9534C36.6506 33.7106 37.1613 33.416 37.7356 33.4706C38.8651 33.4883 39.9058 34.5232 39.8126 35.6751C39.7793 36.2326 39.5303 36.7554 39.1183 37.1326C38.7063 37.5097 38.1637 37.7117 37.6054 37.6958C36.951 37.7314 36.4624 37.1918 35.8274 37.1423C34.6488 37.0238 33.4474 38.001 33.4499 39.2143C33.4322 41.552 33.4485 43.8903 33.4426 46.2286C32.017 46.2286 30.5914 46.2286 29.1656 46.2286C29.1628 45.2698 28.9447 44.324 28.5274 43.4608C28.1102 42.5976 27.5044 41.8392 26.7549 41.2414C26.0053 40.6436 25.1311 40.2218 24.1968 40.007C23.2624 39.7922 22.2917 39.79 21.3564 40.0005C20.2232 40.2629 19.1817 40.8262 18.342 41.631C17.5022 42.4358 16.8951 43.4524 16.5849 44.5735C16.5293 44.8188 16.4863 45.0669 16.4561 45.3166C16.3882 45.6156 16.3599 45.9222 16.3721 46.2286C13.5283 46.2301 10.6849 46.2305 7.84192 46.23C7.84341 39.8508 7.84388 33.4721 7.84332 27.0939C7.85234 26.0612 8.09208 25.0435 8.545 24.1153C9.00827 23.2332 9.66734 22.4689 10.4717 21.881C11.2761 21.293 12.2044 20.897 13.1854 20.7234Z" fill="#2A9D53"/>
<path d="M20.6511 46.3448C20.5917 45.0731 21.84 43.8859 23.119 44.1404C23.5767 44.2254 23.9955 44.4535 24.3151 44.792C24.6347 45.1304 24.8384 45.5616 24.897 46.0234C24.897 46.1418 24.897 46.3787 24.8956 46.4972C24.7991 46.8628 24.6651 47.2175 24.4958 47.5556C24.2872 47.9551 24.3639 48.4202 24.3804 48.8525C24.5052 49.3167 24.7783 49.7273 25.1581 50.0218C25.5378 50.3164 26.0035 50.4787 26.4841 50.4841C28.8025 50.4989 31.1237 50.4855 33.4435 50.49C33.4421 51.9157 33.4449 53.3412 33.4421 54.767C32.0317 54.7735 30.6625 55.2425 29.5442 56.1019C28.426 56.9614 27.6205 58.1638 27.2513 59.525C26.991 60.5429 26.9758 61.608 27.2067 62.633C27.4835 63.7609 28.0583 64.7937 28.8711 65.6232C29.6839 66.4528 30.7047 67.0485 31.8267 67.3482C32.1185 67.4073 32.4147 67.4549 32.7062 67.5274C32.9521 67.5436 33.1976 67.5512 33.4435 67.5571C33.4464 70.401 33.4469 73.2448 33.4449 76.0887H14.3606C13.4339 76.0851 12.5169 75.8995 11.6617 75.5424C10.8392 75.178 10.1029 74.644 9.50106 73.9753C8.89922 73.3066 8.44538 72.5184 8.16926 71.6622C7.91357 70.8459 7.80288 69.9911 7.84222 69.1366C7.84521 62.9206 7.84567 56.7046 7.84362 50.4886C11.6009 50.4841 15.3583 50.4989 19.1142 50.4813C20.3428 50.5006 21.3363 49.2983 21.1881 48.1013C21.138 47.4783 20.62 46.9844 20.6511 46.3448Z" fill="#2A9D53"/>
<path d="M37.7053 50.4902H41.9661C41.9511 50.8297 41.984 51.1696 42.0638 51.4999C42.3598 53.7724 44.0742 55.7414 46.2044 56.5245C46.4382 56.5926 46.6768 56.6547 46.912 56.7272C47.6031 56.8765 48.3122 56.9244 49.017 56.8695C49.3075 56.8015 49.6023 56.7535 49.8993 56.7258C50.0488 56.6754 50.2014 56.6281 50.3538 56.5858C51.213 56.2992 52.0021 55.8344 52.6695 55.2218C53.3368 54.6093 53.8674 53.8628 54.2264 53.0312C54.5679 52.2266 54.7543 51.3646 54.7758 50.4908C57.6152 50.4908 60.4551 50.4913 63.2956 50.4922C63.2942 56.8062 63.2942 63.1212 63.2956 69.4373C63.3107 69.8758 63.2819 70.3146 63.2097 70.7474C63.033 71.76 62.6178 72.7161 61.9984 73.5365C61.3791 74.3569 60.5733 75.0181 59.6478 75.4654C58.7227 75.8895 57.715 76.1028 56.6974 76.0901H37.7039C37.7025 72.34 37.7084 68.5903 37.7025 64.8419C37.735 63.5346 36.3227 62.4807 35.0747 62.7887C34.5685 62.8982 34.1479 63.2904 33.6137 63.2832C33.3653 63.292 33.1168 63.2671 32.875 63.2092C31.904 62.8732 31.1147 61.8739 31.325 60.8124C31.5338 59.3987 33.2908 58.5845 34.5139 59.3172C34.6931 59.4012 34.8751 59.4771 35.0571 59.5586C35.3679 59.5724 35.6793 59.5685 35.9898 59.5468C36.1348 59.4908 36.2815 59.4374 36.431 59.39C36.788 59.2308 37.0946 58.9771 37.318 58.6564C37.5413 58.3357 37.6728 57.96 37.6983 57.57C37.7143 55.2096 37.6994 52.8501 37.7053 50.4902Z" fill="#2A9D53"/>
</g>
</g>
<defs>
<clipPath id="clip0_178_28">
<rect width="84" height="84" fill="white"/>
</clipPath>
</defs>
</svg>
