<svg width="96" height="92" viewBox="0 0 96 92" fill="none" xmlns="http://www.w3.org/2000/svg">
<mask id="mask0_178_52" style="mask-type:luminance" maskUnits="userSpaceOnUse" x="0" y="0" width="96" height="92">
<path d="M96 0H0V91.9664H96V0Z" fill="white"/>
</mask>
<g mask="url(#mask0_178_52)">
<path d="M18.567 16.5451C19.1299 16.2016 19.7755 16.0025 20.4419 15.9668C21.1083 15.9311 21.773 16.06 22.3724 16.3412C24.118 17.1269 25.5283 18.4258 27.0384 19.5444C21.3626 26.6361 15.681 33.7231 9.99355 40.8055C8.93585 40.0034 7.8807 39.1975 6.82811 38.388C5.50587 37.3344 4.51515 35.6597 4.87355 33.9697C5.23003 32.3287 6.25883 30.9225 7.25531 29.5786C9.55707 26.6507 11.9123 23.7592 14.2345 20.8442C15.5145 19.2783 16.7984 17.638 18.567 16.5451Z" fill="#2A9D53"/>
<path d="M74.0836 16.3048C74.6672 16.0367 75.3115 15.9129 75.9578 15.9447C76.6042 15.9764 77.2319 16.1628 77.7838 16.4866C79.4087 17.4559 80.5911 18.9446 81.7483 20.3765C83.6186 22.7592 85.4836 25.1469 87.3435 27.5394C88.5451 29.0943 89.8174 30.6215 90.7121 32.3655C91.2161 33.3661 91.5899 34.5077 91.3291 35.6221C91.0705 36.729 90.2807 37.6321 89.4411 38.3939C88.4196 39.2897 87.2871 40.057 86.2027 40.8795C80.5958 33.7349 74.9909 26.5891 69.3879 19.4421C70.9249 18.3609 72.3329 17.0666 74.0836 16.3048Z" fill="#2A9D53"/>
<path d="M33.6534 20.9873C37.2425 20.7559 40.8144 20.3393 44.3939 20.0125C46.9204 19.7438 49.4773 20.0598 51.8499 20.934C51.1331 21.069 50.4254 21.245 49.7305 21.461C46.128 22.7295 42.5305 24.0164 38.9251 25.2736C37.3136 25.6415 35.5891 25.593 34.056 26.2595C32.6915 26.8579 31.9635 28.3594 32.0173 29.749C32.0768 31.4727 33.1286 33.0368 34.4931 34.1051C36.7011 35.8436 39.7456 36.3172 42.5142 35.8985C44.3443 35.5551 46.2029 35.3844 48.0502 35.1385C49.2662 35.0064 50.5184 34.6998 51.7254 35.0542C53.5363 35.5591 55.0099 36.7449 56.447 37.861C62.4735 42.4869 68.5012 47.1098 74.5302 51.7296C74.913 52.0173 75.223 52.3842 75.437 52.8028C75.651 53.2214 75.7635 53.6809 75.7661 54.1471C75.7768 55.1474 75.4257 56.1204 74.7723 56.9008C74.119 57.6812 73.2037 58.2207 72.1821 58.4278C71.4537 58.5581 70.607 58.5617 70.0205 58.0642C67.0408 55.7787 64.0585 53.4957 61.0736 51.2152C60.9568 51.1051 60.8178 51.0189 60.6652 50.9619C60.5126 50.9048 60.3495 50.8779 60.1858 50.883C60.022 50.888 59.8611 50.9249 59.7126 50.9913C59.5642 51.0577 59.4314 51.1523 59.3222 51.2693C59.213 51.3863 59.1298 51.5233 59.0775 51.6721C59.0253 51.8208 59.0051 51.9782 59.0181 52.1346C59.0312 52.2911 59.0773 52.4434 59.1536 52.5822C59.2299 52.7211 59.3348 52.8437 59.4621 52.9426C61.5027 54.5367 63.5856 56.0854 65.6246 57.6786C66.6841 58.5213 66.943 60.0044 66.5501 61.2214C66.023 62.9948 64.2048 64.4853 62.2176 64.2833C61.1235 64.206 60.3475 63.4004 59.5331 62.7965C57.8525 61.528 56.2051 60.2156 54.503 58.971C53.735 58.4293 52.5888 59.1549 52.696 60.0301C52.7056 60.6046 53.2384 60.948 53.6579 61.2692C54.8671 62.1852 56.0711 63.108 57.2701 64.0374C57.6926 64.3691 58.0229 64.7958 58.2316 65.2794C58.4402 65.763 58.5207 66.2886 58.4659 66.8093C58.3893 67.7323 58.0069 68.6077 57.3743 69.3078C56.7418 70.0079 55.8923 70.496 54.9497 70.701C54.2214 70.8331 53.3651 70.8699 52.7654 70.3797C51.3859 69.3132 49.9945 68.2596 48.6169 67.1876C48.2873 66.9423 47.9232 66.6514 47.4768 66.6992C47.2819 66.7158 47.094 66.7767 46.9287 66.877C46.7634 66.9772 46.6255 67.1138 46.5265 67.2755C46.4275 67.4371 46.3702 67.6191 46.3595 67.8062C46.3488 67.9934 46.385 68.1802 46.4649 68.3513C46.7811 68.8874 47.3846 69.1829 47.856 69.583C48.7795 70.3429 49.8163 70.9892 50.6768 71.8098C51.2208 73.9355 49.1917 76.3162 46.8883 76.1236C46.1142 76.0721 45.5315 75.5412 44.9606 75.0994C44.2018 74.5158 43.441 73.9338 42.6784 73.3536C43.423 72.3681 43.7781 71.1614 43.6806 69.9484C43.546 68.6526 42.9869 67.4307 42.0834 66.4577C41.1799 65.4847 39.9783 64.8104 38.6505 64.5313C39.4918 61.7999 38.0566 58.7487 35.5501 57.3098C34.3159 56.5817 32.8617 56.2733 31.4221 56.4343C31.6502 53.5943 29.6822 50.7912 26.8998 49.8387C25.9574 49.5196 24.951 49.4122 23.9584 49.5248C24.2342 46.4997 21.9692 43.5314 18.9244 42.7641C17.9657 42.5008 16.9514 42.4848 15.9841 42.7175C15.0168 42.9503 14.1308 43.4236 13.4156 44.0896C12.9561 43.4417 12.4291 42.8402 11.8425 42.2944C17.5451 35.1774 23.2503 28.0623 28.958 20.949C30.5181 21.1095 32.0908 21.1223 33.6534 20.9873Z" fill="#2A9D53"/>
<path d="M63.2801 22.0874C64.7246 21.8631 66.1244 21.4272 67.4305 20.7949C73.1051 28.0257 78.7784 35.2584 84.4503 42.4929C81.9172 45.4594 78.418 47.4971 74.7485 48.9287C69.1129 44.602 63.4742 40.2783 57.8324 35.9577C55.6919 34.2717 53.2429 32.5194 50.3361 32.5488C48.4103 32.6715 46.5057 33.0087 44.5876 33.219C43.3018 33.3364 42.0487 33.6963 40.7514 33.6944C38.9995 33.7694 37.2779 33.2377 35.9015 32.1966C35.1293 31.5835 34.4836 30.7251 34.401 29.7405C34.3569 29.166 34.6349 28.4959 35.2519 28.3067C36.7044 27.8469 38.2775 27.9067 39.7396 27.4824C43.0545 26.3059 46.3754 25.1419 49.6884 23.9616C50.7484 23.558 51.8529 23.271 52.9805 23.1063C56.3949 22.6159 59.8749 22.671 63.2801 22.0874Z" fill="#2A9D53"/>
<path d="M16.3135 44.8993C18.4751 44.49 20.7993 45.9051 21.4105 47.9244C21.6066 48.4669 21.6486 49.0497 21.532 49.6129C21.4155 50.1761 21.1447 50.6995 20.7474 51.1294C19.4885 52.4384 18.2105 53.7351 16.9477 55.0395C16.4037 55.6489 15.501 55.7424 14.7173 55.6968C13.6673 55.6025 12.6853 55.1572 11.9435 54.439C11.2017 53.7208 10.7473 52.7755 10.6601 51.7686C10.626 51.3481 10.6833 50.9255 10.8285 50.5274C10.9736 50.1293 11.2034 49.7643 11.5033 49.4556C12.7314 48.1797 13.9733 46.9167 15.1996 45.6412C15.4849 45.2926 15.873 45.0341 16.3135 44.8993Z" fill="#2A9D53"/>
<path d="M23.9804 51.9135C26.439 51.3482 28.9587 53.45 29.0412 55.8016C29.0655 56.2178 29.0018 56.6344 28.854 57.0265C28.7061 57.4186 28.4771 57.778 28.1807 58.0832C26.9219 59.3849 25.6527 60.6788 24.3923 61.9805C23.894 62.5323 23.0803 62.6396 22.3612 62.6285C21.2853 62.5763 20.265 62.1549 19.4867 61.4413C18.7084 60.7278 18.2242 59.7697 18.1225 58.7423C18.0815 58.3169 18.1334 57.8879 18.2749 57.4827C18.4165 57.0775 18.6445 56.705 18.9446 56.3889C20.0751 55.2068 21.2287 54.0447 22.3631 52.8635C22.7874 52.3951 23.3522 52.0633 23.9804 51.9135Z" fill="#2A9D53"/>
<path d="M31.0588 58.8269C33.6246 58.1111 36.4646 60.2552 36.495 62.7845C36.5076 63.2372 36.4194 63.6873 36.2364 64.1049C36.0534 64.5224 35.7797 64.8979 35.4336 65.2063C34.3164 66.3406 33.2185 67.4898 32.0995 68.6207C31.7852 68.9347 31.4028 69.1788 30.9794 69.3358C30.5559 69.4928 30.1016 69.5588 29.6486 69.5294C27.3836 69.423 25.4368 67.3528 25.5728 65.1842C25.6145 64.4543 25.9288 63.7631 26.4582 63.2367C27.6329 62.0289 28.8131 60.8247 29.982 59.6111C30.2697 59.2704 30.6392 59.0013 31.0588 58.8269Z" fill="#2A9D53"/>
<path d="M33.2454 70.8377C34.6099 69.4499 35.9625 68.0511 37.3174 66.656C38.6294 66.8727 39.9094 67.4837 40.6553 68.5707C41.4553 69.5106 41.5711 71.0048 40.7379 71.9557C40.2108 72.5486 39.6284 73.0921 39.0879 73.6724C38.6873 74.0762 38.3023 74.5921 37.6777 74.662C35.3798 75.1001 33.0614 73.0627 33.2454 70.8377Z" fill="#2A9D53"/>
</g>
</svg>
