<svg width="98" height="78" viewBox="0 0 98 78" fill="none" xmlns="http://www.w3.org/2000/svg">
<mask id="mask0_178_27" style="mask-type:luminance" maskUnits="userSpaceOnUse" x="0" y="0" width="98" height="78">
<path d="M98 0H0V77.0613H98V0Z" fill="white"/>
</mask>
<g mask="url(#mask0_178_27)">
<path d="M67.8697 7.58489C68.0982 7.37709 68.3819 7.21126 68.7007 7.0991C69.0196 6.98695 69.3659 6.93121 69.7152 6.93581C70.0645 6.94042 70.4082 7.00526 70.7221 7.12576C71.036 7.24625 71.3125 7.41947 71.532 7.63318C77.2127 12.8595 82.89 18.0876 88.5637 23.3175C88.8333 23.5368 89.034 23.8027 89.1499 24.0938C89.2658 24.3849 89.2938 24.6932 89.2314 24.9943C89.1218 25.4325 88.8194 25.8264 88.3774 26.1068C87.9354 26.3872 87.3819 26.5362 86.8141 26.5278C85.053 26.5376 83.292 26.5278 81.5309 26.532C81.5326 40.4773 81.5326 54.4227 81.5309 68.368C81.5384 68.8514 81.3098 69.3187 80.8922 69.6735C80.4746 70.0283 79.8999 70.2436 79.2864 70.2751C77.0856 70.3041 74.8865 70.2861 72.6858 70.2889C72.9604 69.6729 73.1025 69.0252 73.1062 68.3724C73.1097 58.8168 73.1097 49.2612 73.1062 39.7056C73.1111 38.8558 72.8815 38.0152 72.4332 37.2419C71.9796 36.5385 71.3418 35.9185 70.5617 35.4227C69.7817 34.9268 68.8771 34.5664 67.9073 34.365C67.3395 34.234 66.7368 34.2712 66.1603 34.1692C65.9209 34.1738 65.6822 34.1894 65.4452 34.216C64.0503 34.1099 62.6417 34.1967 61.2397 34.1692C60.421 34.1476 59.6014 34.1618 58.7848 34.2119C58.3775 34.1356 57.9517 34.1461 57.5513 34.2422L57.1325 34.1264C57.1413 31.5939 57.1341 29.0627 57.1361 26.5314C55.589 26.5273 54.0399 26.5368 52.4925 26.5273C51.998 26.5312 51.514 26.4154 51.1061 26.1955C50.6982 25.9756 50.3863 25.6623 50.2127 25.2982C50.0728 24.9111 50.0476 24.5038 50.1392 24.1079C50.2876 23.8591 50.4685 23.6231 50.6789 23.4038C56.4187 18.1366 62.1233 12.8471 67.8697 7.58489Z" fill="#2A9D53"/>
<path d="M30.4242 27.7895C30.9835 27.6543 31.5707 27.6057 32.1536 27.6461C36.818 27.6515 41.4809 27.642 46.1453 27.6515C46.7433 27.6557 47.3179 27.8346 47.7574 28.1535C48.1969 28.4724 48.4698 28.9084 48.5232 29.3767C48.5512 30.9708 48.5215 32.5665 48.5356 34.1619C46.9568 34.1743 45.3796 34.1648 43.8009 34.1673C43.8009 33.2346 43.7992 32.3017 43.8025 31.3674C40.4172 31.3592 37.0317 31.3662 33.6464 31.3646C33.6481 32.2973 33.6448 33.2303 33.6481 34.1645C33.3345 34.2159 32.849 34.0379 32.6808 34.3148L32.5583 34.1838C31.4244 34.1879 30.2664 34.097 29.1466 34.2403C29.0852 34.2072 28.9663 34.1424 28.9065 34.1119C28.9294 32.5796 28.9049 31.0489 28.917 29.5167C28.9201 29.1433 29.0654 28.7793 29.334 28.4715C29.6026 28.1636 29.9823 27.9261 30.4242 27.7895Z" fill="#2A9D53"/>
<path d="M10.3399 37.8456C11.2967 37.7506 12.2672 37.8677 13.226 37.7727C14.5699 37.8454 15.919 37.8369 17.2613 37.747C17.7266 37.8159 18.2016 37.8353 18.6735 37.8048C19.6022 37.7855 20.5355 37.8503 21.4613 37.7732C24.3751 37.8544 27.2981 37.7855 30.2159 37.8089C32.2644 37.7925 34.3126 37.8405 36.3612 37.7832C39.9218 37.8176 43.491 37.8397 47.0517 37.7722C48.2174 37.8342 49.3871 37.8328 50.5525 37.7681C51.5437 37.8366 52.5407 37.8347 53.5314 37.7627C55.6874 37.8688 57.8594 37.7791 60.0216 37.8094C60.7769 37.7778 61.5514 37.8824 62.2926 37.7434C62.8116 37.8332 63.3479 37.8425 63.8714 37.7709C64.3344 37.8244 64.8048 37.8248 65.2679 37.7722C65.9212 37.8492 66.6295 37.7349 67.2374 37.9815C67.641 38.1404 67.9784 38.3866 68.21 38.6913C68.4415 38.9959 68.5574 39.3463 68.544 39.701C68.5475 43.0946 68.5481 46.4878 68.5457 49.8806C64.4366 49.8819 60.3271 49.8819 56.2169 49.8806C56.2153 49.0195 56.2222 48.1595 56.2169 47.2972C56.2496 46.319 55.1674 45.3309 53.8761 45.3964C52.6301 45.3095 51.5087 46.1968 51.4914 47.1588C51.4721 48.0655 51.4898 48.9733 51.4845 49.8801C42.8581 49.8814 34.2318 49.8805 25.6057 49.8772C25.604 48.9748 25.6181 48.0709 25.6021 47.167C25.5913 46.8683 25.4888 46.576 25.3033 46.3152C25.1179 46.0544 24.8549 45.8327 24.5368 45.6692C23.955 45.3427 23.1857 45.3481 22.5148 45.4598C22.0359 45.597 21.6221 45.8464 21.3292 46.1743C21.0363 46.5022 20.8783 46.8929 20.8765 47.2936C20.8697 48.1562 20.8782 49.0188 20.8765 49.8826C16.7501 49.8826 12.6232 49.8826 8.49585 49.8826C8.49585 46.4904 8.4964 43.0981 8.49748 39.7056C8.48325 39.2758 8.65914 38.8554 8.99514 38.5162C9.33114 38.177 9.80642 37.94 10.3399 37.8456Z" fill="#2A9D53"/>
<path d="M8.51609 53.5947C12.6321 53.6001 16.7481 53.6001 20.8641 53.5947C20.9921 54.6075 20.526 55.7991 21.4848 56.637C21.7 56.8351 21.9665 56.9948 22.2664 57.1054C22.5664 57.2161 22.8928 57.2752 23.2241 57.2789C23.5554 57.2825 23.8839 57.2306 24.1876 57.1266C24.4914 57.0225 24.7634 56.8688 24.9856 56.6756C25.9598 55.8626 25.5148 54.6596 25.5988 53.6581C26.2018 53.5924 26.8114 53.5721 27.4193 53.5975C30.321 53.5961 33.2233 53.5957 36.1263 53.5962C36.3507 54.3899 36.1034 55.2112 36.2997 56.0062C36.4563 56.3784 36.7581 56.7024 37.1623 56.932C37.5665 57.1615 38.0525 57.285 38.5511 57.2849C39.0497 57.2848 39.5355 57.161 39.9395 56.9312C40.3435 56.7014 40.645 56.3772 40.8012 56.0049C40.8789 55.6534 40.9025 55.2958 40.8714 54.9399L40.9662 54.9345C40.9485 54.4868 40.9485 54.0403 40.9714 53.5952C44.4743 53.6021 47.9787 53.5952 51.4813 53.598C51.4989 54.2428 51.4672 54.889 51.4969 55.5353C51.5366 56.0094 51.8039 56.4539 52.2447 56.7788C52.6855 57.1037 53.2669 57.2847 53.8711 57.2851C54.4309 57.2707 54.9672 57.1047 55.3892 56.8152C55.8113 56.5257 56.0933 56.1305 56.1875 55.6964C56.263 54.9977 56.1875 54.2951 56.2329 53.5952C60.3315 53.5993 64.4306 53.5993 68.5303 53.5952C68.563 58.5184 68.5408 63.4428 68.5427 68.3653C68.5405 68.6119 68.4764 68.8557 68.3541 69.0829C68.2318 69.31 68.0537 69.5159 67.8301 69.6888C67.6065 69.8617 67.3416 69.9982 67.0508 70.0906C66.76 70.1829 66.4488 70.2292 66.1352 70.2268C48.2062 70.2323 30.2772 70.2327 12.3482 70.2281C11.5753 70.2024 10.7678 70.3136 10.0266 70.0958C9.55448 69.9509 9.1525 69.6925 8.87785 69.3576C8.60321 69.0226 8.46987 68.6281 8.49682 68.2301C8.51086 63.3514 8.47395 58.4724 8.51609 53.5947Z" fill="#2A9D53"/>
</g>
</svg>
