<svg preserveAspectRatio="none" width="100%" height="100%" overflow="visible" style="display: block;" viewBox="0 0 40 43" fill="none" xmlns="http://www.w3.org/2000/svg">
<g id="#020202ff">
<path id="Vector" d="M7.49516 0.0429941C8.10081 -0.156072 8.76199 0.365425 8.88954 1.00375C8.97805 1.50375 8.91991 2.02057 8.94508 2.52712C10.3308 2.52899 11.7165 2.5402 13.1022 2.52431C13.1595 1.91029 12.9686 1.22337 13.2835 0.665427C13.5994 0.000938215 14.4818 -0.218689 15.0146 0.286921C15.7061 0.769166 15.3643 1.78786 15.4536 2.52712C16.868 2.52712 18.2832 2.54207 19.6966 2.52338C19.766 1.90375 19.5457 1.20749 19.8537 0.638324C20.1877 -0.0635482 21.196 -0.226166 21.6793 0.398136C22.2442 0.944868 21.9856 1.8131 22.0463 2.52712C23.4615 2.52712 24.8767 2.54207 26.292 2.52338C26.4143 1.81964 26.003 0.881316 26.6182 0.355145C27.1293 -0.185979 28.0386 -0.0345764 28.4508 0.583183C28.7085 1.20094 28.6174 1.87291 28.6425 2.52712C29.9796 2.58132 31.4079 2.31123 32.6591 2.95796C34.1012 3.62245 35.0929 5.23928 35.1415 6.92153C35.1563 12.4309 35.1311 17.9421 35.1528 23.4515C37.7706 25.0609 39.6396 28.0712 39.9173 31.317C40.2609 33.974 39.5173 36.7544 37.9928 38.8684C36.4865 40.9908 34.201 42.4937 31.7306 42.8525C29.1215 43.3544 26.344 42.5525 24.2668 40.7927C22.8082 39.6058 21.6993 37.9413 21.0676 36.0936C15.1456 36.0619 9.22274 36.0955 3.29988 36.0777C1.47252 36.0637 -0.0728351 34.1946 0.00265402 32.2506C0.00699247 23.8394 -0.00255186 15.4272 0.00699274 7.01499C0.0460388 5.46825 0.856462 3.97759 2.09119 3.19348C3.42743 2.26543 5.09687 2.5916 6.59537 2.52431C6.67954 1.87945 6.41055 1.14674 6.77151 0.567296C6.90514 0.259818 7.20536 0.116826 7.49516 0.0429941ZM3.93763 5.09535C3.01528 5.24395 2.32373 6.20938 2.34976 7.20191C2.34108 8.44677 2.34455 9.69257 2.34889 10.9374C12.4991 10.944 22.6494 10.943 32.7988 10.9384C32.8048 9.66173 32.8057 8.38509 32.7988 7.10845C32.8179 6.16358 32.1471 5.25143 31.2673 5.10844C30.3979 4.99535 29.5163 5.07012 28.6425 5.0561C28.6 5.84769 28.8195 6.95237 28.0247 7.38415C27.5258 7.74116 26.7839 7.54677 26.4681 7.01499C26.1071 6.43648 26.3753 5.70377 26.292 5.05984C24.8767 5.04115 23.4607 5.0561 22.0463 5.0561C21.9622 5.67012 22.2181 6.37386 21.8685 6.92247C21.7045 7.24957 21.3912 7.44023 21.0823 7.57574C20.6086 7.6935 20.1851 7.35331 19.8893 7.00004C19.5309 6.42433 19.7652 5.70096 19.6966 5.05984C18.2832 5.04115 16.868 5.05517 15.4536 5.0561C15.3643 5.79442 15.7061 6.81405 15.0137 7.2963C14.4714 7.80845 13.5412 7.54957 13.2523 6.85704C12.979 6.30658 13.1603 5.65237 13.1022 5.0589C11.7165 5.04302 10.3308 5.05423 8.94508 5.0561C8.88087 5.73367 9.10647 6.58975 8.61709 7.13462C8.15201 7.75051 7.15763 7.68041 6.77151 7.01499C6.41055 6.43555 6.67954 5.7019 6.59537 5.05704C5.70946 5.06451 4.82007 5.00844 3.93763 5.09535ZM2.34976 13.4683C2.34368 19.6973 2.34368 25.9272 2.34976 32.1572C2.25605 32.9039 2.83827 33.6609 3.56019 33.5553C9.19931 33.5609 14.8376 33.56 20.4767 33.5553C20.4125 31.6431 20.6363 29.6833 21.4338 27.9525C22.816 24.8543 25.6759 22.5805 28.8395 22.1057C30.1584 21.8422 31.5016 22.059 32.7979 22.3487C32.8057 19.3879 32.8031 16.4281 32.7996 13.4683C22.6494 13.4627 12.4991 13.4617 2.34976 13.4683ZM29.7081 24.545C28.9887 24.6179 28.2686 24.7562 27.5944 25.0487C25.1874 26.002 23.3583 28.4179 22.927 31.1347C22.3839 34.1385 23.701 37.3675 26.0334 39.0731C27.5093 40.1703 29.3792 40.6918 31.1606 40.403C34.1307 40.0647 36.7546 37.5553 37.4296 34.4263C37.8678 32.8534 37.6613 31.1478 37.1502 29.6263C36.0639 26.4235 32.8578 24.2253 29.7081 24.545Z" fill="var(--fill-0, white)"/>
<path id="Vector_2" d="M13.1522 14.1038C14.0194 14.1125 15.0178 13.8838 15.8007 14.3254C16.5454 14.7758 16.3204 15.8896 15.5322 16.1864C14.8171 16.2299 14.1002 16.2014 13.3842 16.2109C12.8629 16.2996 12.2624 16.0479 12.08 15.5785C11.7124 14.9254 12.358 14.0729 13.1522 14.1038Z" fill="var(--fill-0, white)"/>
<path id="Vector_3" d="M20.1038 14.1038C21.0058 14.1118 22.0676 13.8608 22.8549 14.388C23.6265 14.95 23.1086 16.3329 22.0754 16.2062C21.1439 16.078 19.9848 16.5347 19.2218 15.8777C18.5415 15.2461 19.1541 14.0674 20.1038 14.1038Z" fill="var(--fill-0, white)"/>
<path id="Vector_4" d="M27.1439 14.1125C28.0363 14.0912 29.099 13.8798 29.8706 14.4157C30.0679 14.6999 30.3564 15.0767 30.1739 15.4257C30.0566 15.755 29.7785 16.0392 29.4344 16.1864C28.5481 16.2292 27.6592 16.2094 26.772 16.2038C25.9578 16.0511 25.6659 15.0949 26.1368 14.5257C26.3766 14.2495 26.7729 14.1466 27.1439 14.1125Z" fill="var(--fill-0, white)"/>
<path id="Vector_5" d="M5.94091 18.93C6.65344 18.8706 7.37031 18.907 8.08545 18.8967C8.57814 18.8793 9.08473 19.1651 9.22897 19.6044C9.49313 20.1783 9.06648 20.8891 8.40348 21.007C7.63273 21.0616 6.85764 21.0379 6.08515 21.0339C5.44909 20.9944 4.91556 20.4419 5.03895 19.8482C5.04677 19.3883 5.47168 19.0313 5.94091 18.93Z" fill="var(--fill-0, white)"/>
<path id="Vector_6" d="M12.8907 18.9261C13.6041 18.8746 14.321 18.9063 15.037 18.8968C15.6809 18.8786 16.3517 19.382 16.2535 20.009C16.2865 20.4601 15.9076 20.9129 15.4124 20.9905C14.5999 21.0728 13.7727 21.0419 12.955 21.0293C12.6005 20.92 12.199 20.7522 12.0774 20.4063C11.8002 19.8103 12.1634 19.0535 12.8907 18.9261Z" fill="var(--fill-0, white)"/>
<path id="Vector_7" d="M19.8421 18.9253C20.5555 18.8754 21.2724 18.9063 21.9884 18.8968C22.6323 18.8786 23.3031 19.382 23.2049 20.0089C23.238 20.4601 22.8591 20.9129 22.3638 20.9905C21.5783 21.0799 20.7789 21.0292 19.9881 21.0348C19.2591 20.9825 18.7316 20.2282 19.0158 19.6044C19.1261 19.2514 19.5015 19.0677 19.8421 18.9253Z" fill="var(--fill-0, white)"/>
<path id="Vector_8" d="M30.0974 22.9686C30.8169 22.849 31.5381 23.4633 31.4565 24.1235C31.4704 24.9142 31.4469 25.705 31.4625 26.4958C32.3593 26.5084 33.256 26.4918 34.1545 26.4973C34.8193 26.5132 35.4423 27.0625 35.3702 27.6879C35.3102 28.124 34.9539 28.5174 34.4717 28.6061C33.1796 28.6757 31.8831 28.6156 30.5893 28.6385C30.2252 28.7019 29.8872 28.5847 29.5622 28.4596C29.3024 28.1802 29.053 27.8375 29.1155 27.4496C29.1121 26.2369 29.1051 25.0242 29.1181 23.8124C29.265 23.4039 29.6169 23.0406 30.0974 22.9686Z" fill="var(--fill-0, white)"/>
<path id="Vector_9" d="M5.85318 23.7546C6.70908 23.7016 7.56933 23.7301 8.42697 23.7332C9.05261 23.8599 9.36977 24.4449 9.29938 24.9895C9.1256 25.4786 8.67288 25.8602 8.082 25.861C7.18178 25.8222 6.17381 26.0454 5.3657 25.5713C4.73572 25.0227 5.01118 23.9644 5.85318 23.7546Z" fill="var(--fill-0, white)"/>
<path id="Vector_10" d="M12.8048 23.7553C13.6607 23.7015 14.521 23.73 15.3786 23.7331C15.7166 23.8447 16.0529 24.0252 16.1676 24.3585C16.5473 25.0558 15.8661 25.8846 15.0336 25.8608C14.1699 25.7951 13.1402 26.0825 12.4016 25.5735C11.6804 25.0978 11.9585 23.9571 12.8048 23.7553Z" fill="var(--fill-0, white)"/>
</g>
</svg>
