<svg preserveAspectRatio="none" width="100%" height="100%" overflow="visible" style="display: block;" viewBox="0 0 40 32.9895" fill="none" xmlns="http://www.w3.org/2000/svg">
<g id="#030303ff">
<path id="Vector" d="M21.8978 0.0206126C22.4279 -0.0783872 23.1263 0.191351 23.22 0.661242C23.299 1.6082 23.2426 2.55946 23.253 3.50785C23.3076 3.91461 22.9831 4.36297 22.4843 4.45265C21.8535 4.6485 21.0813 4.2898 20.9833 3.72952C20.8827 3.47485 21.0926 2.99133 20.4792 3.2173C19.0763 3.10396 17.7159 4.02795 17.5649 5.18008C17.4487 5.53878 17.6109 5.88456 17.7081 6.22819C18.764 9.33879 19.8346 12.448 20.9434 15.5449C21.5047 16.6325 22.3637 17.6627 23.607 18.2832C26.0588 19.7575 29.6612 19.652 31.9968 18.0501C33.0457 17.4374 33.7719 16.5192 34.2439 15.5449C35.0074 13.5786 35.6069 11.5727 36.3374 9.59777C36.6012 8.68884 36.989 7.80932 37.2623 6.90182C37.4783 6.2698 37.8063 5.60478 37.5755 4.94119C37.2649 3.75104 35.7093 3.00352 34.2855 3.22376C34.2569 3.67787 34.1562 4.24102 33.555 4.41391C33.162 4.55882 32.703 4.53371 32.3672 4.29626C31.8553 4.04948 31.9326 3.49493 31.851 3.07741C31.8684 2.28828 31.7651 1.48983 31.9308 0.707155C32.0879 0.0901994 33.0457 -0.189583 33.6634 0.138982C34.217 0.333395 34.2257 0.857807 34.2881 1.27533C35.5705 1.22583 36.9361 1.42598 37.952 2.11467C39.6205 3.10467 40.41 5.01867 39.7888 6.64069C39.145 8.59916 38.4249 10.5397 37.7768 12.4967C37.1027 14.1754 36.7947 15.9732 35.685 17.5135C34.8373 18.6462 33.6452 19.6204 32.218 20.2474C31.0667 22.434 29.957 24.6379 28.8248 26.8324C28.6686 27.0949 28.7502 27.4012 28.7224 27.6825C28.8352 29.1718 27.9268 30.6245 26.6193 31.6116C24.7409 33.0313 21.8249 33.4058 19.524 32.4918C17.3888 31.6697 15.8818 29.8562 15.8002 27.8991C15.7881 25.6271 15.7976 23.3544 15.7967 21.0825C15.8167 19.5544 14.6064 18.0601 12.8208 17.5909C10.7767 16.9682 8.31879 17.8556 7.4425 19.4906C6.76663 20.6793 7.10066 22.0294 7.04166 23.2963C8.25458 23.4929 9.36339 24.0338 10.1894 24.7885C11.2635 25.6738 11.7242 26.9557 11.719 28.1861C11.679 29.6036 10.8097 30.9753 9.4623 31.8448C7.50844 33.1203 4.54294 33.2078 2.51794 31.9904C0.422658 30.8454 -0.545596 28.4752 0.311604 26.5181C0.927608 24.8954 2.68626 23.6536 4.68089 23.2927C4.75724 21.9003 4.46746 20.4569 5.08607 19.1218C5.71075 17.7588 6.97052 16.5823 8.59382 15.989C9.69308 15.4782 11.0119 15.4538 12.2387 15.4918C13.8672 15.6511 15.3863 16.3606 16.4683 17.3693C17.5823 18.3915 18.1436 19.7861 18.1393 21.1542C18.1349 23.3071 18.1401 25.4593 18.1358 27.6122C18.0968 29.0555 19.3019 30.4523 20.9781 30.8748C23.0395 31.5133 25.5192 30.4652 26.1994 28.7585C26.4501 28.2305 26.3798 27.6617 26.3772 27.1085C26.4484 26.8847 26.307 26.7176 26.2167 26.5296C25.1713 24.4535 24.0616 22.3996 23.0534 20.3106C20.7491 19.2546 18.9878 17.398 18.4004 15.2673C17.538 12.8361 16.7077 10.3969 15.8687 7.96069C15.5607 7.06754 15.1478 6.17152 15.1868 5.22815C15.3083 4.15493 15.8653 3.09319 16.8543 2.37437C17.9198 1.53144 19.458 1.22081 20.9 1.27605C20.861 0.735851 21.1846 0.105982 21.8978 0.0206126ZM26.0259 21.1556C26.4709 22.1743 27.0722 23.1428 27.5277 24.1594C27.5607 24.1586 27.6266 24.1579 27.6604 24.1572C28.1506 23.1536 28.7007 22.1664 29.1623 21.1556C28.1229 21.2647 27.0644 21.264 26.0259 21.1556ZM5.58668 25.1379C4.41627 25.2175 3.32135 25.8122 2.76261 26.6623C1.9618 27.8719 2.3904 29.5183 3.73259 30.3397C4.70258 30.971 6.08035 31.0843 7.21432 30.7106C8.97817 30.1517 9.85533 28.3202 9.10484 26.8991C8.52875 25.8 7.05034 24.9973 5.58668 25.1379Z" fill="var(--fill-0, white)"/>
<path id="Vector_2" d="M5.31465 26.736C5.92441 26.6477 6.51548 26.982 6.72123 27.4348C7.01863 28.0958 6.27419 28.8958 5.37637 28.7471C4.63848 28.7335 4.16338 28.0928 4.2569 27.5412C4.42057 27.1533 4.79466 26.8039 5.31465 26.736Z" fill="var(--fill-0, white)"/>
</g>
</svg>
