<svg preserveAspectRatio="none" width="100%" height="100%" overflow="visible" style="display: block;" viewBox="0 0 39.5043 39.2502" fill="none" xmlns="http://www.w3.org/2000/svg">
<g id="#000000ff">
<path id="Vector" d="M16.8934 0.349399C18.7405 -0.116434 20.6956 -0.108755 22.5479 0.326364C24.9385 0.912495 27.0985 2.36289 28.5608 4.33202C28.7605 4.60077 28.9311 4.88914 29.0725 5.19202C29.3982 5.91722 29.6005 6.70299 29.5988 7.49986C29.5996 9.03813 29.5988 10.5756 29.5988 12.1138C29.6091 13.1274 29.4436 14.1384 29.1462 15.1068C29.1188 15.1912 29.0931 15.2774 29.0699 15.3636C29.0305 15.4711 28.9911 15.5777 28.9516 15.6852C28.7879 16.169 28.5316 16.6126 28.2985 17.0648C27.4268 18.5749 26.1479 19.847 24.6299 20.7138C24.6291 21.6916 24.6171 22.6693 24.6359 23.647C24.7645 23.6633 24.8922 23.6803 25.0216 23.6999C26.3339 23.9909 27.6445 24.2946 28.9576 24.5821C29.9425 24.769 30.9136 25.0198 31.8908 25.2399C34.0919 25.861 35.9545 27.5648 36.7474 29.702C36.7851 29.8078 36.8236 29.9153 36.8639 30.0211C37.0756 30.7096 37.3405 31.3802 37.5522 32.0687C37.5779 32.154 37.6045 32.2394 37.6328 32.3247C37.8565 33.0089 38.1025 33.6855 38.3322 34.3672C38.3442 34.4141 38.3665 34.5088 38.3785 34.5557C38.5902 35.1751 38.8045 35.7945 39.0162 36.4139C39.0428 36.4993 39.0702 36.5854 39.0994 36.6708C39.1251 36.7552 39.1516 36.8405 39.1808 36.925C39.3059 37.4181 39.6316 37.9138 39.4508 38.4351C39.3102 38.9231 38.8105 39.2687 38.3031 39.238C37.8556 39.2166 37.4219 38.9248 37.2745 38.4974C37.0851 37.9872 36.9162 37.4702 36.7516 36.9523C36.5356 36.2672 36.2785 35.5958 36.0616 34.9107C36.0342 34.8236 36.0068 34.7366 35.9794 34.6504C35.4994 33.2495 35.0434 31.8401 34.5582 30.44C34.0396 29.1304 32.9459 28.052 31.6139 27.5725C31.5042 27.5341 31.3954 27.4974 31.2865 27.4599C30.7251 27.3268 30.1619 27.2022 29.5996 27.0717C29.6022 27.9539 29.5894 28.836 29.6074 29.7182C29.6639 29.7268 29.7788 29.7438 29.8354 29.7524C29.9416 29.7916 30.0496 29.83 30.1576 29.8692C31.3285 30.3044 32.3031 31.2113 32.8456 32.3289C33.1456 32.9987 33.3128 33.7282 33.3102 34.4627C33.3119 35.658 33.3119 36.8542 33.3111 38.0495C33.3145 38.471 33.0899 38.9052 32.7034 39.0955C32.3502 39.3011 31.9302 39.2328 31.5419 39.2431C31.1194 39.2362 30.6565 39.3028 30.2871 39.052C29.6571 38.6979 29.5842 37.7108 30.1285 37.2501C30.3676 37.0376 30.6839 36.9429 30.9994 36.9267C30.9925 36.1051 30.9994 35.2843 30.9959 34.4636C31.0011 33.7171 30.6882 32.9577 30.1062 32.4765C29.3716 31.8196 28.2376 31.6831 27.3488 32.0952C26.5208 32.4655 25.9474 33.305 25.8694 34.2017C25.8462 35.106 25.8702 36.0104 25.8565 36.9148C26.3245 36.9404 26.8114 37.1716 27.0008 37.6212C27.2639 38.145 27.0171 38.8293 26.5028 39.098C26.0776 39.3292 25.5762 39.2166 25.1151 39.2439C24.6908 39.2687 24.2151 39.2328 23.9048 38.9061C23.6939 38.7363 23.6185 38.4735 23.5516 38.2244C23.5414 36.8542 23.5379 35.484 23.5534 34.1146C23.6185 33.8928 23.5971 33.659 23.6365 33.4338C23.9305 31.7659 25.2479 30.4187 26.8088 29.83C26.9648 29.7831 27.1208 29.7361 27.2802 29.7003C27.2905 28.6594 27.2794 27.6186 27.2854 26.5785C26.4762 26.3789 25.6636 26.1878 24.8442 26.0308C24.5759 25.9557 24.2999 25.9088 24.0256 25.8636C22.9534 27.6459 21.8768 29.4256 20.7994 31.2053C20.5859 31.5909 20.1702 31.8853 19.7151 31.8588C19.2616 31.8554 18.8802 31.5355 18.6754 31.1541C17.6134 29.3898 16.5385 27.6339 15.4834 25.8653C15.2305 25.9011 14.9836 25.9651 14.7325 26.0103C13.8942 26.1912 13.0559 26.3763 12.2211 26.5768C12.2236 28.447 12.2245 30.3172 12.2211 32.1873C13.1211 32.5166 13.9036 33.1693 14.3374 34.0259C14.7196 34.8415 14.8294 35.7928 14.5516 36.6571C14.2516 37.7278 13.4048 38.6254 12.3565 39.0042C11.4668 39.3472 10.4554 39.3019 9.58364 38.9248C8.43078 38.4087 7.5625 37.2569 7.4605 35.9933C7.40993 35.7459 7.4065 35.4882 7.46307 35.2425C7.57878 33.8587 8.60907 32.6514 9.91021 32.195C9.90593 30.4869 9.91107 28.7789 9.90764 27.0717C9.34536 27.2031 8.78393 27.3345 8.22078 27.4599C8.11107 27.4983 8.00136 27.5341 7.8925 27.5725C6.56393 28.0562 5.46336 29.1278 4.94993 30.4409C4.20593 32.6088 3.49107 34.7869 2.75564 36.9574C2.72736 37.0419 2.70078 37.1263 2.67421 37.2125C2.52335 37.6587 2.3845 38.1092 2.2105 38.5477C1.98593 39.1194 1.2445 39.4018 0.689069 39.1415C0.175641 38.9334 -0.115788 38.3123 0.0436405 37.785C0.131926 37.4958 0.240783 37.2142 0.326498 36.925C0.353926 36.8388 0.381355 36.7544 0.407069 36.6699C0.641069 35.9626 0.888783 35.2605 1.12878 34.5557C1.14078 34.5088 1.16393 34.415 1.17507 34.368C1.4425 33.578 1.72535 32.7931 1.97907 31.9988C2.18135 31.335 2.43678 30.6883 2.64421 30.0262C3.33421 27.8515 5.1205 26.0692 7.28907 25.3432C7.39793 25.3073 7.50678 25.2715 7.6165 25.2365C8.59621 25.0283 9.56736 24.7775 10.5505 24.5813C10.7142 24.5412 10.8805 24.5122 11.0442 24.4721C12.0548 24.2741 13.0482 23.9968 14.0622 23.8143C14.3271 23.7383 14.5988 23.6863 14.8705 23.6436C14.8911 22.6667 14.8774 21.6899 14.8774 20.7138C12.9145 19.5945 11.3536 17.7917 10.5514 15.6844C10.5111 15.5803 10.4725 15.4745 10.4339 15.3704C10.1228 14.3705 9.90936 13.3322 9.9085 12.281C9.90678 10.7479 9.90936 9.21388 9.90764 7.67988C9.8785 6.38646 10.3148 5.08025 11.1402 4.07777C12.5116 2.34924 14.4265 1.04986 16.5531 0.434717C16.6654 0.404856 16.7794 0.376701 16.8934 0.349399ZM18.2605 2.42005C16.2076 2.71867 14.2962 3.8312 13.0045 5.4437C12.5185 6.01448 12.2176 6.75333 12.2228 7.50583C12.2245 8.16619 12.2202 8.8274 12.2262 9.48775C12.6625 8.99803 13.1554 8.5595 13.6114 8.08684C13.9105 7.79335 14.2105 7.42904 14.6596 7.38724C15.1679 7.32069 15.5759 7.6867 16.0362 7.83003C16.1408 7.87013 16.2454 7.91023 16.3499 7.95204C17.1359 8.20031 17.9365 8.43238 18.7628 8.49466C20.3545 8.67724 21.9805 8.41019 23.4668 7.82918C23.9776 7.66793 24.4602 7.23281 25.0294 7.42392C25.5711 7.62869 25.9036 8.1423 26.3236 8.51428C26.6554 8.79583 26.9074 9.16867 27.2802 9.39988C27.2888 8.76767 27.2828 8.13632 27.2845 7.50412C27.2862 6.75077 26.9871 6.01107 26.5002 5.44029C25.4982 4.19466 24.1319 3.24422 22.6114 2.73914C22.3911 2.66065 22.1639 2.60861 21.9394 2.54462C20.7342 2.28013 19.4802 2.21871 18.2605 2.42005ZM14.1368 10.8255C13.6079 11.3681 12.9505 11.7777 12.2202 11.9918C12.1945 12.9994 12.3908 14.001 12.7422 14.9438C12.7859 15.047 12.8296 15.1511 12.8742 15.2544C13.6636 17.0264 15.1696 18.4657 16.9825 19.1738C17.0879 19.2131 17.1951 19.2523 17.3005 19.2933C18.8802 19.8308 20.6271 19.8385 22.2068 19.2924C22.3122 19.2515 22.4185 19.2131 22.5248 19.1738C24.3394 18.4674 25.8419 17.0247 26.6331 15.2544C26.6776 15.1503 26.7205 15.0453 26.7651 14.9421C27.1139 13.9985 27.3119 12.9986 27.2871 11.991C27.0394 11.9091 26.7976 11.8118 26.5594 11.7069C25.7365 11.2965 25.1322 10.5798 24.5005 9.93482C23.1454 10.3938 21.7465 10.8059 20.3014 10.8221C19.9679 10.8699 19.6242 10.875 19.2899 10.8238C17.8165 10.823 16.3894 10.3964 15.0068 9.93482C14.7385 10.2522 14.4179 10.5201 14.1368 10.8255ZM17.1976 21.6702C17.1942 22.5268 17.1951 23.3834 17.1976 24.24C18.0325 25.6358 18.8991 27.0162 19.7099 28.4257C19.7331 28.4248 19.7785 28.424 19.8016 28.4231C19.9285 28.1322 20.1188 27.8754 20.2799 27.6032C20.9519 26.4787 21.6334 25.3602 22.3105 24.2391C22.3122 23.3826 22.3139 22.526 22.3096 21.6702C21.9599 21.7402 21.6136 21.8264 21.2614 21.8818C19.9105 22.1096 18.5219 21.9987 17.1976 21.6702ZM10.6311 34.3817C10.1614 34.5574 9.82793 34.9891 9.74136 35.4763C9.72593 35.8304 9.81421 36.2049 10.0602 36.4711C10.4665 36.9702 11.2508 37.0862 11.7874 36.7313C12.4371 36.3465 12.5956 35.3705 12.0942 34.8049C11.7642 34.3561 11.1479 34.2281 10.6311 34.3817Z" fill="var(--fill-0, white)"/>
</g>
</svg>
