<svg preserveAspectRatio="none" width="100%" height="100%" overflow="visible" style="display: block;" viewBox="0 0 44.6911 39.0094" fill="none" xmlns="http://www.w3.org/2000/svg">
<g id="#000000ff">
<path id="Vector" d="M15.9038 0.0757085C16.184 -0.0143491 16.4825 0.0120806 16.7723 0.00131285C20.4877 -0.000644924 24.203 0.00229153 27.9184 0.000333754C28.182 -0.00260291 28.4466 0.0140382 28.7093 0.0424259C29.8579 0.328261 30.7449 1.42364 30.7613 2.62375C30.7807 3.75632 30.7642 4.89085 30.7691 6.0244C33.2098 6.02538 35.6495 6.0244 38.0893 6.0244C38.7368 6.09293 39.392 6.07628 40.0318 6.21822C41.4945 6.56671 42.8864 7.40561 43.6987 8.70851C44.5846 10.0476 44.7242 11.7205 44.6854 13.2887C44.6854 19.4234 44.6854 25.5581 44.6854 31.6928C44.7116 32.9154 44.6573 34.1664 44.2201 35.3215C43.7239 36.6518 42.6877 37.7668 41.4043 38.3512C40.9478 38.5792 40.4612 38.7359 39.9688 38.8621C39.7691 38.8817 39.5704 38.9052 39.3785 38.962C38.3355 39.0305 37.2906 39.0031 36.2466 39.008C26.2628 39.0051 16.2799 39.0129 6.29607 39.0041C4.92838 39.0383 3.56069 38.637 2.42757 37.8637C1.60463 37.2685 0.929995 36.456 0.541303 35.5094C0.148735 34.5492 -0.000538503 33.5037 0.000430802 32.47C-0.000538503 25.8498 0.000430802 19.2286 0.000430802 12.6074C0.000430802 11.6843 0.107055 10.7524 0.413355 9.87828C0.868929 8.50001 1.91481 7.34884 3.21077 6.72529C4.09865 6.24661 5.10964 6.09978 6.0993 6.03223C8.70479 6.00385 11.3113 6.02832 13.9167 6.01951C13.9187 4.88596 13.91 3.75241 13.9197 2.61886C13.9487 1.45692 14.7823 0.361543 15.9038 0.0757085ZM16.373 1.80344C15.931 1.92189 15.7303 2.38197 15.7594 2.81365C15.7613 3.88456 15.7516 4.95644 15.7652 6.02832C20.1552 6.00874 24.5462 6.02636 28.9361 6.01951C28.9294 4.88792 28.9478 3.75632 28.9284 2.62473C28.9226 2.24394 28.6812 1.90623 28.3158 1.80246C27.6654 1.75646 27.014 1.78778 26.3626 1.77897C23.4218 1.77897 20.4809 1.77897 17.54 1.77897C17.1504 1.77995 16.7607 1.7682 16.373 1.80344ZM2.70092 9.45736C2.02919 10.3109 1.85665 11.4445 1.8489 12.5056C1.84405 18.9976 1.8489 25.4896 1.84696 31.9815C1.84017 32.7059 1.84696 33.4391 2.02337 34.1468C2.09025 34.371 2.14647 34.5991 2.24147 34.8144C2.8531 36.3464 4.53581 37.1657 6.10802 37.1452C16.8644 37.152 27.6218 37.1481 38.3781 37.1471C39.4066 37.1765 40.4612 36.9073 41.2987 36.2916C41.9956 35.7777 42.4686 34.9916 42.6644 34.1478C42.8447 33.4068 42.8457 32.6394 42.8389 31.8807C42.8389 25.4896 42.8379 19.0994 42.8389 12.7082C42.8389 12.0808 42.8069 11.4484 42.6402 10.8405C42.426 9.93897 41.8667 9.10985 41.0786 8.62433C40.087 7.97532 38.8579 7.85394 37.7045 7.87939C27.3659 7.87939 17.0273 7.87939 6.68767 7.87939C6.40463 7.88135 6.11675 7.85884 5.83759 7.9254C4.65697 8.00273 3.42499 8.47064 2.70092 9.45736Z" fill="var(--fill-0, white)"/>
<path id="Vector_2" d="M18.2718 14.2999C18.2922 13.5746 18.9552 12.9579 19.6725 12.9892C21.4541 12.9823 23.2357 12.9823 25.0172 12.9892C25.7355 12.9588 26.3946 13.5785 26.415 14.3028C26.4276 15.5901 26.4159 16.8773 26.4208 18.1636C27.6925 18.1695 28.9652 18.1518 30.2369 18.1714C30.9436 18.191 31.5465 18.839 31.5319 19.5516C31.5407 21.3459 31.5348 23.1393 31.5348 24.9336C31.5659 25.655 30.9814 26.3627 30.2515 26.3755C28.972 26.3882 27.6935 26.3774 26.415 26.3804C26.4082 27.6245 26.4159 28.8697 26.4111 30.1138C26.4557 30.9655 25.6376 31.6634 24.8166 31.5587C23.1019 31.5547 21.3872 31.5616 19.6715 31.5547C18.9455 31.5782 18.2747 30.9439 18.2699 30.2068C18.2592 28.9313 18.2699 27.6558 18.2651 26.3813C16.9914 26.3774 15.7167 26.3882 14.4431 26.3755C13.7132 26.3676 13.1209 25.6628 13.152 24.9404C13.15 23.1461 13.1462 21.3508 13.1529 19.5565C13.1316 18.7999 13.7985 18.1303 14.5468 18.1548C15.7846 18.1518 17.0224 18.144 18.2602 18.1597C18.2777 16.8734 18.2534 15.5862 18.2718 14.2999ZM20.1019 19.0573C20.1145 19.5624 19.688 20.0068 19.1898 20.0166C17.7911 20.0352 16.3914 20.0186 14.9917 20.0244C14.9907 21.5261 14.9917 23.0267 14.9907 24.5273C16.3293 24.5273 17.667 24.5273 19.0056 24.5263C19.2915 24.5303 19.6075 24.5753 19.8188 24.7906C20.0466 24.9991 20.1029 25.3251 20.1077 25.6217C20.1067 26.9804 20.1067 28.3391 20.1067 29.6978C21.5975 29.6978 23.0883 29.6978 24.5791 29.6978C24.5781 28.3704 24.581 27.0421 24.5772 25.7147C24.5743 25.3907 24.615 25.0246 24.8651 24.7926C25.0793 24.5723 25.3991 24.5303 25.689 24.5263C27.0247 24.5283 28.3594 24.5263 29.6941 24.5273C29.6941 23.0228 29.6951 21.5182 29.6941 20.0127C28.2954 20.0078 26.8957 20.0215 25.498 20.0058C24.9959 20.0049 24.5655 19.5614 24.5752 19.0534C24.5607 17.6477 24.5781 16.242 24.5675 14.8354C23.0844 14.8314 21.6014 14.8461 20.1193 14.8285C20.0873 16.2371 20.1222 17.6477 20.1019 19.0573Z" fill="var(--fill-0, white)"/>
</g>
</svg>
