<svg preserveAspectRatio="none" width="100%" height="100%" overflow="visible" style="display: block;" viewBox="0 0 30.5958 35.154" fill="none" xmlns="http://www.w3.org/2000/svg">
<g id="#000000ff">
<path id="Vector" d="M12.9856 0.290542C14.4984 -0.0954452 16.0973 -0.0985026 17.6101 0.291306C20.1399 0.944045 22.3403 2.75322 23.5085 5.11271C23.7858 5.70048 24.0359 6.30277 24.1908 6.9364C24.2105 7.04035 24.2316 7.1443 24.2588 7.24672C24.5792 8.7043 24.5407 10.2353 24.1651 11.6783C23.5621 13.9728 22.0343 15.9846 20.0296 17.2098C19.6027 17.4429 19.1825 17.6944 18.7261 17.8648C17.9252 18.1721 17.0917 18.4167 16.2348 18.4847C15.616 18.5565 14.9805 18.5588 14.3624 18.4824C13.6015 18.4327 12.867 18.2118 12.1469 17.9718C12.0555 17.9344 11.9633 17.9007 11.8718 17.864C9.24074 16.8047 7.15672 14.4521 6.42981 11.6806C6.05502 10.236 6.01497 8.70506 6.33611 7.24672C6.3618 7.14354 6.3822 7.03882 6.40412 6.93564C6.556 6.30048 6.8114 5.69971 7.08645 5.11118C8.2554 2.75092 10.4581 0.948631 12.9856 0.290542ZM13.5168 2.28086C12.8776 2.43755 12.2746 2.70965 11.7026 3.03449C10.6432 3.66506 9.74323 4.56774 9.12211 5.64162C8.13299 7.33233 7.90404 9.435 8.44809 11.316C9.04277 13.3598 10.5842 15.0895 12.5277 15.9097C14.2778 16.6679 16.3164 16.6625 18.0687 15.9119C19.9374 15.1186 21.4351 13.4905 22.0758 11.5453C22.0977 11.4681 22.1212 11.3909 22.1461 11.3145C22.505 10.0709 22.5284 8.7387 22.2209 7.48137C22.0622 6.83475 21.7993 6.22022 21.4728 5.64239C20.5661 4.06481 19.0495 2.85869 17.3176 2.34583C17.2368 2.32519 17.1567 2.30455 17.0766 2.28162C15.9122 1.98659 14.682 1.98812 13.5168 2.28086Z" fill="var(--fill-0, white)"/>
<path id="Vector_2" d="M7.4892 21.9509C9.10548 21.1415 10.8918 20.6875 12.6917 20.6019C14.2536 20.5889 15.8155 20.5973 17.3766 20.5965C17.9554 20.5866 18.5319 20.6401 19.1047 20.7135C20.5268 20.9068 21.9149 21.3471 23.2009 21.9899C26.0648 23.449 28.3793 25.9705 29.6011 28.9698C29.6389 29.0646 29.6721 29.1616 29.7114 29.2572C30.0031 30.0276 30.2298 30.8202 30.3839 31.6304C30.5079 32.4956 30.6227 33.3693 30.5902 34.246C30.5464 34.768 30.0537 35.1731 29.5437 35.1532C20.0477 35.1532 10.551 35.1532 1.05503 35.1532C0.543473 35.1746 0.0492925 34.7688 0.00471053 34.246C-0.0232477 33.37 0.0764951 32.4949 0.217797 31.6319C0.252556 31.4844 0.27447 31.3346 0.307717 31.1871C0.432396 30.5252 0.656817 29.8893 0.883505 29.2579C0.922797 29.1616 0.956045 29.0646 0.994582 28.9698C2.23003 25.9423 4.57777 23.3894 7.4892 21.9509ZM9.57775 23.2862C6.6104 24.3364 4.13497 26.7012 2.92823 29.6378C2.68341 30.237 2.47108 30.8508 2.32524 31.4829C2.30484 31.6083 2.28368 31.7336 2.2527 31.8574C2.17865 32.2656 2.12576 32.6768 2.07815 33.0895C10.891 33.0895 19.7039 33.0895 28.5175 33.0895C28.4699 32.6768 28.4148 32.2663 28.343 31.8582C28.3097 31.7107 28.2818 31.5624 28.2493 31.4156C28.1148 30.8057 27.8994 30.2187 27.6682 29.6409C26.4978 26.7998 24.1455 24.4816 21.2975 23.3917C20.3469 23.0454 19.3593 22.7665 18.346 22.7076C18.0521 22.6411 17.7499 22.6686 17.4521 22.6572C16.0157 22.6541 14.5792 22.6541 13.1428 22.6572C12.8451 22.6694 12.5421 22.6396 12.2504 22.7091C11.3353 22.7542 10.446 23.0057 9.57775 23.2862Z" fill="var(--fill-0, white)"/>
</g>
</svg>
