<svg preserveAspectRatio="none" width="100%" height="100%" overflow="visible" style="display: block;" viewBox="0 0 36.8006 37.1132" fill="none" xmlns="http://www.w3.org/2000/svg">
<g id="#000000ff">
<path id="Vector" d="M0.860999 1.51666C1.5964 0.552592 2.79651 -0.00245456 3.99583 0.00319272C9.21229 0.000772455 14.4288 0.00399974 19.6452 0.00157948C19.9846 -0.0153624 20.3311 0.104037 20.5659 0.357358C22.7665 2.5719 24.9631 4.79128 27.1645 7.00582C27.3817 7.23897 27.6292 7.4455 27.8248 7.69882C27.9957 7.91664 28.0348 8.20466 28.0372 8.47411C28.0356 10.2062 28.0348 11.9383 28.0372 13.6704C29.4082 14.2472 30.5804 15.2734 31.3924 16.5247C32.6564 18.4779 32.9599 21.0296 32.1574 23.2224C31.9282 23.9493 31.5202 24.5979 31.1114 25.2328C32.9215 27.0496 34.7261 28.8729 36.5299 30.697C37.0193 31.2109 36.8133 32.1523 36.1666 32.4234C35.8903 32.5146 35.5733 32.5259 35.3002 32.4194C35.1197 32.3484 34.9832 32.2104 34.8539 32.0709C33.0892 30.2952 31.3318 28.5115 29.5623 26.7398C29.1136 27.1279 28.585 27.4175 28.0404 27.645C28.0309 29.3771 28.0372 31.1092 28.0364 32.8413C28.046 33.3899 27.9837 33.9433 27.8105 34.4661C27.3937 35.6262 26.4259 36.5879 25.2442 36.9291C24.8289 37.0598 24.3938 37.1163 23.9594 37.1131C17.3288 37.1131 10.6983 37.1131 4.06849 37.1131C3.15104 37.1203 2.21761 36.8347 1.50218 36.245C0.544002 35.5044 -0.00694833 34.2902 0.00103646 33.0777C-0.000560494 23.4241 0.0010366 13.7696 0.000238119 4.11603C-0.00934363 3.18745 0.270124 2.2379 0.860999 1.51666ZM2.25435 3.41415C2.12579 3.76751 2.15933 4.1491 2.15613 4.51779C2.15613 14.0399 2.15613 23.5612 2.15613 33.0833C2.14815 33.5706 2.34537 34.0514 2.67434 34.4048C3.02168 34.7469 3.50556 34.9421 3.99104 34.9348C10.6711 34.9356 17.352 34.9348 24.0329 34.9348C24.5367 34.9429 25.0469 34.742 25.3951 34.3701C25.7145 34.0256 25.8797 33.5521 25.8789 33.0825C25.8789 31.7627 25.8789 30.4428 25.8789 29.1222C25.875 28.8124 25.8981 28.501 25.8486 28.1936C25.7975 28.2097 25.6961 28.2428 25.645 28.259C25.2633 28.2686 24.8808 28.2767 24.5 28.2565C24.2477 28.1726 23.973 28.2396 23.7247 28.1476C22.9916 28.0476 22.301 27.7612 21.6342 27.4498C20.2856 26.7519 19.1542 25.6435 18.4212 24.3026C18.1209 23.7105 17.859 23.0941 17.7089 22.4447C17.5181 21.5637 17.4702 20.6553 17.5588 19.759C17.6147 19.4645 17.6426 19.1652 17.7097 18.8724C17.8558 18.2197 18.1273 17.6082 18.4212 17.012C19.4552 15.121 21.3013 13.6865 23.3997 13.2372C23.5482 13.1775 23.7159 13.2017 23.8636 13.138C24.1023 13.1065 24.3451 13.1105 24.5814 13.0605C24.9072 13.0468 25.2338 13.0468 25.5604 13.0613C25.6554 13.0863 25.7536 13.1017 25.8518 13.117C25.9149 11.8899 25.8614 10.6572 25.8789 9.4277C23.8524 9.42689 21.8267 9.4285 19.8001 9.42689C19.2061 9.45674 18.6727 8.91057 18.6902 8.31437C18.6886 6.27006 18.6902 4.22494 18.6894 2.18062C13.8714 2.17982 9.0526 2.18224 4.23457 2.17982C3.39697 2.08543 2.50028 2.57351 2.25435 3.41415ZM20.8477 3.71991C20.8437 4.89777 20.8469 6.07563 20.8461 7.25349C22.0143 7.25188 23.1817 7.25672 24.3499 7.25107C23.1841 6.07241 22.0183 4.89374 20.8477 3.71991ZM24.0249 15.3154C21.9959 15.7018 20.2601 17.3629 19.8105 19.4048C19.5167 20.7231 19.6796 22.1688 20.3678 23.3394C21.1008 24.6673 22.4191 25.6451 23.8875 25.9702C24.044 26.017 24.2085 26.025 24.3714 26.0404C24.8018 26.1259 25.2681 26.1186 25.7001 26.0444C25.8622 26.0259 26.0275 26.0267 26.184 25.9758C27.8256 25.6362 29.2637 24.4632 29.9592 22.9247C30.1612 22.4326 30.3281 21.9211 30.3991 21.3911C30.5548 20.3511 30.3608 19.2749 29.9224 18.3262C29.2733 16.9136 27.9805 15.8325 26.4994 15.417C25.6921 15.2008 24.8465 15.1726 24.0249 15.3154Z" fill="var(--fill-0, white)"/>
<path id="Vector_2" d="M4.99792 11.6802C5.13685 11.6301 5.28218 11.5971 5.4299 11.6011C9.34244 11.6019 13.255 11.6019 17.1683 11.6019C17.5556 11.5906 17.9916 11.5761 18.3014 11.8552C18.7533 12.2175 18.8084 12.9427 18.4403 13.3848C18.2279 13.6406 17.8981 13.7938 17.5668 13.7761C13.4945 13.7737 9.42229 13.7785 5.35085 13.7737C4.77993 13.7729 4.30244 13.2307 4.31282 12.6652C4.3272 12.2417 4.60187 11.8294 4.99792 11.6802Z" fill="var(--fill-0, white)"/>
<path id="Vector_3" d="M4.39507 16.6352C4.55716 16.2173 4.98355 15.9317 5.4283 15.9495C8.59746 15.9584 11.7682 15.9342 14.9366 15.9616C15.0156 15.9931 15.0963 16.0189 15.1785 16.0415C15.5506 16.2165 15.8133 16.6102 15.8093 17.0289C15.8237 17.5912 15.343 18.1293 14.7761 18.1213C11.6333 18.1253 8.48967 18.1253 5.34606 18.1213C4.641 18.1261 4.09723 17.2847 4.39507 16.6352Z" fill="var(--fill-0, white)"/>
<path id="Vector_4" d="M4.93963 20.3907C5.01948 20.3657 5.09933 20.339 5.17837 20.3108C7.44446 20.2802 9.71134 20.306 11.9774 20.2979C12.9675 20.3036 13.9569 20.2858 14.947 20.3068C15.268 20.3899 15.561 20.5964 15.6991 20.9078C16.0784 21.5984 15.4732 22.5399 14.6954 22.4721C11.5798 22.4697 8.46491 22.4745 5.34925 22.4697C4.73123 22.4689 4.2186 21.8267 4.3272 21.2168C4.38708 20.8626 4.62583 20.5553 4.93963 20.3907Z" fill="var(--fill-0, white)"/>
<path id="Vector_5" d="M5.01309 24.7141C5.22069 24.6245 5.45066 24.6479 5.67024 24.6455C8.67891 24.6463 11.6876 24.6463 14.6962 24.6455C14.8248 24.6423 14.9542 24.6552 15.0763 24.6979C15.644 24.8746 15.9698 25.5781 15.7343 26.1299C15.6073 26.4784 15.2959 26.7237 14.9446 26.8108C12.1994 26.8326 9.45263 26.8141 6.70666 26.8205C6.19803 26.8132 5.6886 26.835 5.17997 26.8068C5.09933 26.7786 5.01868 26.7519 4.93723 26.7269C4.66575 26.5785 4.44617 26.3308 4.35834 26.0299C4.18906 25.5071 4.51244 24.902 5.01309 24.7141Z" fill="var(--fill-0, white)"/>
</g>
</svg>
