<svg preserveAspectRatio="none" width="100%" height="100%" overflow="visible" style="display: block;" viewBox="0 0 41.7473 39.331" fill="none" xmlns="http://www.w3.org/2000/svg">
<g id="#000000ff">
<path id="Vector" d="M24.8834 0.188837C25.0065 0.164682 25.1305 0.141422 25.2527 0.110109C26.1581 -0.068817 27.0933 -0.0214014 27.9878 0.192416C28.0829 0.221044 28.1788 0.247883 28.2757 0.273827C29.6337 0.698778 30.8369 1.60862 31.5848 2.80832C31.8536 3.27174 32.1207 3.73605 32.3389 4.22542C32.4602 4.48486 32.5888 4.74073 32.7255 4.99301C32.8975 4.99838 33.0695 5.00733 33.2415 5.02075C33.4471 5.07174 33.6607 5.08248 33.8708 5.112C34.0419 5.16389 34.222 5.1782 34.3968 5.21667C34.9988 5.35534 35.5764 5.57363 36.1405 5.81965C38.9154 7.05514 41.023 9.67462 41.559 12.6412C41.7935 13.7291 41.7301 14.8456 41.7383 15.9496C41.7383 21.4077 41.7383 26.865 41.7383 32.3231C41.7727 33.4146 41.7256 34.5302 41.3046 35.5563C40.6039 37.2901 39.0503 38.6625 37.2188 39.1322C36.681 39.2556 36.1314 39.3353 35.5792 39.3308C25.7733 39.3308 15.9666 39.3308 6.16073 39.3308C5.60846 39.3326 5.0571 39.2592 4.52023 39.1322C3.09159 38.7555 1.80509 37.8466 1.00385 36.6165C0.303112 35.5984 -0.0173816 34.3513 0.000725422 33.1274C0.00163077 26.9858 0.00163079 20.8441 0.00163079 14.7016C-0.0182869 13.17 0.282289 11.6133 0.992084 10.2436C1.94723 8.30226 3.61126 6.71429 5.5985 5.82055C6.16525 5.58079 6.74015 5.35176 7.34402 5.21846C7.67447 5.14599 8.00673 5.08248 8.34352 5.05474C8.69299 4.97065 9.05785 4.99927 9.41455 4.98049C11.3764 4.97601 13.3374 4.9778 15.2993 4.97959C15.6524 5.00464 15.9313 4.75057 16.2309 4.60653C17.4676 3.95971 18.6926 3.28963 19.9311 2.6455C21.1823 1.97005 22.4389 1.30534 23.6955 0.639732C24.0713 0.439334 24.475 0.304245 24.8834 0.188837ZM25.5289 1.80633C25.1867 1.90027 24.8399 1.98973 24.5248 2.15613C23.6539 2.61061 22.7911 3.0776 21.922 3.53476C20.4354 4.3283 18.9488 5.12184 17.4577 5.90643C15.4188 7.00325 13.3709 8.07949 11.3303 9.17184C10.8704 9.3955 10.4331 9.66031 9.97768 9.89112C9.93332 9.91528 9.84369 9.9618 9.79842 9.98506C9.71694 10.0164 9.63546 10.0477 9.55398 10.0799C9.83735 10.1139 10.1234 10.1112 10.4095 10.1085C12.9454 10.1067 15.4804 10.1103 18.0163 10.1067C18.2571 10.1157 18.4536 9.9618 18.6609 9.86518C19.616 9.34361 20.582 8.84262 21.5408 8.3282C24.0332 7.00057 26.5284 5.6783 29.0181 4.34619C29.3956 4.14937 29.7885 3.97313 30.1326 3.71995C29.4907 2.76001 28.4839 2.0452 27.3405 1.80275C26.9204 1.75713 26.5003 1.66319 26.0766 1.72403C25.8964 1.76518 25.7118 1.78039 25.5289 1.80633ZM30.0611 5.75345C29.4418 6.05315 28.8533 6.40922 28.2386 6.71786C26.6696 7.55077 25.1043 8.38814 23.5344 9.21926C23.1134 9.43665 22.6997 9.66747 22.2841 9.89381C22.1302 9.96985 21.9699 10.0325 21.8061 10.0808C21.9908 10.0942 22.1764 10.1094 22.3629 10.1094C26.0322 10.1049 29.7025 10.113 33.3728 10.1049C33.2932 9.96717 33.2198 9.82671 33.1528 9.68267C32.8794 9.11727 32.5779 8.56528 32.2991 8.00166C31.8564 7.09898 31.382 6.21061 30.942 5.30613C30.6242 5.40454 30.3589 5.61299 30.0611 5.75345ZM6.04213 7.51319C4.40706 8.32999 3.08706 9.72741 2.36188 11.3896C3.09068 10.8054 3.97612 10.436 4.8878 10.2329C5.30698 10.1291 5.77052 10.1971 6.1562 9.97254C7.66723 9.16379 9.18188 8.36309 10.6938 7.55613C11.2162 7.27522 11.7522 7.01309 12.2564 6.69997C11.3402 6.67671 10.4231 6.69371 9.5069 6.69013C9.20904 6.70444 8.90303 6.66866 8.61332 6.75365C7.71069 6.81359 6.85422 7.13745 6.04213 7.51319ZM33.6806 6.83417C33.7612 7.0444 33.8644 7.24659 33.9704 7.44609C34.2202 7.99361 34.5226 8.51518 34.7843 9.05643C34.9445 9.4116 35.1346 9.75335 35.3094 10.1023C36.7588 10.0674 38.2391 10.4861 39.3789 11.3887C38.3776 9.07701 36.193 7.28685 33.6806 6.83417ZM2.0604 14.5056C1.73266 15.3054 1.74624 16.1777 1.74715 17.0258C1.74805 22.3033 1.74805 27.5807 1.74715 32.8581C1.74262 33.3403 1.74533 33.827 1.86394 34.2976C2.20344 35.8596 3.52525 37.155 5.09966 37.4995C5.89546 37.6677 6.71118 37.614 7.51875 37.622C16.8737 37.6211 26.2287 37.622 35.5837 37.6211C36.0264 37.5871 36.4764 37.5648 36.9028 37.4333C38.1485 37.0701 39.1888 36.12 39.6831 34.9372C39.8597 34.4407 39.9846 33.9218 39.9891 33.3931C39.9973 32.5119 39.99 31.6307 39.9927 30.7495C37.9494 30.7495 35.9069 30.7513 33.8644 30.7495C33.0804 30.7513 32.3108 30.5625 31.5829 30.2843C29.5559 29.4648 28.0575 27.5002 27.8601 25.3378C27.67 23.5584 28.3282 21.6949 29.6428 20.4558C30.5047 19.5916 31.6508 19.0155 32.8568 18.799C33.3122 18.7623 33.7657 18.6871 34.2239 18.7041C36.1468 18.7059 38.0698 18.7041 39.9927 18.705C39.9828 17.6986 40.019 16.6921 39.9583 15.6874C39.9321 15.2813 39.8126 14.8885 39.6768 14.5065C39.1906 13.3578 38.1929 12.4238 36.9843 12.0517C36.1867 11.7555 35.3248 11.8674 34.4927 11.8459C24.9857 11.8387 15.4831 11.8396 5.97513 11.8468C4.28665 11.862 2.70048 12.9704 2.0604 14.5056ZM33.1229 20.4925C31.7839 20.7555 30.5798 21.6475 29.9932 22.8722C29.3956 24.1113 29.4418 25.6277 30.1199 26.8265C30.5988 27.6379 31.3331 28.3143 32.2149 28.6784C32.7681 28.8895 33.3538 29.0336 33.9495 29.0282C35.9576 29.0309 37.9666 29.0273 39.9746 29.0291C39.9764 26.169 39.9746 23.3088 39.9755 20.4487C38.1467 20.4478 36.317 20.4487 34.4873 20.4487C34.0319 20.4487 33.5756 20.4406 33.1229 20.4925Z" fill="var(--fill-0, white)"/>
<path id="Vector_2" d="M31.9197 23.0637C32.4041 22.5162 33.1184 22.1395 33.8644 22.1556C35.0079 22.0966 36.0925 22.9179 36.4166 23.9887C36.4972 24.3475 36.5506 24.7143 36.5035 25.082C36.4691 25.2045 36.4429 25.3298 36.4202 25.455C36.1559 26.3237 35.4071 27.0368 34.5063 27.2318C33.3294 27.5279 32.0094 26.8802 31.5323 25.7789C31.4888 25.6662 31.4472 25.5543 31.4037 25.4425C31.3765 25.2931 31.3521 25.1437 31.3141 24.9961C31.2643 24.3099 31.4571 23.5888 31.9197 23.0637ZM33.3194 24.0988C33.017 24.3341 33.0487 24.7536 33.1021 25.09C33.2859 25.3763 33.5937 25.6134 33.9559 25.5758C34.2872 25.5803 34.5453 25.3432 34.7245 25.0936C34.7517 24.7715 34.8187 24.377 34.5444 24.1355C34.2338 23.7937 33.649 23.7713 33.3194 24.0988Z" fill="var(--fill-0, white)"/>
</g>
</svg>
